0
SECTION
2
HEADER
9
$ACADVER
1
AC1009
9
$INSUNITS
70
4
0
ENDSEC
0
SECTION
2
TABLES
0
TABLE
2
LAYER
70
1
0
LAYER
2
GEOMETRY
70
0
62
7
6
CONTINUOUS
0
ENDTAB
0
ENDSEC
0
SECTION
2
ENTITIES
0
POLYLINE
8
GEOMETRY
66
1
70
1
0
VERTEX
8
GEOMETRY
10
56.530214
20
71.637427
30
0.0
0
VERTEX
8
GEOMETRY
10
56.725146
20
71.345029
30
0.0
0
VERTEX
8
GEOMETRY
10
56.725146
20
56.042885
30
0.0
0
VERTEX
8
GEOMETRY
10
56.530214
20
55.750487
30
0.0
0
VERTEX
8
GEOMETRY
10
56.920078
20
56.042885
30
0.0
0
VERTEX
8
GEOMETRY
10
63.255361
20
56.042885
30
0.0
0
VERTEX
8
GEOMETRY
10
63.157895
20
57.894737
30
0.0
0
VERTEX
8
GEOMETRY
10
58.869396
20
57.797271
30
0.0
0
VERTEX
8
GEOMETRY
10
58.576998
20
58.089669
30
0.0
0
VERTEX
8
GEOMETRY
10
58.576998
20
62.573099
30
0.0
0
VERTEX
8
GEOMETRY
10
59.161793
20
62.865497
30
0.0
0
VERTEX
8
GEOMETRY
10
59.356725
20
62.573099
30
0.0
0
VERTEX
8
GEOMETRY
10
61.598441
20
62.573099
30
0.0
0
VERTEX
8
GEOMETRY
10
61.890838
20
62.865497
30
0.0
0
VERTEX
8
GEOMETRY
10
61.793372
20
64.717349
30
0.0
0
VERTEX
8
GEOMETRY
10
58.771930
20
64.717349
30
0.0
0
VERTEX
8
GEOMETRY
10
58.576998
20
64.912281
30
0.0
0
VERTEX
8
GEOMETRY
10
58.576998
20
69.395712
30
0.0
0
VERTEX
8
GEOMETRY
10
59.161793
20
69.785575
30
0.0
0
VERTEX
8
GEOMETRY
10
59.356725
20
69.590643
30
0.0
0
VERTEX
8
GEOMETRY
10
63.157895
20
69.590643
30
0.0
0
VERTEX
8
GEOMETRY
10
63.255361
20
71.637427
30
0.0
0
VERTEX
8
GEOMETRY
10
63.060429
20
71.442495
30
0.0
0
VERTEX
8
GEOMETRY
10
56.822612
20
71.442495
30
0.0
0
SEQEND
8
GEOMETRY
0
POLYLINE
8
GEOMETRY
66
1
70
1
0
VERTEX
8
GEOMETRY
10
26.705653
20
71.734893
30
0.0
0
VERTEX
8
GEOMETRY
10
26.608187
20
71.150097
30
0.0
0
VERTEX
8
GEOMETRY
10
26.900585
20
70.857700
30
0.0
0
VERTEX
8
GEOMETRY
10
26.900585
20
55.847953
30
0.0
0
VERTEX
8
GEOMETRY
10
26.705653
20
55.653021
30
0.0
0
VERTEX
8
GEOMETRY
10
28.460039
20
55.653021
30
0.0
0
VERTEX
8
GEOMETRY
10
28.460039
20
61.598441
30
0.0
0
VERTEX
8
GEOMETRY
10
28.752437
20
61.890838
30
0.0
0
VERTEX
8
GEOMETRY
10
30.604288
20
61.890838
30
0.0
0
VERTEX
8
GEOMETRY
10
31.189084
20
61.208577
30
0.0
0
VERTEX
8
GEOMETRY
10
30.994152
20
61.013645
30
0.0
0
VERTEX
8
GEOMETRY
10
31.384016
20
58.966862
30
0.0
0
VERTEX
8
GEOMETRY
10
31.676413
20
58.771930
30
0.0
0
VERTEX
8
GEOMETRY
10
31.578947
20
58.382066
30
0.0
0
VERTEX
8
GEOMETRY
10
32.261209
20
55.750487
30
0.0
0
VERTEX
8
GEOMETRY
10
34.307992
20
55.653021
30
0.0
0
VERTEX
8
GEOMETRY
10
34.502924
20
55.750487
30
0.0
0
VERTEX
8
GEOMETRY
10
34.405458
20
56.822612
30
0.0
0
VERTEX
8
GEOMETRY
10
34.015595
20
57.309942
30
0.0
0
VERTEX
8
GEOMETRY
10
33.625731
20
59.746589
30
0.0
0
VERTEX
8
GEOMETRY
10
32.846004
20
62.183236
30
0.0
0
VERTEX
8
GEOMETRY
10
33.138402
20
63.450292
30
0.0
0
VERTEX
8
GEOMETRY
10
33.723197
20
63.742690
30
0.0
0
VERTEX
8
GEOMETRY
10
33.625731
20
64.132554
30
0.0
0
VERTEX
8
GEOMETRY
10
33.918129
20
64.327485
30
0.0
0
VERTEX
8
GEOMETRY
10
34.113060
20
65.009747
30
0.0
0
VERTEX
8
GEOMETRY
10
34.210526
20
68.031189
30
0.0
0
VERTEX
8
GEOMETRY
10
34.113060
20
68.810916
30
0.0
0
VERTEX
8
GEOMETRY
10
33.723197
20
69.103314
30
0.0
0
VERTEX
8
GEOMETRY
10
34.015595
20
69.395712
30
0.0
0
VERTEX
8
GEOMETRY
10
33.820663
20
69.980507
30
0.0
0
VERTEX
8
GEOMETRY
10
33.040936
20
70.565302
30
0.0
0
VERTEX
8
GEOMETRY
10
32.846004
20
71.052632
30
0.0
0
VERTEX
8
GEOMETRY
10
31.871345
20
71.539961
30
0.0
0
VERTEX
8
GEOMETRY
10
30.896686
20
71.734893
30
0.0
0
SEQEND
8
GEOMETRY
0
POLYLINE
8
GEOMETRY
66
1
70
1
0
VERTEX
8
GEOMETRY
10
29.142300
20
69.590643
30
0.0
0
VERTEX
8
GEOMETRY
10
29.434698
20
69.590643
30
0.0
0
VERTEX
8
GEOMETRY
10
29.532164
20
69.493177
30
0.0
0
VERTEX
8
GEOMETRY
10
29.629630
20
69.493177
30
0.0
0
VERTEX
8
GEOMETRY
10
29.727096
20
69.590643
30
0.0
0
VERTEX
8
GEOMETRY
10
30.994152
20
69.590643
30
0.0
0
VERTEX
8
GEOMETRY
10
31.091618
20
69.493177
30
0.0
0
VERTEX
8
GEOMETRY
10
31.189084
20
69.493177
30
0.0
0
VERTEX
8
GEOMETRY
10
31.481481
20
69.200780
30
0.0
0
VERTEX
8
GEOMETRY
10
31.578947
20
69.200780
30
0.0
0
VERTEX
8
GEOMETRY
10
31.871345
20
68.908382
30
0.0
0
VERTEX
8
GEOMETRY
10
31.871345
20
68.810916
30
0.0
0
VERTEX
8
GEOMETRY
10
31.968811
20
68.713450
30
0.0
0
VERTEX
8
GEOMETRY
10
31.968811
20
68.031189
30
0.0
0
VERTEX
8
GEOMETRY
10
32.066277
20
67.933723
30
0.0
0
VERTEX
8
GEOMETRY
10
32.066277
20
67.836257
30
0.0
0
VERTEX
8
GEOMETRY
10
31.968811
20
67.738791
30
0.0
0
VERTEX
8
GEOMETRY
10
31.968811
20
65.594542
30
0.0
0
VERTEX
8
GEOMETRY
10
32.066277
20
65.497076
30
0.0
0
VERTEX
8
GEOMETRY
10
32.066277
20
65.302144
30
0.0
0
VERTEX
8
GEOMETRY
10
31.968811
20
65.204678
30
0.0
0
VERTEX
8
GEOMETRY
10
31.871345
20
64.717349
30
0.0
0
VERTEX
8
GEOMETRY
10
31.676413
20
64.522417
30
0.0
0
VERTEX
8
GEOMETRY
10
31.578947
20
64.522417
30
0.0
0
VERTEX
8
GEOMETRY
10
31.578947
20
64.424951
30
0.0
0
VERTEX
8
GEOMETRY
10
31.384016
20
64.230019
30
0.0
0
VERTEX
8
GEOMETRY
10
31.286550
20
64.230019
30
0.0
0
VERTEX
8
GEOMETRY
10
31.189084
20
64.132554
30
0.0
0
VERTEX
8
GEOMETRY
10
31.286550
20
64.035088
30
0.0
0
VERTEX
8
GEOMETRY
10
30.994152
20
63.742690
30
0.0
0
VERTEX
8
GEOMETRY
10
30.799220
20
63.937622
30
0.0
0
VERTEX
8
GEOMETRY
10
29.142300
20
63.937622
30
0.0
0
VERTEX
8
GEOMETRY
10
28.849903
20
64.230019
30
0.0
0
VERTEX
8
GEOMETRY
10
28.849903
20
69.298246
30
0.0
0
SEQEND
8
GEOMETRY
0
POLYLINE
8
GEOMETRY
66
1
70
1
0
VERTEX
8
GEOMETRY
10
22.222222
20
71.539961
30
0.0
0
VERTEX
8
GEOMETRY
10
20.955166
20
71.734893
30
0.0
0
VERTEX
8
GEOMETRY
10
17.056530
20
71.637427
30
0.0
0
VERTEX
8
GEOMETRY
10
17.251462
20
71.345029
30
0.0
0
VERTEX
8
GEOMETRY
10
17.153996
20
55.653021
30
0.0
0
VERTEX
8
GEOMETRY
10
19.200780
20
55.750487
30
0.0
0
VERTEX
8
GEOMETRY
10
19.200780
20
61.598441
30
0.0
0
VERTEX
8
GEOMETRY
10
19.395712
20
61.793372
30
0.0
0
VERTEX
8
GEOMETRY
10
20.955166
20
61.793372
30
0.0
0
VERTEX
8
GEOMETRY
10
21.539961
20
62.085770
30
0.0
0
VERTEX
8
GEOMETRY
10
21.929825
20
61.988304
30
0.0
0
VERTEX
8
GEOMETRY
10
22.514620
20
62.280702
30
0.0
0
VERTEX
8
GEOMETRY
10
23.489279
20
63.060429
30
0.0
0
VERTEX
8
GEOMETRY
10
24.171540
20
64.132554
30
0.0
0
VERTEX
8
GEOMETRY
10
24.074074
20
64.230019
30
0.0
0
VERTEX
8
GEOMETRY
10
24.463938
20
65.399610
30
0.0
0
VERTEX
8
GEOMETRY
10
24.463938
20
65.984405
30
0.0
0
VERTEX
8
GEOMETRY
10
24.269006
20
66.179337
30
0.0
0
VERTEX
8
GEOMETRY
10
24.269006
20
67.446394
30
0.0
0
VERTEX
8
GEOMETRY
10
24.463938
20
67.641326
30
0.0
0
VERTEX
8
GEOMETRY
10
24.366472
20
68.810916
30
0.0
0
VERTEX
8
GEOMETRY
10
23.489279
20
70.662768
30
0.0
0
SEQEND
8
GEOMETRY
0
POLYLINE
8
GEOMETRY
66
1
70
1
0
VERTEX
8
GEOMETRY
10
19.395712
20
69.590643
30
0.0
0
VERTEX
8
GEOMETRY
10
20.467836
20
69.590643
30
0.0
0
VERTEX
8
GEOMETRY
10
20.565302
20
69.493177
30
0.0
0
VERTEX
8
GEOMETRY
10
20.662768
20
69.493177
30
0.0
0
VERTEX
8
GEOMETRY
10
20.760234
20
69.590643
30
0.0
0
VERTEX
8
GEOMETRY
10
21.052632
20
69.590643
30
0.0
0
VERTEX
8
GEOMETRY
10
21.150097
20
69.493177
30
0.0
0
VERTEX
8
GEOMETRY
10
21.345029
20
69.493177
30
0.0
0
VERTEX
8
GEOMETRY
10
21.442495
20
69.395712
30
0.0
0
VERTEX
8
GEOMETRY
10
21.539961
20
69.493177
30
0.0
0
VERTEX
8
GEOMETRY
10
21.832359
20
69.200780
30
0.0
0
VERTEX
8
GEOMETRY
10
21.832359
20
69.103314
30
0.0
0
VERTEX
8
GEOMETRY
10
21.929825
20
69.103314
30
0.0
0
VERTEX
8
GEOMETRY
10
22.222222
20
68.810916
30
0.0
0
VERTEX
8
GEOMETRY
10
22.319688
20
68.518519
30
0.0
0
VERTEX
8
GEOMETRY
10
22.612086
20
68.226121
30
0.0
0
VERTEX
8
GEOMETRY
10
22.417154
20
68.031189
30
0.0
0
VERTEX
8
GEOMETRY
10
22.319688
20
68.128655
30
0.0
0
VERTEX
8
GEOMETRY
10
22.222222
20
68.031189
30
0.0
0
VERTEX
8
GEOMETRY
10
22.222222
20
67.836257
30
0.0
0
VERTEX
8
GEOMETRY
10
22.319688
20
67.738791
30
0.0
0
VERTEX
8
GEOMETRY
10
22.222222
20
67.641326
30
0.0
0
VERTEX
8
GEOMETRY
10
22.222222
20
66.179337
30
0.0
0
VERTEX
8
GEOMETRY
10
22.319688
20
66.081871
30
0.0
0
VERTEX
8
GEOMETRY
10
22.319688
20
65.789474
30
0.0
0
VERTEX
8
GEOMETRY
10
22.222222
20
65.692008
30
0.0
0
VERTEX
8
GEOMETRY
10
22.222222
20
65.594542
30
0.0
0
VERTEX
8
GEOMETRY
10
22.319688
20
65.497076
30
0.0
0
VERTEX
8
GEOMETRY
10
22.319688
20
65.107212
30
0.0
0
VERTEX
8
GEOMETRY
10
22.222222
20
65.009747
30
0.0
0
VERTEX
8
GEOMETRY
10
22.124756
20
64.717349
30
0.0
0
VERTEX
8
GEOMETRY
10
21.637427
20
64.132554
30
0.0
0
VERTEX
8
GEOMETRY
10
21.442495
20
64.132554
30
0.0
0
VERTEX
8
GEOMETRY
10
21.345029
20
64.035088
30
0.0
0
VERTEX
8
GEOMETRY
10
20.857700
20
64.035088
30
0.0
0
VERTEX
8
GEOMETRY
10
20.760234
20
63.937622
30
0.0
0
VERTEX
8
GEOMETRY
10
20.565302
20
63.937622
30
0.0
0
VERTEX
8
GEOMETRY
10
20.467836
20
64.035088
30
0.0
0
VERTEX
8
GEOMETRY
10
20.370370
20
64.035088
30
0.0
0
VERTEX
8
GEOMETRY
10
20.272904
20
63.937622
30
0.0
0
VERTEX
8
GEOMETRY
10
19.395712
20
63.937622
30
0.0
0
VERTEX
8
GEOMETRY
10
19.103314
20
64.327485
30
0.0
0
VERTEX
8
GEOMETRY
10
19.200780
20
64.424951
30
0.0
0
VERTEX
8
GEOMETRY
10
19.200780
20
69.200780
30
0.0
0
VERTEX
8
GEOMETRY
10
19.103314
20
69.298246
30
0.0
0
SEQEND
8
GEOMETRY
0
POLYLINE
8
GEOMETRY
66
1
70
1
0
VERTEX
8
GEOMETRY
10
68.518519
20
71.929825
30
0.0
0
VERTEX
8
GEOMETRY
10
67.056530
20
71.539961
30
0.0
0
VERTEX
8
GEOMETRY
10
66.081871
20
70.565302
30
0.0
0
VERTEX
8
GEOMETRY
10
65.399610
20
68.810916
30
0.0
0
VERTEX
8
GEOMETRY
10
65.399610
20
67.251462
30
0.0
0
VERTEX
8
GEOMETRY
10
65.594542
20
66.666667
30
0.0
0
VERTEX
8
GEOMETRY
10
66.179337
20
66.374269
30
0.0
0
VERTEX
8
GEOMETRY
10
65.789474
20
66.179337
30
0.0
0
VERTEX
8
GEOMETRY
10
66.276803
20
65.204678
30
0.0
0
VERTEX
8
GEOMETRY
10
68.031189
20
63.255361
30
0.0
0
VERTEX
8
GEOMETRY
10
69.785575
20
61.890838
30
0.0
0
VERTEX
8
GEOMETRY
10
69.688109
20
61.695906
30
0.0
0
VERTEX
8
GEOMETRY
10
70.565302
20
60.721248
30
0.0
0
VERTEX
8
GEOMETRY
10
70.857700
20
58.771930
30
0.0
0
VERTEX
8
GEOMETRY
10
69.980507
20
57.602339
30
0.0
0
VERTEX
8
GEOMETRY
10
68.810916
20
57.407407
30
0.0
0
VERTEX
8
GEOMETRY
10
67.836257
20
58.089669
30
0.0
0
VERTEX
8
GEOMETRY
10
67.348928
20
58.869396
30
0.0
0
VERTEX
8
GEOMETRY
10
67.153996
20
59.941520
30
0.0
0
VERTEX
8
GEOMETRY
10
65.204678
20
59.844055
30
0.0
0
VERTEX
8
GEOMETRY
10
65.204678
20
59.161793
30
0.0
0
VERTEX
8
GEOMETRY
10
65.594542
20
57.797271
30
0.0
0
VERTEX
8
GEOMETRY
10
66.471735
20
56.530214
30
0.0
0
VERTEX
8
GEOMETRY
10
67.251462
20
55.847953
30
0.0
0
VERTEX
8
GEOMETRY
10
69.395712
20
55.458090
30
0.0
0
VERTEX
8
GEOMETRY
10
71.442495
20
56.042885
30
0.0
0
VERTEX
8
GEOMETRY
10
71.442495
20
56.335283
30
0.0
0
VERTEX
8
GEOMETRY
10
72.027290
20
56.627680
30
0.0
0
VERTEX
8
GEOMETRY
10
72.612086
20
57.407407
30
0.0
0
VERTEX
8
GEOMETRY
10
73.001949
20
59.356725
30
0.0
0
VERTEX
8
GEOMETRY
10
72.709552
20
59.941520
30
0.0
0
VERTEX
8
GEOMETRY
10
72.904483
20
60.526316
30
0.0
0
VERTEX
8
GEOMETRY
10
72.417154
20
61.598441
30
0.0
0
VERTEX
8
GEOMETRY
10
71.929825
20
61.890838
30
0.0
0
VERTEX
8
GEOMETRY
10
72.027290
20
62.280702
30
0.0
0
VERTEX
8
GEOMETRY
10
70.857700
20
63.742690
30
0.0
0
VERTEX
8
GEOMETRY
10
69.688109
20
64.717349
30
0.0
0
VERTEX
8
GEOMETRY
10
69.298246
20
64.522417
30
0.0
0
VERTEX
8
GEOMETRY
10
69.005848
20
64.717349
30
0.0
0
VERTEX
8
GEOMETRY
10
69.200780
20
65.107212
30
0.0
0
VERTEX
8
GEOMETRY
10
68.421053
20
65.789474
30
0.0
0
VERTEX
8
GEOMETRY
10
67.641326
20
67.348928
30
0.0
0
VERTEX
8
GEOMETRY
10
67.641326
20
69.005848
30
0.0
0
VERTEX
8
GEOMETRY
10
68.421053
20
69.883041
30
0.0
0
VERTEX
8
GEOMETRY
10
69.590643
20
69.980507
30
0.0
0
VERTEX
8
GEOMETRY
10
70.760234
20
69.688109
30
0.0
0
VERTEX
8
GEOMETRY
10
70.370370
20
69.395712
30
0.0
0
VERTEX
8
GEOMETRY
10
70.857700
20
68.128655
30
0.0
0
VERTEX
8
GEOMETRY
10
72.904483
20
68.518519
30
0.0
0
VERTEX
8
GEOMETRY
10
72.514620
20
69.883041
30
0.0
0
VERTEX
8
GEOMETRY
10
72.027290
20
70.175439
30
0.0
0
VERTEX
8
GEOMETRY
10
72.027290
20
70.565302
30
0.0
0
VERTEX
8
GEOMETRY
10
71.442495
20
71.247563
30
0.0
0
VERTEX
8
GEOMETRY
10
69.883041
20
71.929825
30
0.0
0
SEQEND
8
GEOMETRY
0
POLYLINE
8
GEOMETRY
66
1
70
1
0
VERTEX
8
GEOMETRY
10
49.610136
20
71.929825
30
0.0
0
VERTEX
8
GEOMETRY
10
48.538012
20
71.539961
30
0.0
0
VERTEX
8
GEOMETRY
10
47.563353
20
70.760234
30
0.0
0
VERTEX
8
GEOMETRY
10
46.978558
20
69.980507
30
0.0
0
VERTEX
8
GEOMETRY
10
46.588694
20
68.810916
30
0.0
0
VERTEX
8
GEOMETRY
10
46.881092
20
68.226121
30
0.0
0
VERTEX
8
GEOMETRY
10
46.881092
20
58.674464
30
0.0
0
VERTEX
8
GEOMETRY
10
46.686160
20
58.382066
30
0.0
0
VERTEX
8
GEOMETRY
10
46.881092
20
57.504873
30
0.0
0
VERTEX
8
GEOMETRY
10
48.343080
20
55.945419
30
0.0
0
VERTEX
8
GEOMETRY
10
50.779727
20
55.458090
30
0.0
0
VERTEX
8
GEOMETRY
10
52.241715
20
55.847953
30
0.0
0
VERTEX
8
GEOMETRY
10
53.606238
20
57.309942
30
0.0
0
VERTEX
8
GEOMETRY
10
54.191033
20
58.966862
30
0.0
0
VERTEX
8
GEOMETRY
10
54.191033
20
61.306043
30
0.0
0
VERTEX
8
GEOMETRY
10
51.754386
20
61.306043
30
0.0
0
VERTEX
8
GEOMETRY
10
51.851852
20
58.674464
30
0.0
0
VERTEX
8
GEOMETRY
10
51.267057
20
57.797271
30
0.0
0
VERTEX
8
GEOMETRY
10
49.415205
20
57.504873
30
0.0
0
VERTEX
8
GEOMETRY
10
49.220273
20
57.699805
30
0.0
0
VERTEX
8
GEOMETRY
10
49.415205
20
57.894737
30
0.0
0
VERTEX
8
GEOMETRY
10
48.830409
20
58.576998
30
0.0
0
VERTEX
8
GEOMETRY
10
48.635478
20
58.382066
30
0.0
0
VERTEX
8
GEOMETRY
10
48.343080
20
58.674464
30
0.0
0
VERTEX
8
GEOMETRY
10
48.343080
20
65.497076
30
0.0
0
VERTEX
8
GEOMETRY
10
48.732943
20
65.886940
30
0.0
0
VERTEX
8
GEOMETRY
10
48.732943
20
68.810916
30
0.0
0
VERTEX
8
GEOMETRY
10
49.512671
20
69.883041
30
0.0
0
VERTEX
8
GEOMETRY
10
50.974659
20
69.688109
30
0.0
0
VERTEX
8
GEOMETRY
10
51.851852
20
68.713450
30
0.0
0
VERTEX
8
GEOMETRY
10
51.851852
20
66.374269
30
0.0
0
VERTEX
8
GEOMETRY
10
54.093567
20
66.374269
30
0.0
0
VERTEX
8
GEOMETRY
10
54.191033
20
68.421053
30
0.0
0
VERTEX
8
GEOMETRY
10
53.801170
20
69.688109
30
0.0
0
VERTEX
8
GEOMETRY
10
53.216374
20
70.175439
30
0.0
0
VERTEX
8
GEOMETRY
10
53.411306
20
70.370370
30
0.0
0
VERTEX
8
GEOMETRY
10
52.241715
20
71.539961
30
0.0
0
SEQEND
8
GEOMETRY
0
POLYLINE
8
GEOMETRY
66
1
70
1
0
VERTEX
8
GEOMETRY
10
78.557505
20
72.027290
30
0.0
0
VERTEX
8
GEOMETRY
10
76.900585
20
71.442495
30
0.0
0
VERTEX
8
GEOMETRY
10
75.925926
20
70.565302
30
0.0
0
VERTEX
8
GEOMETRY
10
75.243665
20
68.810916
30
0.0
0
VERTEX
8
GEOMETRY
10
75.341131
20
68.226121
30
0.0
0
VERTEX
8
GEOMETRY
10
75.633528
20
68.128655
30
0.0
0
VERTEX
8
GEOMETRY
10
75.341131
20
67.933723
30
0.0
0
VERTEX
8
GEOMETRY
10
75.341131
20
67.153996
30
0.0
0
VERTEX
8
GEOMETRY
10
75.730994
20
65.789474
30
0.0
0
VERTEX
8
GEOMETRY
10
80.311891
20
60.916179
30
0.0
0
VERTEX
8
GEOMETRY
10
80.896686
20
59.259259
30
0.0
0
VERTEX
8
GEOMETRY
10
80.604288
20
58.869396
30
0.0
0
VERTEX
8
GEOMETRY
10
81.091618
20
58.674464
30
0.0
0
VERTEX
8
GEOMETRY
10
80.506823
20
58.479532
30
0.0
0
VERTEX
8
GEOMETRY
10
79.727096
20
57.602339
30
0.0
0
VERTEX
8
GEOMETRY
10
78.265107
20
57.504873
30
0.0
0
VERTEX
8
GEOMETRY
10
77.290448
20
58.674464
30
0.0
0
VERTEX
8
GEOMETRY
10
76.900585
20
59.844055
30
0.0
0
VERTEX
8
GEOMETRY
10
75.146199
20
59.941520
30
0.0
0
VERTEX
8
GEOMETRY
10
75.048733
20
59.161793
30
0.0
0
VERTEX
8
GEOMETRY
10
75.146199
20
58.674464
30
0.0
0
VERTEX
8
GEOMETRY
10
75.633528
20
58.576998
30
0.0
0
VERTEX
8
GEOMETRY
10
75.243665
20
58.187135
30
0.0
0
VERTEX
8
GEOMETRY
10
75.633528
20
57.894737
30
0.0
0
VERTEX
8
GEOMETRY
10
75.828460
20
57.115010
30
0.0
0
VERTEX
8
GEOMETRY
10
76.900585
20
56.042885
30
0.0
0
VERTEX
8
GEOMETRY
10
78.362573
20
55.458090
30
0.0
0
VERTEX
8
GEOMETRY
10
79.434698
20
55.458090
30
0.0
0
VERTEX
8
GEOMETRY
10
80.994152
20
55.847953
30
0.0
0
VERTEX
8
GEOMETRY
10
81.773879
20
56.530214
30
0.0
0
VERTEX
8
GEOMETRY
10
82.846004
20
58.674464
30
0.0
0
VERTEX
8
GEOMETRY
10
82.846004
20
60.136452
30
0.0
0
VERTEX
8
GEOMETRY
10
82.358674
20
61.500975
30
0.0
0
VERTEX
8
GEOMETRY
10
81.286550
20
63.060429
30
0.0
0
VERTEX
8
GEOMETRY
10
80.896686
20
62.962963
30
0.0
0
VERTEX
8
GEOMETRY
10
80.701754
20
63.645224
30
0.0
0
VERTEX
8
GEOMETRY
10
78.752437
20
65.399610
30
0.0
0
VERTEX
8
GEOMETRY
10
78.265107
20
65.204678
30
0.0
0
VERTEX
8
GEOMETRY
10
78.070175
20
65.399610
30
0.0
0
VERTEX
8
GEOMETRY
10
78.265107
20
65.984405
30
0.0
0
VERTEX
8
GEOMETRY
10
77.485380
20
67.543860
30
0.0
0
VERTEX
8
GEOMETRY
10
77.582846
20
69.103314
30
0.0
0
VERTEX
8
GEOMETRY
10
78.557505
20
69.980507
30
0.0
0
VERTEX
8
GEOMETRY
10
79.434698
20
69.980507
30
0.0
0
VERTEX
8
GEOMETRY
10
80.506823
20
69.103314
30
0.0
0
VERTEX
8
GEOMETRY
10
80.701754
20
68.128655
30
0.0
0
VERTEX
8
GEOMETRY
10
82.358674
20
68.323587
30
0.0
0
VERTEX
8
GEOMETRY
10
82.748538
20
68.713450
30
0.0
0
VERTEX
8
GEOMETRY
10
82.163743
20
70.272904
30
0.0
0
VERTEX
8
GEOMETRY
10
81.091618
20
71.442495
30
0.0
0
VERTEX
8
GEOMETRY
10
79.824561
20
71.929825
30
0.0
0
SEQEND
8
GEOMETRY
0
POLYLINE
8
GEOMETRY
66
1
70
1
0
VERTEX
8
GEOMETRY
10
40.643275
20
72.027290
30
0.0
0
VERTEX
8
GEOMETRY
10
38.011696
20
71.150097
30
0.0
0
VERTEX
8
GEOMETRY
10
37.231969
20
70.272904
30
0.0
0
VERTEX
8
GEOMETRY
10
37.134503
20
69.395712
30
0.0
0
VERTEX
8
GEOMETRY
10
36.744639
20
69.200780
30
0.0
0
VERTEX
8
GEOMETRY
10
36.939571
20
68.908382
30
0.0
0
VERTEX
8
GEOMETRY
10
36.744639
20
58.187135
30
0.0
0
VERTEX
8
GEOMETRY
10
37.621832
20
56.627680
30
0.0
0
VERTEX
8
GEOMETRY
10
39.961014
20
55.458090
30
0.0
0
VERTEX
8
GEOMETRY
10
42.105263
20
55.847953
30
0.0
0
VERTEX
8
GEOMETRY
10
43.762183
20
57.602339
30
0.0
0
VERTEX
8
GEOMETRY
10
43.567251
20
57.797271
30
0.0
0
VERTEX
8
GEOMETRY
10
43.762183
20
69.980507
30
0.0
0
VERTEX
8
GEOMETRY
10
42.690058
20
71.247563
30
0.0
0
VERTEX
8
GEOMETRY
10
42.300195
20
71.345029
30
0.0
0
VERTEX
8
GEOMETRY
10
42.300195
20
59.259259
30
0.0
0
VERTEX
8
GEOMETRY
10
41.812865
20
58.966862
30
0.0
0
VERTEX
8
GEOMETRY
10
41.130604
20
57.797271
30
0.0
0
VERTEX
8
GEOMETRY
10
39.863548
20
57.699805
30
0.0
0
VERTEX
8
GEOMETRY
10
38.791423
20
58.771930
30
0.0
0
VERTEX
8
GEOMETRY
10
38.791423
20
59.746589
30
0.0
0
VERTEX
8
GEOMETRY
10
38.206628
20
60.038986
30
0.0
0
VERTEX
8
GEOMETRY
10
38.206628
20
67.446394
30
0.0
0
VERTEX
8
GEOMETRY
10
38.693957
20
67.738791
30
0.0
0
VERTEX
8
GEOMETRY
10
38.791423
20
68.908382
30
0.0
0
VERTEX
8
GEOMETRY
10
39.571150
20
69.688109
30
0.0
0
VERTEX
8
GEOMETRY
10
40.643275
20
69.785575
30
0.0
0
VERTEX
8
GEOMETRY
10
41.520468
20
69.298246
30
0.0
0
VERTEX
8
GEOMETRY
10
41.520468
20
71.734893
30
0.0
0
SEQEND
8
GEOMETRY
0
POLYLINE
8
GEOMETRY
66
1
70
1
0
VERTEX
8
GEOMETRY
10
42.982456
20
70.272904
30
0.0
0
VERTEX
8
GEOMETRY
10
43.177388
20
70.467836
30
0.0
0
VERTEX
8
GEOMETRY
10
43.274854
20
70.467836
30
0.0
0
VERTEX
8
GEOMETRY
10
43.469786
20
70.272904
30
0.0
0
VERTEX
8
GEOMETRY
10
43.274854
20
70.077973
30
0.0
0
VERTEX
8
GEOMETRY
10
43.177388
20
70.077973
30
0.0
0
SEQEND
8
GEOMETRY
0
POLYLINE
8
GEOMETRY
66
1
70
1
0
VERTEX
8
GEOMETRY
10
55.458090
20
91.130604
30
0.0
0
VERTEX
8
GEOMETRY
10
55.458090
20
77.875244
30
0.0
0
VERTEX
8
GEOMETRY
10
55.263158
20
77.680312
30
0.0
0
VERTEX
8
GEOMETRY
10
57.017544
20
77.680312
30
0.0
0
VERTEX
8
GEOMETRY
10
57.017544
20
91.130604
30
0.0
0
SEQEND
8
GEOMETRY
0
POLYLINE
8
GEOMETRY
66
1
70
1
0
VERTEX
8
GEOMETRY
10
35.185185
20
93.762183
30
0.0
0
VERTEX
8
GEOMETRY
10
35.477583
20
93.274854
30
0.0
0
VERTEX
8
GEOMETRY
10
35.477583
20
78.070175
30
0.0
0
VERTEX
8
GEOMETRY
10
41.910331
20
78.070175
30
0.0
0
VERTEX
8
GEOMETRY
10
41.812865
20
79.824561
30
0.0
0
VERTEX
8
GEOMETRY
10
37.621832
20
79.824561
30
0.0
0
VERTEX
8
GEOMETRY
10
37.231969
20
80.214425
30
0.0
0
VERTEX
8
GEOMETRY
10
37.329435
20
84.502924
30
0.0
0
VERTEX
8
GEOMETRY
10
37.524366
20
84.697856
30
0.0
0
VERTEX
8
GEOMETRY
10
40.643275
20
84.795322
30
0.0
0
VERTEX
8
GEOMETRY
10
40.545809
20
86.842105
30
0.0
0
VERTEX
8
GEOMETRY
10
37.719298
20
86.744639
30
0.0
0
VERTEX
8
GEOMETRY
10
37.231969
20
87.231969
30
0.0
0
VERTEX
8
GEOMETRY
10
37.231969
20
91.228070
30
0.0
0
VERTEX
8
GEOMETRY
10
38.011696
20
91.715400
30
0.0
0
VERTEX
8
GEOMETRY
10
38.304094
20
91.520468
30
0.0
0
VERTEX
8
GEOMETRY
10
41.715400
20
91.617934
30
0.0
0
VERTEX
8
GEOMETRY
10
41.910331
20
91.812865
30
0.0
0
VERTEX
8
GEOMETRY
10
41.812865
20
93.664717
30
0.0
0
VERTEX
8
GEOMETRY
10
35.380117
20
93.567251
30
0.0
0
SEQEND
8
GEOMETRY
0
POLYLINE
8
GEOMETRY
66
1
70
1
0
VERTEX
8
GEOMETRY
10
84.892788
20
93.762183
30
0.0
0
VERTEX
8
GEOMETRY
10
84.502924
20
93.859649
30
0.0
0
VERTEX
8
GEOMETRY
10
84.210526
20
93.567251
30
0.0
0
VERTEX
8
GEOMETRY
10
78.265107
20
93.567251
30
0.0
0
VERTEX
8
GEOMETRY
10
78.070175
20
93.762183
30
0.0
0
VERTEX
8
GEOMETRY
10
78.362573
20
93.274854
30
0.0
0
VERTEX
8
GEOMETRY
10
78.362573
20
78.070175
30
0.0
0
VERTEX
8
GEOMETRY
10
84.795322
20
78.070175
30
0.0
0
VERTEX
8
GEOMETRY
10
84.697856
20
79.922027
30
0.0
0
VERTEX
8
GEOMETRY
10
80.604288
20
79.824561
30
0.0
0
VERTEX
8
GEOMETRY
10
80.409357
20
80.019493
30
0.0
0
VERTEX
8
GEOMETRY
10
80.311891
20
84.307992
30
0.0
0
VERTEX
8
GEOMETRY
10
80.604288
20
84.697856
30
0.0
0
VERTEX
8
GEOMETRY
10
83.528265
20
84.697856
30
0.0
0
VERTEX
8
GEOMETRY
10
83.625731
20
86.647173
30
0.0
0
VERTEX
8
GEOMETRY
10
83.430799
20
86.842105
30
0.0
0
VERTEX
8
GEOMETRY
10
81.189084
20
86.842105
30
0.0
0
VERTEX
8
GEOMETRY
10
80.896686
20
86.647173
30
0.0
0
VERTEX
8
GEOMETRY
10
80.409357
20
86.939571
30
0.0
0
VERTEX
8
GEOMETRY
10
80.311891
20
91.130604
30
0.0
0
VERTEX
8
GEOMETRY
10
80.701754
20
91.617934
30
0.0
0
VERTEX
8
GEOMETRY
10
84.795322
20
91.617934
30
0.0
0
SEQEND
8
GEOMETRY
0
POLYLINE
8
GEOMETRY
66
1
70
1
0
VERTEX
8
GEOMETRY
10
67.153996
20
93.859649
30
0.0
0
VERTEX
8
GEOMETRY
10
69.980507
20
77.777778
30
0.0
0
VERTEX
8
GEOMETRY
10
72.417154
20
77.680312
30
0.0
0
VERTEX
8
GEOMETRY
10
72.612086
20
77.777778
30
0.0
0
VERTEX
8
GEOMETRY
10
75.243665
20
93.859649
30
0.0
0
VERTEX
8
GEOMETRY
10
73.586745
20
93.762183
30
0.0
0
VERTEX
8
GEOMETRY
10
73.684211
20
92.982456
30
0.0
0
VERTEX
8
GEOMETRY
10
71.832359
20
81.384016
30
0.0
0
VERTEX
8
GEOMETRY
10
71.150097
20
80.799220
30
0.0
0
VERTEX
8
GEOMETRY
10
70.760234
20
81.286550
30
0.0
0
VERTEX
8
GEOMETRY
10
70.565302
20
82.748538
30
0.0
0
VERTEX
8
GEOMETRY
10
70.272904
20
82.846004
30
0.0
0
VERTEX
8
GEOMETRY
10
70.565302
20
82.943470
30
0.0
0
VERTEX
8
GEOMETRY
10
69.785575
20
87.621832
30
0.0
0
VERTEX
8
GEOMETRY
10
69.493177
20
87.914230
30
0.0
0
VERTEX
8
GEOMETRY
10
69.688109
20
88.304094
30
0.0
0
VERTEX
8
GEOMETRY
10
68.810916
20
93.762183
30
0.0
0
SEQEND
8
GEOMETRY
0
POLYLINE
8
GEOMETRY
66
1
70
1
0
VERTEX
8
GEOMETRY
10
62.475634
20
93.859649
30
0.0
0
VERTEX
8
GEOMETRY
10
62.280702
20
93.762183
30
0.0
0
VERTEX
8
GEOMETRY
10
62.378168
20
93.567251
30
0.0
0
VERTEX
8
GEOMETRY
10
62.280702
20
93.372320
30
0.0
0
VERTEX
8
GEOMETRY
10
62.475634
20
93.177388
30
0.0
0
VERTEX
8
GEOMETRY
10
62.475634
20
83.040936
30
0.0
0
VERTEX
8
GEOMETRY
10
62.183236
20
82.748538
30
0.0
0
VERTEX
8
GEOMETRY
10
62.183236
20
77.777778
30
0.0
0
VERTEX
8
GEOMETRY
10
62.280702
20
77.680312
30
0.0
0
VERTEX
8
GEOMETRY
10
63.937622
20
77.680312
30
0.0
0
VERTEX
8
GEOMETRY
10
64.035088
20
77.777778
30
0.0
0
VERTEX
8
GEOMETRY
10
64.035088
20
93.859649
30
0.0
0
SEQEND
8
GEOMETRY
0
POLYLINE
8
GEOMETRY
66
1
70
1
0
VERTEX
8
GEOMETRY
10
52.534113
20
93.664717
30
0.0
0
VERTEX
8
GEOMETRY
10
52.631579
20
93.567251
30
0.0
0
VERTEX
8
GEOMETRY
10
52.534113
20
93.469786
30
0.0
0
VERTEX
8
GEOMETRY
10
52.534113
20
91.812865
30
0.0
0
VERTEX
8
GEOMETRY
10
52.631579
20
91.715400
30
0.0
0
VERTEX
8
GEOMETRY
10
52.826511
20
91.910331
30
0.0
0
VERTEX
8
GEOMETRY
10
59.844055
20
91.910331
30
0.0
0
VERTEX
8
GEOMETRY
10
59.941520
20
91.812865
30
0.0
0
VERTEX
8
GEOMETRY
10
59.941520
20
93.372320
30
0.0
0
VERTEX
8
GEOMETRY
10
59.844055
20
93.469786
30
0.0
0
VERTEX
8
GEOMETRY
10
59.844055
20
93.762183
30
0.0
0
VERTEX
8
GEOMETRY
10
59.649123
20
93.567251
30
0.0
0
VERTEX
8
GEOMETRY
10
53.216374
20
93.567251
30
0.0
0
VERTEX
8
GEOMETRY
10
52.826511
20
93.859649
30
0.0
0
VERTEX
8
GEOMETRY
10
52.729045
20
93.859649
30
0.0
0
SEQEND
8
GEOMETRY
0
POLYLINE
8
GEOMETRY
66
1
70
1
0
VERTEX
8
GEOMETRY
10
46.881092
20
93.859649
30
0.0
0
VERTEX
8
GEOMETRY
10
44.152047
20
77.777778
30
0.0
0
VERTEX
8
GEOMETRY
10
46.101365
20
77.680312
30
0.0
0
VERTEX
8
GEOMETRY
10
46.198830
20
78.167641
30
0.0
0
VERTEX
8
GEOMETRY
10
46.003899
20
78.362573
30
0.0
0
VERTEX
8
GEOMETRY
10
46.296296
20
78.557505
30
0.0
0
VERTEX
8
GEOMETRY
10
46.783626
20
81.286550
30
0.0
0
VERTEX
8
GEOMETRY
10
47.076023
20
81.578947
30
0.0
0
VERTEX
8
GEOMETRY
10
49.415205
20
81.481481
30
0.0
0
VERTEX
8
GEOMETRY
10
49.707602
20
81.189084
30
0.0
0
VERTEX
8
GEOMETRY
10
49.707602
20
80.214425
30
0.0
0
VERTEX
8
GEOMETRY
10
49.902534
20
79.922027
30
0.0
0
VERTEX
8
GEOMETRY
10
50.194932
20
77.875244
30
0.0
0
VERTEX
8
GEOMETRY
10
50.682261
20
77.680312
30
0.0
0
VERTEX
8
GEOMETRY
10
52.241715
20
77.680312
30
0.0
0
VERTEX
8
GEOMETRY
10
52.046784
20
77.972710
30
0.0
0
VERTEX
8
GEOMETRY
10
51.072125
20
84.307992
30
0.0
0
VERTEX
8
GEOMETRY
10
50.779727
20
84.795322
30
0.0
0
VERTEX
8
GEOMETRY
10
50.877193
20
85.477583
30
0.0
0
VERTEX
8
GEOMETRY
10
49.512671
20
93.762183
30
0.0
0
SEQEND
8
GEOMETRY
0
POLYLINE
8
GEOMETRY
66
1
70
1
0
VERTEX
8
GEOMETRY
10
48.245614
20
90.253411
30
0.0
0
VERTEX
8
GEOMETRY
10
48.440546
20
90.058480
30
0.0
0
VERTEX
8
GEOMETRY
10
48.440546
20
89.376218
30
0.0
0
VERTEX
8
GEOMETRY
10
48.538012
20
89.278752
30
0.0
0
VERTEX
8
GEOMETRY
10
48.538012
20
89.083821
30
0.0
0
VERTEX
8
GEOMETRY
10
48.635478
20
88.986355
30
0.0
0
VERTEX
8
GEOMETRY
10
48.635478
20
88.206628
30
0.0
0
VERTEX
8
GEOMETRY
10
48.732943
20
88.109162
30
0.0
0
VERTEX
8
GEOMETRY
10
48.635478
20
88.011696
30
0.0
0
VERTEX
8
GEOMETRY
10
48.635478
20
87.816764
30
0.0
0
VERTEX
8
GEOMETRY
10
48.732943
20
87.719298
30
0.0
0
VERTEX
8
GEOMETRY
10
48.732943
20
87.524366
30
0.0
0
VERTEX
8
GEOMETRY
10
48.830409
20
87.426901
30
0.0
0
VERTEX
8
GEOMETRY
10
48.830409
20
86.842105
30
0.0
0
VERTEX
8
GEOMETRY
10
48.927875
20
86.744639
30
0.0
0
VERTEX
8
GEOMETRY
10
48.927875
20
86.452242
30
0.0
0
VERTEX
8
GEOMETRY
10
49.122807
20
86.257310
30
0.0
0
VERTEX
8
GEOMETRY
10
49.122807
20
86.062378
30
0.0
0
VERTEX
8
GEOMETRY
10
49.025341
20
85.964912
30
0.0
0
VERTEX
8
GEOMETRY
10
49.025341
20
85.769981
30
0.0
0
VERTEX
8
GEOMETRY
10
49.122807
20
85.672515
30
0.0
0
VERTEX
8
GEOMETRY
10
49.025341
20
85.575049
30
0.0
0
VERTEX
8
GEOMETRY
10
49.025341
20
85.477583
30
0.0
0
VERTEX
8
GEOMETRY
10
49.122807
20
85.380117
30
0.0
0
VERTEX
8
GEOMETRY
10
49.122807
20
84.502924
30
0.0
0
VERTEX
8
GEOMETRY
10
49.220273
20
84.405458
30
0.0
0
VERTEX
8
GEOMETRY
10
49.122807
20
84.113060
30
0.0
0
VERTEX
8
GEOMETRY
10
49.220273
20
84.015595
30
0.0
0
VERTEX
8
GEOMETRY
10
49.220273
20
83.723197
30
0.0
0
VERTEX
8
GEOMETRY
10
49.025341
20
83.528265
30
0.0
0
VERTEX
8
GEOMETRY
10
48.927875
20
83.528265
30
0.0
0
VERTEX
8
GEOMETRY
10
48.830409
20
83.625731
30
0.0
0
VERTEX
8
GEOMETRY
10
48.635478
20
83.430799
30
0.0
0
VERTEX
8
GEOMETRY
10
48.538012
20
83.430799
30
0.0
0
VERTEX
8
GEOMETRY
10
48.440546
20
83.528265
30
0.0
0
VERTEX
8
GEOMETRY
10
47.368421
20
83.528265
30
0.0
0
VERTEX
8
GEOMETRY
10
47.173489
20
83.333333
30
0.0
0
VERTEX
8
GEOMETRY
10
46.881092
20
83.625731
30
0.0
0
VERTEX
8
GEOMETRY
10
46.881092
20
84.307992
30
0.0
0
VERTEX
8
GEOMETRY
10
46.978558
20
84.405458
30
0.0
0
VERTEX
8
GEOMETRY
10
46.978558
20
84.892788
30
0.0
0
VERTEX
8
GEOMETRY
10
47.076023
20
84.990253
30
0.0
0
VERTEX
8
GEOMETRY
10
47.076023
20
85.477583
30
0.0
0
VERTEX
8
GEOMETRY
10
47.173489
20
85.575049
30
0.0
0
VERTEX
8
GEOMETRY
10
47.173489
20
86.159844
30
0.0
0
VERTEX
8
GEOMETRY
10
47.270955
20
86.257310
30
0.0
0
VERTEX
8
GEOMETRY
10
47.270955
20
86.744639
30
0.0
0
VERTEX
8
GEOMETRY
10
47.368421
20
86.842105
30
0.0
0
VERTEX
8
GEOMETRY
10
47.368421
20
87.426901
30
0.0
0
VERTEX
8
GEOMETRY
10
47.465887
20
87.524366
30
0.0
0
VERTEX
8
GEOMETRY
10
47.465887
20
88.011696
30
0.0
0
VERTEX
8
GEOMETRY
10
47.563353
20
88.109162
30
0.0
0
VERTEX
8
GEOMETRY
10
47.563353
20
88.596491
30
0.0
0
VERTEX
8
GEOMETRY
10
47.660819
20
88.693957
30
0.0
0
VERTEX
8
GEOMETRY
10
47.660819
20
89.278752
30
0.0
0
VERTEX
8
GEOMETRY
10
47.758285
20
89.376218
30
0.0
0
VERTEX
8
GEOMETRY
10
47.758285
20
89.863548
30
0.0
0
VERTEX
8
GEOMETRY
10
48.050682
20
90.253411
30
0.0
0
SEQEND
8
GEOMETRY
0
POLYLINE
8
GEOMETRY
66
1
70
1
0
VERTEX
8
GEOMETRY
10
25.048733
20
93.859649
30
0.0
0
VERTEX
8
GEOMETRY
10
24.853801
20
93.762183
30
0.0
0
VERTEX
8
GEOMETRY
10
25.048733
20
93.469786
30
0.0
0
VERTEX
8
GEOMETRY
10
25.048733
20
78.654971
30
0.0
0
VERTEX
8
GEOMETRY
10
24.853801
20
77.777778
30
0.0
0
VERTEX
8
GEOMETRY
10
26.608187
20
77.680312
30
0.0
0
VERTEX
8
GEOMETRY
10
26.608187
20
83.723197
30
0.0
0
VERTEX
8
GEOMETRY
10
26.900585
20
84.015595
30
0.0
0
VERTEX
8
GEOMETRY
10
28.557505
20
83.918129
30
0.0
0
VERTEX
8
GEOMETRY
10
28.752437
20
84.113060
30
0.0
0
VERTEX
8
GEOMETRY
10
29.239766
20
83.820663
30
0.0
0
VERTEX
8
GEOMETRY
10
30.604288
20
77.680312
30
0.0
0
VERTEX
8
GEOMETRY
10
32.748538
20
77.777778
30
0.0
0
VERTEX
8
GEOMETRY
10
32.261209
20
79.044834
30
0.0
0
VERTEX
8
GEOMETRY
10
32.066277
20
80.604288
30
0.0
0
VERTEX
8
GEOMETRY
10
31.676413
20
81.286550
30
0.0
0
VERTEX
8
GEOMETRY
10
30.994152
20
84.502924
30
0.0
0
VERTEX
8
GEOMETRY
10
30.506823
20
84.892788
30
0.0
0
VERTEX
8
GEOMETRY
10
31.578947
20
85.477583
30
0.0
0
VERTEX
8
GEOMETRY
10
32.261209
20
87.037037
30
0.0
0
VERTEX
8
GEOMETRY
10
32.066277
20
90.350877
30
0.0
0
VERTEX
8
GEOMETRY
10
32.261209
20
90.935673
30
0.0
0
VERTEX
8
GEOMETRY
10
32.066277
20
91.617934
30
0.0
0
VERTEX
8
GEOMETRY
10
30.994152
20
93.177388
30
0.0
0
VERTEX
8
GEOMETRY
10
30.311891
20
93.469786
30
0.0
0
VERTEX
8
GEOMETRY
10
29.824561
20
93.372320
30
0.0
0
VERTEX
8
GEOMETRY
10
29.434698
20
93.762183
30
0.0
0
SEQEND
8
GEOMETRY
0
POLYLINE
8
GEOMETRY
66
1
70
1
0
VERTEX
8
GEOMETRY
10
27.192982
20
91.617934
30
0.0
0
VERTEX
8
GEOMETRY
10
27.290448
20
91.617934
30
0.0
0
VERTEX
8
GEOMETRY
10
27.387914
20
91.520468
30
0.0
0
VERTEX
8
GEOMETRY
10
28.070175
20
91.520468
30
0.0
0
VERTEX
8
GEOMETRY
10
28.167641
20
91.617934
30
0.0
0
VERTEX
8
GEOMETRY
10
28.265107
20
91.617934
30
0.0
0
VERTEX
8
GEOMETRY
10
28.362573
20
91.520468
30
0.0
0
VERTEX
8
GEOMETRY
10
28.849903
20
91.520468
30
0.0
0
VERTEX
8
GEOMETRY
10
28.947368
20
91.617934
30
0.0
0
VERTEX
8
GEOMETRY
10
29.044834
20
91.617934
30
0.0
0
VERTEX
8
GEOMETRY
10
29.142300
20
91.520468
30
0.0
0
VERTEX
8
GEOMETRY
10
29.337232
20
91.520468
30
0.0
0
VERTEX
8
GEOMETRY
10
30.019493
20
90.935673
30
0.0
0
VERTEX
8
GEOMETRY
10
30.019493
20
90.643275
30
0.0
0
VERTEX
8
GEOMETRY
10
30.214425
20
90.448343
30
0.0
0
VERTEX
8
GEOMETRY
10
30.214425
20
90.350877
30
0.0
0
VERTEX
8
GEOMETRY
10
30.116959
20
90.253411
30
0.0
0
VERTEX
8
GEOMETRY
10
30.116959
20
87.914230
30
0.0
0
VERTEX
8
GEOMETRY
10
30.214425
20
87.816764
30
0.0
0
VERTEX
8
GEOMETRY
10
30.214425
20
87.524366
30
0.0
0
VERTEX
8
GEOMETRY
10
30.116959
20
87.426901
30
0.0
0
VERTEX
8
GEOMETRY
10
30.116959
20
87.231969
30
0.0
0
VERTEX
8
GEOMETRY
10
30.214425
20
87.134503
30
0.0
0
VERTEX
8
GEOMETRY
10
30.116959
20
87.037037
30
0.0
0
VERTEX
8
GEOMETRY
10
30.116959
20
86.939571
30
0.0
0
VERTEX
8
GEOMETRY
10
29.824561
20
86.647173
30
0.0
0
VERTEX
8
GEOMETRY
10
29.824561
20
86.549708
30
0.0
0
VERTEX
8
GEOMETRY
10
29.922027
20
86.452242
30
0.0
0
VERTEX
8
GEOMETRY
10
29.727096
20
86.257310
30
0.0
0
VERTEX
8
GEOMETRY
10
29.629630
20
86.354776
30
0.0
0
VERTEX
8
GEOMETRY
10
29.239766
20
86.062378
30
0.0
0
VERTEX
8
GEOMETRY
10
27.485380
20
86.062378
30
0.0
0
VERTEX
8
GEOMETRY
10
27.290448
20
85.867446
30
0.0
0
VERTEX
8
GEOMETRY
10
27.192982
20
85.867446
30
0.0
0
VERTEX
8
GEOMETRY
10
26.900585
20
86.159844
30
0.0
0
VERTEX
8
GEOMETRY
10
26.998051
20
86.257310
30
0.0
0
VERTEX
8
GEOMETRY
10
26.998051
20
90.935673
30
0.0
0
VERTEX
8
GEOMETRY
10
26.900585
20
91.033138
30
0.0
0
VERTEX
8
GEOMETRY
10
26.900585
20
91.325536
30
0.0
0
SEQEND
8
GEOMETRY
0
POLYLINE
8
GEOMETRY
66
1
70
1
0
VERTEX
8
GEOMETRY
10
18.518519
20
93.957115
30
0.0
0
VERTEX
8
GEOMETRY
10
16.569201
20
93.372320
30
0.0
0
VERTEX
8
GEOMETRY
10
16.374269
20
92.884990
30
0.0
0
VERTEX
8
GEOMETRY
10
15.692008
20
92.495127
30
0.0
0
VERTEX
8
GEOMETRY
10
15.204678
20
91.520468
30
0.0
0
VERTEX
8
GEOMETRY
10
15.497076
20
91.033138
30
0.0
0
VERTEX
8
GEOMETRY
10
15.009747
20
90.643275
30
0.0
0
VERTEX
8
GEOMETRY
10
15.204678
20
90.058480
30
0.0
0
VERTEX
8
GEOMETRY
10
15.204678
20
80.896686
30
0.0
0
VERTEX
8
GEOMETRY
10
15.009747
20
80.701754
30
0.0
0
VERTEX
8
GEOMETRY
10
15.399610
20
79.434698
30
0.0
0
VERTEX
8
GEOMETRY
10
15.984405
20
78.654971
30
0.0
0
VERTEX
8
GEOMETRY
10
17.446394
20
77.680312
30
0.0
0
VERTEX
8
GEOMETRY
10
18.908382
20
77.485380
30
0.0
0
VERTEX
8
GEOMETRY
10
20.467836
20
77.875244
30
0.0
0
VERTEX
8
GEOMETRY
10
21.929825
20
79.239766
30
0.0
0
VERTEX
8
GEOMETRY
10
22.319688
20
80.311891
30
0.0
0
VERTEX
8
GEOMETRY
10
22.222222
20
80.799220
30
0.0
0
VERTEX
8
GEOMETRY
10
22.514620
20
80.994152
30
0.0
0
VERTEX
8
GEOMETRY
10
22.417154
20
83.430799
30
0.0
0
VERTEX
8
GEOMETRY
10
20.272904
20
83.333333
30
0.0
0
VERTEX
8
GEOMETRY
10
20.272904
20
80.701754
30
0.0
0
VERTEX
8
GEOMETRY
10
19.298246
20
79.727096
30
0.0
0
VERTEX
8
GEOMETRY
10
18.226121
20
79.532164
30
0.0
0
VERTEX
8
GEOMETRY
10
17.446394
20
80.214425
30
0.0
0
VERTEX
8
GEOMETRY
10
16.861598
20
81.481481
30
0.0
0
VERTEX
8
GEOMETRY
10
16.861598
20
90.740741
30
0.0
0
VERTEX
8
GEOMETRY
10
17.738791
20
91.617934
30
0.0
0
VERTEX
8
GEOMETRY
10
18.421053
20
91.812865
30
0.0
0
VERTEX
8
GEOMETRY
10
19.395712
20
91.715400
30
0.0
0
VERTEX
8
GEOMETRY
10
20.272904
20
91.130604
30
0.0
0
VERTEX
8
GEOMETRY
10
20.272904
20
88.499025
30
0.0
0
VERTEX
8
GEOMETRY
10
22.514620
20
88.596491
30
0.0
0
VERTEX
8
GEOMETRY
10
22.514620
20
90.058480
30
0.0
0
VERTEX
8
GEOMETRY
10
22.124756
20
91.910331
30
0.0
0
VERTEX
8
GEOMETRY
10
20.565302
20
93.567251
30
0.0
0
SEQEND
8
GEOMETRY
0
POLYLINE
8
GEOMETRY
66
1
70
1
0
VERTEX
8
GEOMETRY
10
19.005848
20
93.469786
30
0.0
0
VERTEX
8
GEOMETRY
10
19.200780
20
93.664717
30
0.0
0
VERTEX
8
GEOMETRY
10
19.298246
20
93.664717
30
0.0
0
VERTEX
8
GEOMETRY
10
19.493177
20
93.469786
30
0.0
0
VERTEX
8
GEOMETRY
10
19.298246
20
93.274854
30
0.0
0
VERTEX
8
GEOMETRY
10
19.200780
20
93.274854
30
0.0
0
SEQEND
8
GEOMETRY
0
POLYLINE
8
GEOMETRY
66
1
70
1
0
VERTEX
8
GEOMETRY
10
50.194932
20
139.376218
30
0.0
0
VERTEX
8
GEOMETRY
10
50.000000
20
105.068226
30
0.0
0
VERTEX
8
GEOMETRY
10
50.194932
20
105.068226
30
0.0
0
SEQEND
8
GEOMETRY
0
POLYLINE
8
GEOMETRY
66
1
70
1
0
VERTEX
8
GEOMETRY
10
49.902534
20
142.202729
30
0.0
0
VERTEX
8
GEOMETRY
10
8.382066
20
118.226121
30
0.0
0
VERTEX
8
GEOMETRY
10
8.382066
20
32.358674
30
0.0
0
VERTEX
8
GEOMETRY
10
49.512671
20
8.771930
30
0.0
0
VERTEX
8
GEOMETRY
10
9.454191
20
33.918129
30
0.0
0
VERTEX
8
GEOMETRY
10
9.454191
20
117.056530
30
0.0
0
VERTEX
8
GEOMETRY
10
50.682261
20
140.545809
30
0.0
0
VERTEX
8
GEOMETRY
10
90.350877
20
117.153996
30
0.0
0
VERTEX
8
GEOMETRY
10
90.350877
20
34.015595
30
0.0
0
VERTEX
8
GEOMETRY
10
50.194932
20
8.674464
30
0.0
0
VERTEX
8
GEOMETRY
10
91.423002
20
32.553606
30
0.0
0
VERTEX
8
GEOMETRY
10
91.423002
20
118.421053
30
0.0
0
SEQEND
8
GEOMETRY
0
POLYLINE
8
GEOMETRY
66
1
70
0
0
VERTEX
8
GEOMETRY
10
9.844056
20
117.056530
30
0.0
0
VERTEX
8
GEOMETRY
10
9.844053
20
33.918129
30
0.0
0
SEQEND
8
GEOMETRY
0
POLYLINE
8
GEOMETRY
66
1
70
0
0
VERTEX
8
GEOMETRY
10
89.961015
20
117.153996
30
0.0
0
VERTEX
8
GEOMETRY
10
89.961012
20
34.015595
30
0.0
0
SEQEND
8
GEOMETRY
0
POLYLINE
8
GEOMETRY
66
1
70
0
0
VERTEX
8
GEOMETRY
10
91.812867
20
118.323587
30
0.0
0
VERTEX
8
GEOMETRY
10
91.812864
20
32.261209
30
0.0
0
SEQEND
8
GEOMETRY
0
POLYLINE
8
GEOMETRY
66
1
70
0
0
VERTEX
8
GEOMETRY
10
7.992205
20
118.323587
30
0.0
0
VERTEX
8
GEOMETRY
10
7.992201
20
32.358674
30
0.0
0
SEQEND
8
GEOMETRY
0
POLYLINE
8
GEOMETRY
66
1
70
0
0
VERTEX
8
GEOMETRY
10
49.736040
20
105.165638
30
0.0
0
VERTEX
8
GEOMETRY
10
49.744383
20
140.253357
30
0.0
0
SEQEND
8
GEOMETRY
0
POLYLINE
8
GEOMETRY
66
1
70
0
0
VERTEX
8
GEOMETRY
10
49.843909
20
44.931578
30
0.0
0
VERTEX
8
GEOMETRY
10
49.864261
20
8.284418
30
0.0
0
SEQEND
8
GEOMETRY
0
POLYLINE
8
GEOMETRY
66
1
70
0
0
VERTEX
8
GEOMETRY
10
50.076341
20
8.223685
30
0.0
0
VERTEX
8
GEOMETRY
10
91.629582
20
32.241053
30
0.0
0
SEQEND
8
GEOMETRY
0
POLYLINE
8
GEOMETRY
66
1
70
0
0
VERTEX
8
GEOMETRY
10
10.398148
20
33.085386
30
0.0
0
VERTEX
8
GEOMETRY
10
49.399573
20
10.499322
30
0.0
0
SEQEND
8
GEOMETRY
0
POLYLINE
8
GEOMETRY
66
1
70
0
0
VERTEX
8
GEOMETRY
10
50.362593
20
140.277790
30
0.0
0
VERTEX
8
GEOMETRY
10
89.330435
20
117.828504
30
0.0
0
SEQEND
8
GEOMETRY
0
POLYLINE
8
GEOMETRY
66
1
70
0
0
VERTEX
8
GEOMETRY
10
8.547968
20
32.016000
30
0.0
0
VERTEX
8
GEOMETRY
10
49.954764
20
8.108784
30
0.0
0
SEQEND
8
GEOMETRY
0
POLYLINE
8
GEOMETRY
66
1
70
0
0
VERTEX
8
GEOMETRY
10
35.380117
20
93.957115
30
0.0
0
VERTEX
8
GEOMETRY
10
41.325536
20
93.957115
30
0.0
0
SEQEND
8
GEOMETRY
0
POLYLINE
8
GEOMETRY
66
1
70
0
0
VERTEX
8
GEOMETRY
10
49.838082
20
142.649836
30
0.0
0
VERTEX
8
GEOMETRY
10
91.329546
20
118.720403
30
0.0
0
SEQEND
8
GEOMETRY
0
POLYLINE
8
GEOMETRY
66
1
70
0
0
VERTEX
8
GEOMETRY
10
8.170971
20
118.546532
30
0.0
0
VERTEX
8
GEOMETRY
10
49.931262
20
142.640267
30
0.0
0
SEQEND
8
GEOMETRY
0
POLYLINE
8
GEOMETRY
66
1
70
0
0
VERTEX
8
GEOMETRY
10
10.407755
20
117.775354
30
0.0
0
VERTEX
8
GEOMETRY
10
49.403034
20
140.274506
30
0.0
0
SEQEND
8
GEOMETRY
0
POLYLINE
8
GEOMETRY
66
1
70
0
0
VERTEX
8
GEOMETRY
10
35.185185
20
77.680312
30
0.0
0
VERTEX
8
GEOMETRY
10
41.910331
20
77.680312
30
0.0
0
SEQEND
8
GEOMETRY
0
POLYLINE
8
GEOMETRY
66
1
70
0
0
VERTEX
8
GEOMETRY
10
50.316774
20
10.484106
30
0.0
0
VERTEX
8
GEOMETRY
10
89.418428
20
33.065312
30
0.0
0
SEQEND
8
GEOMETRY
0
POLYLINE
8
GEOMETRY
66
1
70
0
0
VERTEX
8
GEOMETRY
10
10.257671
20
33.406155
30
0.0
0
VERTEX
8
GEOMETRY
10
39.302672
20
45.978872
30
0.0
0
SEQEND
8
GEOMETRY
0
POLYLINE
8
GEOMETRY
66
1
70
0
0
VERTEX
8
GEOMETRY
10
10.135535
20
117.379718
30
0.0
0
VERTEX
8
GEOMETRY
10
39.305442
20
104.902756
30
0.0
0
SEQEND
8
GEOMETRY
0
POLYLINE
8
GEOMETRY
66
1
70
0
0
VERTEX
8
GEOMETRY
10
60.502083
20
104.898074
30
0.0
0
VERTEX
8
GEOMETRY
10
89.760474
20
117.490947
30
0.0
0
SEQEND
8
GEOMETRY
0
POLYLINE
8
GEOMETRY
66
1
70
0
0
VERTEX
8
GEOMETRY
10
60.563785
20
45.962128
30
0.0
0
VERTEX
8
GEOMETRY
10
89.558805
20
33.468352
30
0.0
0
SEQEND
8
GEOMETRY
0
POLYLINE
8
GEOMETRY
66
1
70
0
0
VERTEX
8
GEOMETRY
10
35.087720
20
93.274854
30
0.0
0
VERTEX
8
GEOMETRY
10
35.087719
20
77.875244
30
0.0
0
SEQEND
8
GEOMETRY
0
POLYLINE
8
GEOMETRY
66
1
70
0
0
VERTEX
8
GEOMETRY
10
56.920078
20
55.653021
30
0.0
0
VERTEX
8
GEOMETRY
10
63.255361
20
55.653021
30
0.0
0
SEQEND
8
GEOMETRY
0
POLYLINE
8
GEOMETRY
66
1
70
0
0
VERTEX
8
GEOMETRY
10
26.510722
20
70.857700
30
0.0
0
VERTEX
8
GEOMETRY
10
26.510721
20
55.847953
30
0.0
0
SEQEND
8
GEOMETRY
0
POLYLINE
8
GEOMETRY
66
1
70
0
0
VERTEX
8
GEOMETRY
10
77.972710
20
93.274854
30
0.0
0
VERTEX
8
GEOMETRY
10
77.972709
20
77.875244
30
0.0
0
SEQEND
8
GEOMETRY
0
POLYLINE
8
GEOMETRY
66
1
70
0
0
VERTEX
8
GEOMETRY
10
26.998051
20
83.723197
30
0.0
0
VERTEX
8
GEOMETRY
10
26.998051
20
77.680312
30
0.0
0
SEQEND
8
GEOMETRY
0
POLYLINE
8
GEOMETRY
66
1
70
0
0
VERTEX
8
GEOMETRY
10
48.635478
20
58.771930
30
0.0
0
VERTEX
8
GEOMETRY
10
48.732943
20
65.594542
30
0.0
0
SEQEND
8
GEOMETRY
0
POLYLINE
8
GEOMETRY
66
1
70
0
0
VERTEX
8
GEOMETRY
10
66.794049
20
93.670090
30
0.0
0
VERTEX
8
GEOMETRY
10
69.649713
20
77.770882
30
0.0
0
SEQEND
8
GEOMETRY
0
POLYLINE
8
GEOMETRY
66
1
70
0
0
VERTEX
8
GEOMETRY
10
57.407408
20
91.423002
30
0.0
0
VERTEX
8
GEOMETRY
10
57.407407
20
77.777778
30
0.0
0
SEQEND
8
GEOMETRY
0
POLYLINE
8
GEOMETRY
66
1
70
0
0
VERTEX
8
GEOMETRY
10
64.424952
20
93.859649
30
0.0
0
VERTEX
8
GEOMETRY
10
64.424951
20
77.777778
30
0.0
0
SEQEND
8
GEOMETRY
0
POLYLINE
8
GEOMETRY
66
1
70
0
0
VERTEX
8
GEOMETRY
10
62.085770
20
93.177388
30
0.0
0
VERTEX
8
GEOMETRY
10
62.085770
20
83.040936
30
0.0
0
SEQEND
8
GEOMETRY
0
POLYLINE
8
GEOMETRY
66
1
70
0
0
VERTEX
8
GEOMETRY
10
56.335283
20
71.345029
30
0.0
0
VERTEX
8
GEOMETRY
10
56.335282
20
56.042885
30
0.0
0
SEQEND
8
GEOMETRY
0
POLYLINE
8
GEOMETRY
66
1
70
0
0
VERTEX
8
GEOMETRY
10
78.265107
20
93.957115
30
0.0
0
VERTEX
8
GEOMETRY
10
84.210526
20
93.957115
30
0.0
0
SEQEND
8
GEOMETRY
0
POLYLINE
8
GEOMETRY
66
1
70
0
0
VERTEX
8
GEOMETRY
10
55.068226
20
91.520468
30
0.0
0
VERTEX
8
GEOMETRY
10
55.068226
20
77.875244
30
0.0
0
SEQEND
8
GEOMETRY
0
POLYLINE
8
GEOMETRY
66
1
70
0
0
VERTEX
8
GEOMETRY
10
24.658870
20
93.469786
30
0.0
0
VERTEX
8
GEOMETRY
10
24.658869
20
78.654971
30
0.0
0
SEQEND
8
GEOMETRY
0
POLYLINE
8
GEOMETRY
66
1
70
0
0
VERTEX
8
GEOMETRY
10
28.849903
20
61.598441
30
0.0
0
VERTEX
8
GEOMETRY
10
28.849902
20
55.653021
30
0.0
0
SEQEND
8
GEOMETRY
0
POLYLINE
8
GEOMETRY
66
1
70
0
0
VERTEX
8
GEOMETRY
10
17.153996
20
81.578947
30
0.0
0
VERTEX
8
GEOMETRY
10
17.251462
20
90.838207
30
0.0
0
SEQEND
8
GEOMETRY
0
POLYLINE
8
GEOMETRY
66
1
70
0
0
VERTEX
8
GEOMETRY
10
41.910332
20
71.637427
30
0.0
0
VERTEX
8
GEOMETRY
10
41.910331
20
59.259259
30
0.0
0
SEQEND
8
GEOMETRY
0
POLYLINE
8
GEOMETRY
66
1
70
0
0
VERTEX
8
GEOMETRY
10
53.216374
20
93.957115
30
0.0
0
VERTEX
8
GEOMETRY
10
59.649123
20
93.957115
30
0.0
0
SEQEND
8
GEOMETRY
0
POLYLINE
8
GEOMETRY
66
1
70
0
0
VERTEX
8
GEOMETRY
10
16.861599
20
71.345029
30
0.0
0
VERTEX
8
GEOMETRY
10
16.861598
20
56.042885
30
0.0
0
SEQEND
8
GEOMETRY
0
POLYLINE
8
GEOMETRY
66
1
70
0
0
VERTEX
8
GEOMETRY
10
56.822612
20
71.832359
30
0.0
0
VERTEX
8
GEOMETRY
10
63.060429
20
71.832359
30
0.0
0
SEQEND
8
GEOMETRY
0
POLYLINE
8
GEOMETRY
66
1
70
0
0
VERTEX
8
GEOMETRY
10
52.826511
20
91.520468
30
0.0
0
VERTEX
8
GEOMETRY
10
59.844055
20
91.520468
30
0.0
0
SEQEND
8
GEOMETRY
0
POLYLINE
8
GEOMETRY
66
1
70
0
0
VERTEX
8
GEOMETRY
10
14.814815
20
90.058480
30
0.0
0
VERTEX
8
GEOMETRY
10
14.814815
20
80.896686
30
0.0
0
SEQEND
8
GEOMETRY
0
POLYLINE
8
GEOMETRY
66
1
70
0
0
VERTEX
8
GEOMETRY
10
43.957115
20
69.493177
30
0.0
0
VERTEX
8
GEOMETRY
10
43.957115
20
57.797271
30
0.0
0
SEQEND
8
GEOMETRY
0
POLYLINE
8
GEOMETRY
66
1
70
0
0
VERTEX
8
GEOMETRY
10
69.103314
20
93.762183
30
0.0
0
VERTEX
8
GEOMETRY
10
71.150098
20
81.189084
30
0.0
0
SEQEND
8
GEOMETRY
0
POLYLINE
8
GEOMETRY
66
1
70
0
0
VERTEX
8
GEOMETRY
10
46.491228
20
68.226121
30
0.0
0
VERTEX
8
GEOMETRY
10
46.491228
20
58.674464
30
0.0
0
SEQEND
8
GEOMETRY
0
POLYLINE
8
GEOMETRY
66
1
70
0
0
VERTEX
8
GEOMETRY
10
78.070175
20
77.680312
30
0.0
0
VERTEX
8
GEOMETRY
10
84.892788
20
77.680312
30
0.0
0
SEQEND
8
GEOMETRY
0
POLYLINE
8
GEOMETRY
66
1
70
0
0
VERTEX
8
GEOMETRY
10
49.762394
20
93.771547
30
0.0
0
VERTEX
8
GEOMETRY
10
52.477756
20
77.882269
30
0.0
0
SEQEND
8
GEOMETRY
0
POLYLINE
8
GEOMETRY
66
1
70
0
0
VERTEX
8
GEOMETRY
10
72.857705
20
77.768889
30
0.0
0
VERTEX
8
GEOMETRY
10
75.678277
20
93.851801
30
0.0
0
SEQEND
8
GEOMETRY
0
POLYLINE
8
GEOMETRY
66
1
70
0
0
VERTEX
8
GEOMETRY
10
71.442495
20
81.286549
30
0.0
0
VERTEX
8
GEOMETRY
10
73.391813
20
93.567252
30
0.0
0
SEQEND
8
GEOMETRY
0
POLYLINE
8
GEOMETRY
66
1
70
0
0
VERTEX
8
GEOMETRY
10
36.549708
20
68.908382
30
0.0
0
VERTEX
8
GEOMETRY
10
36.549707
20
58.771930
30
0.0
0
SEQEND
8
GEOMETRY
0
POLYLINE
8
GEOMETRY
66
1
70
0
0
VERTEX
8
GEOMETRY
10
38.596491
20
67.446394
30
0.0
0
VERTEX
8
GEOMETRY
10
38.596491
20
60.038986
30
0.0
0
SEQEND
8
GEOMETRY
0
POLYLINE
8
GEOMETRY
66
1
70
0
0
VERTEX
8
GEOMETRY
10
28.849902
20
83.820663
30
0.0
0
VERTEX
8
GEOMETRY
10
30.311891
20
77.777778
30
0.0
0
SEQEND
8
GEOMETRY
0
POLYLINE
8
GEOMETRY
66
1
70
0
0
VERTEX
8
GEOMETRY
10
43.872464
20
77.873033
30
0.0
0
VERTEX
8
GEOMETRY
10
46.632208
20
93.868957
30
0.0
0
SEQEND
8
GEOMETRY
0
POLYLINE
8
GEOMETRY
66
1
70
0
0
VERTEX
8
GEOMETRY
10
47.152242
20
83.726423
30
0.0
0
VERTEX
8
GEOMETRY
10
48.100061
20
89.968316
30
0.0
0
SEQEND
8
GEOMETRY
0
ENDSEC
0
EOF