0
SECTION
2
HEADER
9
$ACADVER
1
AC1009
9
$INSUNITS
70
4
0
ENDSEC
0
SECTION
2
TABLES
0
TABLE
2
LAYER
70
1
0
LAYER
2
FILL
70
0
62
7
6
CONTINUOUS
0
ENDTAB
0
ENDSEC
0
SECTION
2
ENTITIES
0
POLYLINE
8
FILL
66
1
70
1
0
VERTEX
8
FILL
10
49.743590
20
147.897436
30
0.0
0
VERTEX
8
FILL
10
5.743590
20
122.358974
30
0.0
0
VERTEX
8
FILL
10
5.743590
20
31.794872
30
0.0
0
VERTEX
8
FILL
10
50.153846
20
6.256410
30
0.0
0
VERTEX
8
FILL
10
94.153846
20
31.692308
30
0.0
0
VERTEX
8
FILL
10
94.153846
20
122.461538
30
0.0
0
SEQEND
8
FILL
0
POLYLINE
8
FILL
66
1
70
1
0
VERTEX
8
FILL
10
47.794872
20
8.512821
30
0.0
0
VERTEX
8
FILL
10
48.000000
20
8.717949
30
0.0
0
VERTEX
8
FILL
10
48.102564
20
8.615385
30
0.0
0
VERTEX
8
FILL
10
48.205128
20
8.615385
30
0.0
0
VERTEX
8
FILL
10
48.307692
20
8.512821
30
0.0
0
VERTEX
8
FILL
10
48.512821
20
8.512821
30
0.0
0
VERTEX
8
FILL
10
48.615385
20
8.410256
30
0.0
0
VERTEX
8
FILL
10
49.743590
20
8.410256
30
0.0
0
VERTEX
8
FILL
10
49.846154
20
8.512821
30
0.0
0
VERTEX
8
FILL
10
50.051282
20
8.512821
30
0.0
0
VERTEX
8
FILL
10
50.153846
20
8.410256
30
0.0
0
VERTEX
8
FILL
10
51.282051
20
8.410256
30
0.0
0
VERTEX
8
FILL
10
51.384615
20
8.512821
30
0.0
0
VERTEX
8
FILL
10
51.589744
20
8.512821
30
0.0
0
VERTEX
8
FILL
10
51.692308
20
8.615385
30
0.0
0
VERTEX
8
FILL
10
51.794872
20
8.615385
30
0.0
0
VERTEX
8
FILL
10
51.897436
20
8.717949
30
0.0
0
VERTEX
8
FILL
10
52.102564
20
8.512821
30
0.0
0
VERTEX
8
FILL
10
51.897436
20
8.307692
30
0.0
0
VERTEX
8
FILL
10
51.794872
20
8.307692
30
0.0
0
VERTEX
8
FILL
10
51.692308
20
8.205128
30
0.0
0
VERTEX
8
FILL
10
51.589744
20
8.205128
30
0.0
0
VERTEX
8
FILL
10
51.384615
20
8.000000
30
0.0
0
VERTEX
8
FILL
10
51.282051
20
8.000000
30
0.0
0
VERTEX
8
FILL
10
51.076923
20
7.794872
30
0.0
0
VERTEX
8
FILL
10
50.974359
20
7.794872
30
0.0
0
VERTEX
8
FILL
10
50.769231
20
7.589744
30
0.0
0
VERTEX
8
FILL
10
50.666667
20
7.589744
30
0.0
0
VERTEX
8
FILL
10
50.564103
20
7.487179
30
0.0
0
VERTEX
8
FILL
10
50.461538
20
7.487179
30
0.0
0
VERTEX
8
FILL
10
50.358974
20
7.384615
30
0.0
0
VERTEX
8
FILL
10
50.153846
20
7.384615
30
0.0
0
VERTEX
8
FILL
10
50.051282
20
7.282051
30
0.0
0
VERTEX
8
FILL
10
49.846154
20
7.282051
30
0.0
0
VERTEX
8
FILL
10
49.743590
20
7.384615
30
0.0
0
VERTEX
8
FILL
10
49.538462
20
7.384615
30
0.0
0
VERTEX
8
FILL
10
49.435897
20
7.487179
30
0.0
0
VERTEX
8
FILL
10
49.333333
20
7.487179
30
0.0
0
VERTEX
8
FILL
10
49.128205
20
7.692308
30
0.0
0
VERTEX
8
FILL
10
49.025641
20
7.692308
30
0.0
0
VERTEX
8
FILL
10
48.923077
20
7.794872
30
0.0
0
VERTEX
8
FILL
10
48.820513
20
7.794872
30
0.0
0
VERTEX
8
FILL
10
48.615385
20
8.000000
30
0.0
0
VERTEX
8
FILL
10
48.512821
20
8.000000
30
0.0
0
VERTEX
8
FILL
10
48.307692
20
8.205128
30
0.0
0
VERTEX
8
FILL
10
48.205128
20
8.205128
30
0.0
0
VERTEX
8
FILL
10
48.102564
20
8.307692
30
0.0
0
VERTEX
8
FILL
10
48.000000
20
8.307692
30
0.0
0
SEQEND
8
FILL
0
POLYLINE
8
FILL
66
1
70
1
0
VERTEX
8
FILL
10
47.282051
20
8.820513
30
0.0
0
VERTEX
8
FILL
10
47.487179
20
9.025641
30
0.0
0
VERTEX
8
FILL
10
47.589744
20
8.923077
30
0.0
0
VERTEX
8
FILL
10
47.692308
20
8.923077
30
0.0
0
VERTEX
8
FILL
10
47.897436
20
8.717949
30
0.0
0
VERTEX
8
FILL
10
47.692308
20
8.512821
30
0.0
0
VERTEX
8
FILL
10
47.589744
20
8.615385
30
0.0
0
VERTEX
8
FILL
10
47.487179
20
8.615385
30
0.0
0
SEQEND
8
FILL
0
POLYLINE
8
FILL
66
1
70
1
0
VERTEX
8
FILL
10
46.051282
20
9.538462
30
0.0
0
VERTEX
8
FILL
10
46.256410
20
9.743590
30
0.0
0
VERTEX
8
FILL
10
46.358974
20
9.641026
30
0.0
0
VERTEX
8
FILL
10
46.461538
20
9.641026
30
0.0
0
VERTEX
8
FILL
10
46.666667
20
9.435897
30
0.0
0
VERTEX
8
FILL
10
46.461538
20
9.230769
30
0.0
0
VERTEX
8
FILL
10
46.358974
20
9.333333
30
0.0
0
VERTEX
8
FILL
10
46.256410
20
9.333333
30
0.0
0
SEQEND
8
FILL
0
POLYLINE
8
FILL
66
1
70
1
0
VERTEX
8
FILL
10
54.769231
20
10.051282
30
0.0
0
VERTEX
8
FILL
10
54.564103
20
9.846154
30
0.0
0
VERTEX
8
FILL
10
54.461538
20
9.846154
30
0.0
0
VERTEX
8
FILL
10
54.358974
20
9.743590
30
0.0
0
VERTEX
8
FILL
10
54.256410
20
9.743590
30
0.0
0
VERTEX
8
FILL
10
54.051282
20
9.538462
30
0.0
0
VERTEX
8
FILL
10
53.948718
20
9.538462
30
0.0
0
VERTEX
8
FILL
10
53.846154
20
9.435897
30
0.0
0
VERTEX
8
FILL
10
53.743590
20
9.435897
30
0.0
0
VERTEX
8
FILL
10
53.641026
20
9.333333
30
0.0
0
VERTEX
8
FILL
10
53.538462
20
9.333333
30
0.0
0
VERTEX
8
FILL
10
53.333333
20
9.128205
30
0.0
0
VERTEX
8
FILL
10
53.230769
20
9.128205
30
0.0
0
VERTEX
8
FILL
10
53.128205
20
9.025641
30
0.0
0
VERTEX
8
FILL
10
53.025641
20
9.025641
30
0.0
0
VERTEX
8
FILL
10
52.923077
20
8.923077
30
0.0
0
VERTEX
8
FILL
10
52.820513
20
8.923077
30
0.0
0
VERTEX
8
FILL
10
52.615385
20
8.717949
30
0.0
0
VERTEX
8
FILL
10
52.512821
20
8.717949
30
0.0
0
VERTEX
8
FILL
10
52.410256
20
8.615385
30
0.0
0
VERTEX
8
FILL
10
52.307692
20
8.615385
30
0.0
0
VERTEX
8
FILL
10
52.205128
20
8.512821
30
0.0
0
VERTEX
8
FILL
10
52.000000
20
8.717949
30
0.0
0
VERTEX
8
FILL
10
52.205128
20
8.923077
30
0.0
0
VERTEX
8
FILL
10
52.307692
20
8.923077
30
0.0
0
VERTEX
8
FILL
10
52.410256
20
9.025641
30
0.0
0
VERTEX
8
FILL
10
52.512821
20
9.025641
30
0.0
0
VERTEX
8
FILL
10
52.717949
20
9.230769
30
0.0
0
VERTEX
8
FILL
10
52.820513
20
9.230769
30
0.0
0
VERTEX
8
FILL
10
52.923077
20
9.333333
30
0.0
0
VERTEX
8
FILL
10
53.025641
20
9.333333
30
0.0
0
VERTEX
8
FILL
10
53.128205
20
9.435897
30
0.0
0
VERTEX
8
FILL
10
53.230769
20
9.435897
30
0.0
0
VERTEX
8
FILL
10
53.435897
20
9.641026
30
0.0
0
VERTEX
8
FILL
10
53.538462
20
9.641026
30
0.0
0
VERTEX
8
FILL
10
53.641026
20
9.743590
30
0.0
0
VERTEX
8
FILL
10
53.743590
20
9.743590
30
0.0
0
VERTEX
8
FILL
10
53.948718
20
9.948718
30
0.0
0
VERTEX
8
FILL
10
54.051282
20
9.948718
30
0.0
0
VERTEX
8
FILL
10
54.153846
20
10.051282
30
0.0
0
VERTEX
8
FILL
10
54.256410
20
10.051282
30
0.0
0
VERTEX
8
FILL
10
54.358974
20
10.153846
30
0.0
0
VERTEX
8
FILL
10
54.461538
20
10.153846
30
0.0
0
VERTEX
8
FILL
10
54.564103
20
10.256410
30
0.0
0
SEQEND
8
FILL
0
POLYLINE
8
FILL
66
1
70
1
0
VERTEX
8
FILL
10
55.076923
20
10.564103
30
0.0
0
VERTEX
8
FILL
10
55.282051
20
10.358974
30
0.0
0
VERTEX
8
FILL
10
55.076923
20
10.153846
30
0.0
0
VERTEX
8
FILL
10
54.974359
20
10.153846
30
0.0
0
VERTEX
8
FILL
10
54.871795
20
10.051282
30
0.0
0
VERTEX
8
FILL
10
54.666667
20
10.256410
30
0.0
0
VERTEX
8
FILL
10
54.871795
20
10.461538
30
0.0
0
VERTEX
8
FILL
10
54.974359
20
10.461538
30
0.0
0
SEQEND
8
FILL
0
POLYLINE
8
FILL
66
1
70
1
0
VERTEX
8
FILL
10
55.794872
20
10.974359
30
0.0
0
VERTEX
8
FILL
10
56.000000
20
10.769231
30
0.0
0
VERTEX
8
FILL
10
55.794872
20
10.564103
30
0.0
0
VERTEX
8
FILL
10
55.692308
20
10.564103
30
0.0
0
VERTEX
8
FILL
10
55.589744
20
10.461538
30
0.0
0
VERTEX
8
FILL
10
55.384615
20
10.666667
30
0.0
0
VERTEX
8
FILL
10
55.589744
20
10.871795
30
0.0
0
VERTEX
8
FILL
10
55.692308
20
10.871795
30
0.0
0
SEQEND
8
FILL
0
POLYLINE
8
FILL
66
1
70
1
0
VERTEX
8
FILL
10
56.512821
20
11.384615
30
0.0
0
VERTEX
8
FILL
10
56.717949
20
11.179487
30
0.0
0
VERTEX
8
FILL
10
56.512821
20
10.974359
30
0.0
0
VERTEX
8
FILL
10
56.410256
20
10.974359
30
0.0
0
VERTEX
8
FILL
10
56.307692
20
10.871795
30
0.0
0
VERTEX
8
FILL
10
56.102564
20
11.076923
30
0.0
0
VERTEX
8
FILL
10
56.307692
20
11.282051
30
0.0
0
VERTEX
8
FILL
10
56.410256
20
11.282051
30
0.0
0
SEQEND
8
FILL
0
POLYLINE
8
FILL
66
1
70
1
0
VERTEX
8
FILL
10
43.179487
20
11.179487
30
0.0
0
VERTEX
8
FILL
10
43.384615
20
11.384615
30
0.0
0
VERTEX
8
FILL
10
43.487179
20
11.282051
30
0.0
0
VERTEX
8
FILL
10
43.589744
20
11.282051
30
0.0
0
VERTEX
8
FILL
10
43.692308
20
11.179487
30
0.0
0
VERTEX
8
FILL
10
43.794872
20
11.179487
30
0.0
0
VERTEX
8
FILL
10
43.897436
20
11.076923
30
0.0
0
VERTEX
8
FILL
10
44.000000
20
11.076923
30
0.0
0
VERTEX
8
FILL
10
44.205128
20
10.871795
30
0.0
0
VERTEX
8
FILL
10
44.307692
20
10.871795
30
0.0
0
VERTEX
8
FILL
10
44.410256
20
10.769231
30
0.0
0
VERTEX
8
FILL
10
44.512821
20
10.769231
30
0.0
0
VERTEX
8
FILL
10
44.615385
20
10.666667
30
0.0
0
VERTEX
8
FILL
10
44.717949
20
10.666667
30
0.0
0
VERTEX
8
FILL
10
44.923077
20
10.461538
30
0.0
0
VERTEX
8
FILL
10
45.025641
20
10.461538
30
0.0
0
VERTEX
8
FILL
10
45.128205
20
10.358974
30
0.0
0
VERTEX
8
FILL
10
45.230769
20
10.358974
30
0.0
0
VERTEX
8
FILL
10
45.435897
20
10.153846
30
0.0
0
VERTEX
8
FILL
10
45.538462
20
10.153846
30
0.0
0
VERTEX
8
FILL
10
45.641026
20
10.051282
30
0.0
0
VERTEX
8
FILL
10
45.743590
20
10.051282
30
0.0
0
VERTEX
8
FILL
10
45.948718
20
9.846154
30
0.0
0
VERTEX
8
FILL
10
45.743590
20
9.641026
30
0.0
0
VERTEX
8
FILL
10
45.641026
20
9.743590
30
0.0
0
VERTEX
8
FILL
10
45.538462
20
9.743590
30
0.0
0
VERTEX
8
FILL
10
45.435897
20
9.846154
30
0.0
0
VERTEX
8
FILL
10
45.333333
20
9.846154
30
0.0
0
VERTEX
8
FILL
10
45.128205
20
10.051282
30
0.0
0
VERTEX
8
FILL
10
45.025641
20
10.051282
30
0.0
0
VERTEX
8
FILL
10
44.923077
20
10.153846
30
0.0
0
VERTEX
8
FILL
10
44.820513
20
10.153846
30
0.0
0
VERTEX
8
FILL
10
44.717949
20
10.256410
30
0.0
0
VERTEX
8
FILL
10
44.615385
20
10.256410
30
0.0
0
VERTEX
8
FILL
10
44.410256
20
10.461538
30
0.0
0
VERTEX
8
FILL
10
44.307692
20
10.461538
30
0.0
0
VERTEX
8
FILL
10
44.205128
20
10.564103
30
0.0
0
VERTEX
8
FILL
10
44.102564
20
10.564103
30
0.0
0
VERTEX
8
FILL
10
44.000000
20
10.666667
30
0.0
0
VERTEX
8
FILL
10
43.897436
20
10.666667
30
0.0
0
VERTEX
8
FILL
10
43.692308
20
10.871795
30
0.0
0
VERTEX
8
FILL
10
43.589744
20
10.871795
30
0.0
0
VERTEX
8
FILL
10
43.487179
20
10.974359
30
0.0
0
VERTEX
8
FILL
10
43.384615
20
10.974359
30
0.0
0
SEQEND
8
FILL
0
POLYLINE
8
FILL
66
1
70
1
0
VERTEX
8
FILL
10
42.666667
20
11.487179
30
0.0
0
VERTEX
8
FILL
10
42.871795
20
11.692308
30
0.0
0
VERTEX
8
FILL
10
42.974359
20
11.589744
30
0.0
0
VERTEX
8
FILL
10
43.076923
20
11.589744
30
0.0
0
VERTEX
8
FILL
10
43.282051
20
11.384615
30
0.0
0
VERTEX
8
FILL
10
43.076923
20
11.179487
30
0.0
0
VERTEX
8
FILL
10
42.974359
20
11.282051
30
0.0
0
VERTEX
8
FILL
10
42.871795
20
11.282051
30
0.0
0
SEQEND
8
FILL
0
POLYLINE
8
FILL
66
1
70
1
0
VERTEX
8
FILL
10
57.230769
20
11.794872
30
0.0
0
VERTEX
8
FILL
10
57.435897
20
11.589744
30
0.0
0
VERTEX
8
FILL
10
57.230769
20
11.384615
30
0.0
0
VERTEX
8
FILL
10
57.128205
20
11.384615
30
0.0
0
VERTEX
8
FILL
10
57.025641
20
11.282051
30
0.0
0
VERTEX
8
FILL
10
56.923077
20
11.282051
30
0.0
0
VERTEX
8
FILL
10
56.820513
20
11.179487
30
0.0
0
VERTEX
8
FILL
10
56.615385
20
11.384615
30
0.0
0
VERTEX
8
FILL
10
56.820513
20
11.589744
30
0.0
0
VERTEX
8
FILL
10
56.923077
20
11.589744
30
0.0
0
VERTEX
8
FILL
10
57.025641
20
11.692308
30
0.0
0
VERTEX
8
FILL
10
57.128205
20
11.692308
30
0.0
0
SEQEND
8
FILL
0
POLYLINE
8
FILL
66
1
70
1
0
VERTEX
8
FILL
10
41.948718
20
11.897436
30
0.0
0
VERTEX
8
FILL
10
42.153846
20
12.102564
30
0.0
0
VERTEX
8
FILL
10
42.256410
20
12.000000
30
0.0
0
VERTEX
8
FILL
10
42.358974
20
12.000000
30
0.0
0
VERTEX
8
FILL
10
42.564103
20
11.794872
30
0.0
0
VERTEX
8
FILL
10
42.358974
20
11.589744
30
0.0
0
VERTEX
8
FILL
10
42.256410
20
11.692308
30
0.0
0
VERTEX
8
FILL
10
42.153846
20
11.692308
30
0.0
0
SEQEND
8
FILL
0
POLYLINE
8
FILL
66
1
70
1
0
VERTEX
8
FILL
10
57.948718
20
12.205128
30
0.0
0
VERTEX
8
FILL
10
58.153846
20
12.000000
30
0.0
0
VERTEX
8
FILL
10
57.948718
20
11.794872
30
0.0
0
VERTEX
8
FILL
10
57.846154
20
11.794872
30
0.0
0
VERTEX
8
FILL
10
57.743590
20
11.692308
30
0.0
0
VERTEX
8
FILL
10
57.641026
20
11.692308
30
0.0
0
VERTEX
8
FILL
10
57.538462
20
11.589744
30
0.0
0
VERTEX
8
FILL
10
57.333333
20
11.794872
30
0.0
0
VERTEX
8
FILL
10
57.538462
20
12.000000
30
0.0
0
VERTEX
8
FILL
10
57.641026
20
12.000000
30
0.0
0
VERTEX
8
FILL
10
57.743590
20
12.102564
30
0.0
0
VERTEX
8
FILL
10
57.846154
20
12.102564
30
0.0
0
SEQEND
8
FILL
0
POLYLINE
8
FILL
66
1
70
1
0
VERTEX
8
FILL
10
58.461538
20
12.512821
30
0.0
0
VERTEX
8
FILL
10
58.666667
20
12.307692
30
0.0
0
VERTEX
8
FILL
10
58.461538
20
12.102564
30
0.0
0
VERTEX
8
FILL
10
58.358974
20
12.102564
30
0.0
0
VERTEX
8
FILL
10
58.256410
20
12.000000
30
0.0
0
VERTEX
8
FILL
10
58.051282
20
12.205128
30
0.0
0
VERTEX
8
FILL
10
58.256410
20
12.410256
30
0.0
0
VERTEX
8
FILL
10
58.358974
20
12.410256
30
0.0
0
SEQEND
8
FILL
0
POLYLINE
8
FILL
66
1
70
1
0
VERTEX
8
FILL
10
41.230769
20
12.307692
30
0.0
0
VERTEX
8
FILL
10
41.435897
20
12.512821
30
0.0
0
VERTEX
8
FILL
10
41.538462
20
12.410256
30
0.0
0
VERTEX
8
FILL
10
41.641026
20
12.410256
30
0.0
0
VERTEX
8
FILL
10
41.743590
20
12.307692
30
0.0
0
VERTEX
8
FILL
10
41.846154
20
12.307692
30
0.0
0
VERTEX
8
FILL
10
42.051282
20
12.102564
30
0.0
0
VERTEX
8
FILL
10
41.846154
20
11.897436
30
0.0
0
VERTEX
8
FILL
10
41.743590
20
12.000000
30
0.0
0
VERTEX
8
FILL
10
41.641026
20
12.000000
30
0.0
0
VERTEX
8
FILL
10
41.538462
20
12.102564
30
0.0
0
VERTEX
8
FILL
10
41.435897
20
12.102564
30
0.0
0
SEQEND
8
FILL
0
POLYLINE
8
FILL
66
1
70
1
0
VERTEX
8
FILL
10
40.512821
20
12.717949
30
0.0
0
VERTEX
8
FILL
10
40.717949
20
12.923077
30
0.0
0
VERTEX
8
FILL
10
40.820513
20
12.820513
30
0.0
0
VERTEX
8
FILL
10
40.923077
20
12.820513
30
0.0
0
VERTEX
8
FILL
10
41.025641
20
12.717949
30
0.0
0
VERTEX
8
FILL
10
41.128205
20
12.717949
30
0.0
0
VERTEX
8
FILL
10
41.333333
20
12.512821
30
0.0
0
VERTEX
8
FILL
10
41.128205
20
12.307692
30
0.0
0
VERTEX
8
FILL
10
41.025641
20
12.410256
30
0.0
0
VERTEX
8
FILL
10
40.923077
20
12.410256
30
0.0
0
VERTEX
8
FILL
10
40.820513
20
12.512821
30
0.0
0
VERTEX
8
FILL
10
40.717949
20
12.512821
30
0.0
0
SEQEND
8
FILL
0
POLYLINE
8
FILL
66
1
70
1
0
VERTEX
8
FILL
10
40.000000
20
13.025641
30
0.0
0
VERTEX
8
FILL
10
40.205128
20
13.230769
30
0.0
0
VERTEX
8
FILL
10
40.307692
20
13.128205
30
0.0
0
VERTEX
8
FILL
10
40.410256
20
13.128205
30
0.0
0
VERTEX
8
FILL
10
40.615385
20
12.923077
30
0.0
0
VERTEX
8
FILL
10
40.410256
20
12.717949
30
0.0
0
VERTEX
8
FILL
10
40.307692
20
12.820513
30
0.0
0
VERTEX
8
FILL
10
40.205128
20
12.820513
30
0.0
0
SEQEND
8
FILL
0
POLYLINE
8
FILL
66
1
70
1
0
VERTEX
8
FILL
10
60.615385
20
13.435897
30
0.0
0
VERTEX
8
FILL
10
60.410256
20
13.230769
30
0.0
0
VERTEX
8
FILL
10
60.307692
20
13.230769
30
0.0
0
VERTEX
8
FILL
10
60.205128
20
13.128205
30
0.0
0
VERTEX
8
FILL
10
60.102564
20
13.128205
30
0.0
0
VERTEX
8
FILL
10
59.897436
20
12.923077
30
0.0
0
VERTEX
8
FILL
10
59.794872
20
12.923077
30
0.0
0
VERTEX
8
FILL
10
59.692308
20
12.820513
30
0.0
0
VERTEX
8
FILL
10
59.589744
20
12.820513
30
0.0
0
VERTEX
8
FILL
10
59.487179
20
12.717949
30
0.0
0
VERTEX
8
FILL
10
59.384615
20
12.717949
30
0.0
0
VERTEX
8
FILL
10
59.179487
20
12.512821
30
0.0
0
VERTEX
8
FILL
10
59.076923
20
12.512821
30
0.0
0
VERTEX
8
FILL
10
58.974359
20
12.410256
30
0.0
0
VERTEX
8
FILL
10
58.871795
20
12.410256
30
0.0
0
VERTEX
8
FILL
10
58.769231
20
12.307692
30
0.0
0
VERTEX
8
FILL
10
58.564103
20
12.512821
30
0.0
0
VERTEX
8
FILL
10
58.769231
20
12.717949
30
0.0
0
VERTEX
8
FILL
10
58.871795
20
12.717949
30
0.0
0
VERTEX
8
FILL
10
58.974359
20
12.820513
30
0.0
0
VERTEX
8
FILL
10
59.076923
20
12.820513
30
0.0
0
VERTEX
8
FILL
10
59.282051
20
13.025641
30
0.0
0
VERTEX
8
FILL
10
59.384615
20
13.025641
30
0.0
0
VERTEX
8
FILL
10
59.487179
20
13.128205
30
0.0
0
VERTEX
8
FILL
10
59.589744
20
13.128205
30
0.0
0
VERTEX
8
FILL
10
59.692308
20
13.230769
30
0.0
0
VERTEX
8
FILL
10
59.794872
20
13.230769
30
0.0
0
VERTEX
8
FILL
10
60.000000
20
13.435897
30
0.0
0
VERTEX
8
FILL
10
60.102564
20
13.435897
30
0.0
0
VERTEX
8
FILL
10
60.205128
20
13.538462
30
0.0
0
VERTEX
8
FILL
10
60.307692
20
13.538462
30
0.0
0
VERTEX
8
FILL
10
60.410256
20
13.641026
30
0.0
0
SEQEND
8
FILL
0
POLYLINE
8
FILL
66
1
70
1
0
VERTEX
8
FILL
10
39.282051
20
13.435897
30
0.0
0
VERTEX
8
FILL
10
39.487179
20
13.641026
30
0.0
0
VERTEX
8
FILL
10
39.589744
20
13.538462
30
0.0
0
VERTEX
8
FILL
10
39.692308
20
13.538462
30
0.0
0
VERTEX
8
FILL
10
39.897436
20
13.333333
30
0.0
0
VERTEX
8
FILL
10
39.692308
20
13.128205
30
0.0
0
VERTEX
8
FILL
10
39.589744
20
13.230769
30
0.0
0
VERTEX
8
FILL
10
39.487179
20
13.230769
30
0.0
0
SEQEND
8
FILL
0
POLYLINE
8
FILL
66
1
70
1
0
VERTEX
8
FILL
10
35.179487
20
15.794872
30
0.0
0
VERTEX
8
FILL
10
35.384615
20
16.000000
30
0.0
0
VERTEX
8
FILL
10
35.487179
20
15.897436
30
0.0
0
VERTEX
8
FILL
10
35.589744
20
15.897436
30
0.0
0
VERTEX
8
FILL
10
35.692308
20
15.794872
30
0.0
0
VERTEX
8
FILL
10
35.794872
20
15.794872
30
0.0
0
VERTEX
8
FILL
10
35.897436
20
15.692308
30
0.0
0
VERTEX
8
FILL
10
36.000000
20
15.692308
30
0.0
0
VERTEX
8
FILL
10
36.205128
20
15.487179
30
0.0
0
VERTEX
8
FILL
10
36.307692
20
15.487179
30
0.0
0
VERTEX
8
FILL
10
36.410256
20
15.384615
30
0.0
0
VERTEX
8
FILL
10
36.512821
20
15.384615
30
0.0
0
VERTEX
8
FILL
10
36.615385
20
15.282051
30
0.0
0
VERTEX
8
FILL
10
36.717949
20
15.282051
30
0.0
0
VERTEX
8
FILL
10
36.923077
20
15.076923
30
0.0
0
VERTEX
8
FILL
10
37.025641
20
15.076923
30
0.0
0
VERTEX
8
FILL
10
37.128205
20
14.974359
30
0.0
0
VERTEX
8
FILL
10
37.230769
20
14.974359
30
0.0
0
VERTEX
8
FILL
10
37.435897
20
14.769231
30
0.0
0
VERTEX
8
FILL
10
37.538462
20
14.769231
30
0.0
0
VERTEX
8
FILL
10
37.641026
20
14.666667
30
0.0
0
VERTEX
8
FILL
10
37.743590
20
14.666667
30
0.0
0
VERTEX
8
FILL
10
37.846154
20
14.564103
30
0.0
0
VERTEX
8
FILL
10
37.948718
20
14.564103
30
0.0
0
VERTEX
8
FILL
10
38.153846
20
14.358974
30
0.0
0
VERTEX
8
FILL
10
38.256410
20
14.358974
30
0.0
0
VERTEX
8
FILL
10
38.358974
20
14.256410
30
0.0
0
VERTEX
8
FILL
10
38.461538
20
14.256410
30
0.0
0
VERTEX
8
FILL
10
38.564103
20
14.153846
30
0.0
0
VERTEX
8
FILL
10
38.666667
20
14.153846
30
0.0
0
VERTEX
8
FILL
10
38.871795
20
13.948718
30
0.0
0
VERTEX
8
FILL
10
38.974359
20
13.948718
30
0.0
0
VERTEX
8
FILL
10
39.076923
20
13.846154
30
0.0
0
VERTEX
8
FILL
10
39.179487
20
13.846154
30
0.0
0
VERTEX
8
FILL
10
39.384615
20
13.641026
30
0.0
0
VERTEX
8
FILL
10
39.179487
20
13.435897
30
0.0
0
VERTEX
8
FILL
10
39.076923
20
13.538462
30
0.0
0
VERTEX
8
FILL
10
38.974359
20
13.538462
30
0.0
0
VERTEX
8
FILL
10
38.871795
20
13.641026
30
0.0
0
VERTEX
8
FILL
10
38.769231
20
13.641026
30
0.0
0
VERTEX
8
FILL
10
38.564103
20
13.846154
30
0.0
0
VERTEX
8
FILL
10
38.461538
20
13.846154
30
0.0
0
VERTEX
8
FILL
10
38.358974
20
13.948718
30
0.0
0
VERTEX
8
FILL
10
38.256410
20
13.948718
30
0.0
0
VERTEX
8
FILL
10
38.153846
20
14.051282
30
0.0
0
VERTEX
8
FILL
10
38.051282
20
14.051282
30
0.0
0
VERTEX
8
FILL
10
37.846154
20
14.256410
30
0.0
0
VERTEX
8
FILL
10
37.743590
20
14.256410
30
0.0
0
VERTEX
8
FILL
10
37.641026
20
14.358974
30
0.0
0
VERTEX
8
FILL
10
37.538462
20
14.358974
30
0.0
0
VERTEX
8
FILL
10
37.435897
20
14.461538
30
0.0
0
VERTEX
8
FILL
10
37.333333
20
14.461538
30
0.0
0
VERTEX
8
FILL
10
37.128205
20
14.666667
30
0.0
0
VERTEX
8
FILL
10
37.025641
20
14.666667
30
0.0
0
VERTEX
8
FILL
10
36.923077
20
14.769231
30
0.0
0
VERTEX
8
FILL
10
36.820513
20
14.769231
30
0.0
0
VERTEX
8
FILL
10
36.717949
20
14.871795
30
0.0
0
VERTEX
8
FILL
10
36.615385
20
14.871795
30
0.0
0
VERTEX
8
FILL
10
36.410256
20
15.076923
30
0.0
0
VERTEX
8
FILL
10
36.307692
20
15.076923
30
0.0
0
VERTEX
8
FILL
10
36.205128
20
15.179487
30
0.0
0
VERTEX
8
FILL
10
36.102564
20
15.179487
30
0.0
0
VERTEX
8
FILL
10
35.897436
20
15.384615
30
0.0
0
VERTEX
8
FILL
10
35.794872
20
15.384615
30
0.0
0
VERTEX
8
FILL
10
35.692308
20
15.487179
30
0.0
0
VERTEX
8
FILL
10
35.589744
20
15.487179
30
0.0
0
VERTEX
8
FILL
10
35.487179
20
15.589744
30
0.0
0
VERTEX
8
FILL
10
35.384615
20
15.589744
30
0.0
0
SEQEND
8
FILL
0
POLYLINE
8
FILL
66
1
70
1
0
VERTEX
8
FILL
10
34.666667
20
16.102564
30
0.0
0
VERTEX
8
FILL
10
34.871795
20
16.307692
30
0.0
0
VERTEX
8
FILL
10
34.974359
20
16.205128
30
0.0
0
VERTEX
8
FILL
10
35.076923
20
16.205128
30
0.0
0
VERTEX
8
FILL
10
35.282051
20
16.000000
30
0.0
0
VERTEX
8
FILL
10
35.076923
20
15.794872
30
0.0
0
VERTEX
8
FILL
10
34.974359
20
15.897436
30
0.0
0
VERTEX
8
FILL
10
34.871795
20
15.897436
30
0.0
0
SEQEND
8
FILL
0
POLYLINE
8
FILL
66
1
70
1
0
VERTEX
8
FILL
10
33.948718
20
16.512821
30
0.0
0
VERTEX
8
FILL
10
34.153846
20
16.717949
30
0.0
0
VERTEX
8
FILL
10
34.256410
20
16.615385
30
0.0
0
VERTEX
8
FILL
10
34.358974
20
16.615385
30
0.0
0
VERTEX
8
FILL
10
34.461538
20
16.512821
30
0.0
0
VERTEX
8
FILL
10
34.564103
20
16.512821
30
0.0
0
VERTEX
8
FILL
10
34.769231
20
16.307692
30
0.0
0
VERTEX
8
FILL
10
34.564103
20
16.102564
30
0.0
0
VERTEX
8
FILL
10
34.461538
20
16.205128
30
0.0
0
VERTEX
8
FILL
10
34.358974
20
16.205128
30
0.0
0
VERTEX
8
FILL
10
34.256410
20
16.307692
30
0.0
0
VERTEX
8
FILL
10
34.153846
20
16.307692
30
0.0
0
SEQEND
8
FILL
0
POLYLINE
8
FILL
66
1
70
1
0
VERTEX
8
FILL
10
33.435897
20
16.820513
30
0.0
0
VERTEX
8
FILL
10
33.641026
20
17.025641
30
0.0
0
VERTEX
8
FILL
10
33.743590
20
16.923077
30
0.0
0
VERTEX
8
FILL
10
33.846154
20
16.923077
30
0.0
0
VERTEX
8
FILL
10
34.051282
20
16.717949
30
0.0
0
VERTEX
8
FILL
10
33.846154
20
16.512821
30
0.0
0
VERTEX
8
FILL
10
33.743590
20
16.615385
30
0.0
0
VERTEX
8
FILL
10
33.641026
20
16.615385
30
0.0
0
SEQEND
8
FILL
0
POLYLINE
8
FILL
66
1
70
1
0
VERTEX
8
FILL
10
32.717949
20
17.230769
30
0.0
0
VERTEX
8
FILL
10
32.923077
20
17.435897
30
0.0
0
VERTEX
8
FILL
10
33.025641
20
17.333333
30
0.0
0
VERTEX
8
FILL
10
33.128205
20
17.333333
30
0.0
0
VERTEX
8
FILL
10
33.333333
20
17.128205
30
0.0
0
VERTEX
8
FILL
10
33.128205
20
16.923077
30
0.0
0
VERTEX
8
FILL
10
33.025641
20
17.025641
30
0.0
0
VERTEX
8
FILL
10
32.923077
20
17.025641
30
0.0
0
SEQEND
8
FILL
0
POLYLINE
8
FILL
66
1
70
1
0
VERTEX
8
FILL
10
32.000000
20
17.641026
30
0.0
0
VERTEX
8
FILL
10
32.205128
20
17.846154
30
0.0
0
VERTEX
8
FILL
10
32.307692
20
17.743590
30
0.0
0
VERTEX
8
FILL
10
32.410256
20
17.743590
30
0.0
0
VERTEX
8
FILL
10
32.615385
20
17.538462
30
0.0
0
VERTEX
8
FILL
10
32.410256
20
17.333333
30
0.0
0
VERTEX
8
FILL
10
32.307692
20
17.435897
30
0.0
0
VERTEX
8
FILL
10
32.205128
20
17.435897
30
0.0
0
SEQEND
8
FILL
0
POLYLINE
8
FILL
66
1
70
1
0
VERTEX
8
FILL
10
30.666667
20
18.461538
30
0.0
0
VERTEX
8
FILL
10
30.871795
20
18.666667
30
0.0
0
VERTEX
8
FILL
10
31.076923
20
18.461538
30
0.0
0
VERTEX
8
FILL
10
31.179487
20
18.461538
30
0.0
0
VERTEX
8
FILL
10
31.282051
20
18.358974
30
0.0
0
VERTEX
8
FILL
10
31.384615
20
18.358974
30
0.0
0
VERTEX
8
FILL
10
31.589744
20
18.153846
30
0.0
0
VERTEX
8
FILL
10
31.692308
20
18.153846
30
0.0
0
VERTEX
8
FILL
10
31.794872
20
18.051282
30
0.0
0
VERTEX
8
FILL
10
31.897436
20
18.051282
30
0.0
0
VERTEX
8
FILL
10
32.102564
20
17.846154
30
0.0
0
VERTEX
8
FILL
10
31.897436
20
17.641026
30
0.0
0
VERTEX
8
FILL
10
31.794872
20
17.743590
30
0.0
0
VERTEX
8
FILL
10
31.692308
20
17.743590
30
0.0
0
VERTEX
8
FILL
10
31.589744
20
17.846154
30
0.0
0
VERTEX
8
FILL
10
31.487179
20
17.846154
30
0.0
0
VERTEX
8
FILL
10
31.282051
20
18.051282
30
0.0
0
VERTEX
8
FILL
10
31.179487
20
18.051282
30
0.0
0
VERTEX
8
FILL
10
31.076923
20
18.153846
30
0.0
0
VERTEX
8
FILL
10
30.974359
20
18.153846
30
0.0
0
SEQEND
8
FILL
0
POLYLINE
8
FILL
66
1
70
1
0
VERTEX
8
FILL
10
69.435897
20
18.564103
30
0.0
0
VERTEX
8
FILL
10
69.128205
20
18.256410
30
0.0
0
VERTEX
8
FILL
10
69.025641
20
18.256410
30
0.0
0
VERTEX
8
FILL
10
68.923077
20
18.153846
30
0.0
0
VERTEX
8
FILL
10
68.820513
20
18.153846
30
0.0
0
VERTEX
8
FILL
10
68.615385
20
17.948718
30
0.0
0
VERTEX
8
FILL
10
68.512821
20
17.948718
30
0.0
0
VERTEX
8
FILL
10
68.410256
20
17.846154
30
0.0
0
VERTEX
8
FILL
10
68.307692
20
17.846154
30
0.0
0
VERTEX
8
FILL
10
68.102564
20
17.641026
30
0.0
0
VERTEX
8
FILL
10
67.897436
20
17.846154
30
0.0
0
VERTEX
8
FILL
10
68.205128
20
18.153846
30
0.0
0
VERTEX
8
FILL
10
68.307692
20
18.153846
30
0.0
0
VERTEX
8
FILL
10
68.512821
20
18.358974
30
0.0
0
VERTEX
8
FILL
10
68.615385
20
18.358974
30
0.0
0
VERTEX
8
FILL
10
68.717949
20
18.461538
30
0.0
0
VERTEX
8
FILL
10
68.820513
20
18.461538
30
0.0
0
VERTEX
8
FILL
10
69.025641
20
18.666667
30
0.0
0
VERTEX
8
FILL
10
69.128205
20
18.666667
30
0.0
0
VERTEX
8
FILL
10
69.230769
20
18.769231
30
0.0
0
SEQEND
8
FILL
0
POLYLINE
8
FILL
66
1
70
1
0
VERTEX
8
FILL
10
70.358974
20
19.384615
30
0.0
0
VERTEX
8
FILL
10
70.564103
20
19.179487
30
0.0
0
VERTEX
8
FILL
10
70.358974
20
18.974359
30
0.0
0
VERTEX
8
FILL
10
70.256410
20
18.974359
30
0.0
0
VERTEX
8
FILL
10
70.153846
20
18.871795
30
0.0
0
VERTEX
8
FILL
10
69.948718
20
19.076923
30
0.0
0
VERTEX
8
FILL
10
70.153846
20
19.282051
30
0.0
0
VERTEX
8
FILL
10
70.256410
20
19.282051
30
0.0
0
SEQEND
8
FILL
0
POLYLINE
8
FILL
66
1
70
1
0
VERTEX
8
FILL
10
29.333333
20
19.179487
30
0.0
0
VERTEX
8
FILL
10
29.538462
20
19.384615
30
0.0
0
VERTEX
8
FILL
10
29.641026
20
19.282051
30
0.0
0
VERTEX
8
FILL
10
29.743590
20
19.282051
30
0.0
0
VERTEX
8
FILL
10
29.948718
20
19.076923
30
0.0
0
VERTEX
8
FILL
10
29.743590
20
18.871795
30
0.0
0
VERTEX
8
FILL
10
29.641026
20
18.974359
30
0.0
0
VERTEX
8
FILL
10
29.538462
20
18.974359
30
0.0
0
SEQEND
8
FILL
0
POLYLINE
8
FILL
66
1
70
1
0
VERTEX
8
FILL
10
28.820513
20
19.487179
30
0.0
0
VERTEX
8
FILL
10
29.025641
20
19.692308
30
0.0
0
VERTEX
8
FILL
10
29.128205
20
19.589744
30
0.0
0
VERTEX
8
FILL
10
29.230769
20
19.589744
30
0.0
0
VERTEX
8
FILL
10
29.435897
20
19.384615
30
0.0
0
VERTEX
8
FILL
10
29.230769
20
19.179487
30
0.0
0
VERTEX
8
FILL
10
29.128205
20
19.282051
30
0.0
0
VERTEX
8
FILL
10
29.025641
20
19.282051
30
0.0
0
SEQEND
8
FILL
0
POLYLINE
8
FILL
66
1
70
1
0
VERTEX
8
FILL
10
71.076923
20
19.794872
30
0.0
0
VERTEX
8
FILL
10
71.282051
20
19.589744
30
0.0
0
VERTEX
8
FILL
10
71.076923
20
19.384615
30
0.0
0
VERTEX
8
FILL
10
70.974359
20
19.384615
30
0.0
0
VERTEX
8
FILL
10
70.871795
20
19.282051
30
0.0
0
VERTEX
8
FILL
10
70.666667
20
19.487179
30
0.0
0
VERTEX
8
FILL
10
70.871795
20
19.692308
30
0.0
0
VERTEX
8
FILL
10
70.974359
20
19.692308
30
0.0
0
SEQEND
8
FILL
0
POLYLINE
8
FILL
66
1
70
1
0
VERTEX
8
FILL
10
28.102564
20
19.897436
30
0.0
0
VERTEX
8
FILL
10
28.307692
20
20.102564
30
0.0
0
VERTEX
8
FILL
10
28.410256
20
20.000000
30
0.0
0
VERTEX
8
FILL
10
28.512821
20
20.000000
30
0.0
0
VERTEX
8
FILL
10
28.717949
20
19.794872
30
0.0
0
VERTEX
8
FILL
10
28.512821
20
19.589744
30
0.0
0
VERTEX
8
FILL
10
28.410256
20
19.692308
30
0.0
0
VERTEX
8
FILL
10
28.307692
20
19.692308
30
0.0
0
SEQEND
8
FILL
0
POLYLINE
8
FILL
66
1
70
1
0
VERTEX
8
FILL
10
72.307692
20
20.512821
30
0.0
0
VERTEX
8
FILL
10
72.512821
20
20.307692
30
0.0
0
VERTEX
8
FILL
10
72.307692
20
20.102564
30
0.0
0
VERTEX
8
FILL
10
72.205128
20
20.102564
30
0.0
0
VERTEX
8
FILL
10
72.102564
20
20.000000
30
0.0
0
VERTEX
8
FILL
10
71.897436
20
20.205128
30
0.0
0
VERTEX
8
FILL
10
72.102564
20
20.410256
30
0.0
0
VERTEX
8
FILL
10
72.205128
20
20.410256
30
0.0
0
SEQEND
8
FILL
0
POLYLINE
8
FILL
66
1
70
1
0
VERTEX
8
FILL
10
73.025641
20
20.923077
30
0.0
0
VERTEX
8
FILL
10
73.230769
20
20.717949
30
0.0
0
VERTEX
8
FILL
10
73.025641
20
20.512821
30
0.0
0
VERTEX
8
FILL
10
72.923077
20
20.512821
30
0.0
0
VERTEX
8
FILL
10
72.820513
20
20.410256
30
0.0
0
VERTEX
8
FILL
10
72.615385
20
20.615385
30
0.0
0
VERTEX
8
FILL
10
72.820513
20
20.820513
30
0.0
0
VERTEX
8
FILL
10
72.923077
20
20.820513
30
0.0
0
SEQEND
8
FILL
0
POLYLINE
8
FILL
66
1
70
1
0
VERTEX
8
FILL
10
73.743590
20
21.333333
30
0.0
0
VERTEX
8
FILL
10
73.948718
20
21.128205
30
0.0
0
VERTEX
8
FILL
10
73.743590
20
20.923077
30
0.0
0
VERTEX
8
FILL
10
73.641026
20
20.923077
30
0.0
0
VERTEX
8
FILL
10
73.538462
20
20.820513
30
0.0
0
VERTEX
8
FILL
10
73.333333
20
21.025641
30
0.0
0
VERTEX
8
FILL
10
73.538462
20
21.230769
30
0.0
0
VERTEX
8
FILL
10
73.641026
20
21.230769
30
0.0
0
SEQEND
8
FILL
0
POLYLINE
8
FILL
66
1
70
1
0
VERTEX
8
FILL
10
25.948718
20
21.128205
30
0.0
0
VERTEX
8
FILL
10
26.153846
20
21.333333
30
0.0
0
VERTEX
8
FILL
10
26.256410
20
21.230769
30
0.0
0
VERTEX
8
FILL
10
26.358974
20
21.230769
30
0.0
0
VERTEX
8
FILL
10
26.461538
20
21.128205
30
0.0
0
VERTEX
8
FILL
10
26.564103
20
21.128205
30
0.0
0
VERTEX
8
FILL
10
26.769231
20
20.923077
30
0.0
0
VERTEX
8
FILL
10
26.564103
20
20.717949
30
0.0
0
VERTEX
8
FILL
10
26.461538
20
20.820513
30
0.0
0
VERTEX
8
FILL
10
26.358974
20
20.820513
30
0.0
0
VERTEX
8
FILL
10
26.256410
20
20.923077
30
0.0
0
VERTEX
8
FILL
10
26.153846
20
20.923077
30
0.0
0
SEQEND
8
FILL
0
POLYLINE
8
FILL
66
1
70
1
0
VERTEX
8
FILL
10
25.435897
20
21.435897
30
0.0
0
VERTEX
8
FILL
10
25.641026
20
21.641026
30
0.0
0
VERTEX
8
FILL
10
25.743590
20
21.538462
30
0.0
0
VERTEX
8
FILL
10
25.846154
20
21.538462
30
0.0
0
VERTEX
8
FILL
10
26.051282
20
21.333333
30
0.0
0
VERTEX
8
FILL
10
25.846154
20
21.128205
30
0.0
0
VERTEX
8
FILL
10
25.743590
20
21.230769
30
0.0
0
VERTEX
8
FILL
10
25.641026
20
21.230769
30
0.0
0
SEQEND
8
FILL
0
POLYLINE
8
FILL
66
1
70
1
0
VERTEX
8
FILL
10
74.461538
20
21.743590
30
0.0
0
VERTEX
8
FILL
10
74.666667
20
21.538462
30
0.0
0
VERTEX
8
FILL
10
74.461538
20
21.333333
30
0.0
0
VERTEX
8
FILL
10
74.358974
20
21.333333
30
0.0
0
VERTEX
8
FILL
10
74.256410
20
21.230769
30
0.0
0
VERTEX
8
FILL
10
74.051282
20
21.435897
30
0.0
0
VERTEX
8
FILL
10
74.256410
20
21.641026
30
0.0
0
VERTEX
8
FILL
10
74.358974
20
21.641026
30
0.0
0
SEQEND
8
FILL
0
POLYLINE
8
FILL
66
1
70
1
0
VERTEX
8
FILL
10
76.615385
20
22.666667
30
0.0
0
VERTEX
8
FILL
10
76.410256
20
22.461538
30
0.0
0
VERTEX
8
FILL
10
76.307692
20
22.461538
30
0.0
0
VERTEX
8
FILL
10
76.102564
20
22.256410
30
0.0
0
VERTEX
8
FILL
10
76.000000
20
22.256410
30
0.0
0
VERTEX
8
FILL
10
75.897436
20
22.153846
30
0.0
0
VERTEX
8
FILL
10
75.794872
20
22.153846
30
0.0
0
VERTEX
8
FILL
10
75.692308
20
22.051282
30
0.0
0
VERTEX
8
FILL
10
75.589744
20
22.051282
30
0.0
0
VERTEX
8
FILL
10
75.384615
20
22.256410
30
0.0
0
VERTEX
8
FILL
10
75.589744
20
22.461538
30
0.0
0
VERTEX
8
FILL
10
75.692308
20
22.461538
30
0.0
0
VERTEX
8
FILL
10
75.794872
20
22.564103
30
0.0
0
VERTEX
8
FILL
10
75.897436
20
22.564103
30
0.0
0
VERTEX
8
FILL
10
76.000000
20
22.666667
30
0.0
0
VERTEX
8
FILL
10
76.102564
20
22.666667
30
0.0
0
VERTEX
8
FILL
10
76.205128
20
22.769231
30
0.0
0
VERTEX
8
FILL
10
76.307692
20
22.769231
30
0.0
0
VERTEX
8
FILL
10
76.410256
20
22.871795
30
0.0
0
SEQEND
8
FILL
0
POLYLINE
8
FILL
66
1
70
1
0
VERTEX
8
FILL
10
79.282051
20
24.205128
30
0.0
0
VERTEX
8
FILL
10
79.076923
20
24.000000
30
0.0
0
VERTEX
8
FILL
10
78.974359
20
24.000000
30
0.0
0
VERTEX
8
FILL
10
78.871795
20
23.897436
30
0.0
0
VERTEX
8
FILL
10
78.769231
20
23.897436
30
0.0
0
VERTEX
8
FILL
10
78.564103
20
23.692308
30
0.0
0
VERTEX
8
FILL
10
78.461538
20
23.692308
30
0.0
0
VERTEX
8
FILL
10
78.358974
20
23.589744
30
0.0
0
VERTEX
8
FILL
10
78.256410
20
23.589744
30
0.0
0
VERTEX
8
FILL
10
78.153846
20
23.487179
30
0.0
0
VERTEX
8
FILL
10
78.051282
20
23.487179
30
0.0
0
VERTEX
8
FILL
10
77.846154
20
23.282051
30
0.0
0
VERTEX
8
FILL
10
77.743590
20
23.282051
30
0.0
0
VERTEX
8
FILL
10
77.641026
20
23.179487
30
0.0
0
VERTEX
8
FILL
10
77.538462
20
23.179487
30
0.0
0
VERTEX
8
FILL
10
77.435897
20
23.076923
30
0.0
0
VERTEX
8
FILL
10
77.333333
20
23.076923
30
0.0
0
VERTEX
8
FILL
10
77.128205
20
22.871795
30
0.0
0
VERTEX
8
FILL
10
77.025641
20
22.871795
30
0.0
0
VERTEX
8
FILL
10
76.923077
20
22.769231
30
0.0
0
VERTEX
8
FILL
10
76.820513
20
22.769231
30
0.0
0
VERTEX
8
FILL
10
76.717949
20
22.666667
30
0.0
0
VERTEX
8
FILL
10
76.512821
20
22.871795
30
0.0
0
VERTEX
8
FILL
10
76.717949
20
23.076923
30
0.0
0
VERTEX
8
FILL
10
76.820513
20
23.076923
30
0.0
0
VERTEX
8
FILL
10
76.923077
20
23.179487
30
0.0
0
VERTEX
8
FILL
10
77.025641
20
23.179487
30
0.0
0
VERTEX
8
FILL
10
77.230769
20
23.384615
30
0.0
0
VERTEX
8
FILL
10
77.333333
20
23.384615
30
0.0
0
VERTEX
8
FILL
10
77.435897
20
23.487179
30
0.0
0
VERTEX
8
FILL
10
77.538462
20
23.487179
30
0.0
0
VERTEX
8
FILL
10
77.641026
20
23.589744
30
0.0
0
VERTEX
8
FILL
10
77.743590
20
23.589744
30
0.0
0
VERTEX
8
FILL
10
77.948718
20
23.794872
30
0.0
0
VERTEX
8
FILL
10
78.051282
20
23.794872
30
0.0
0
VERTEX
8
FILL
10
78.153846
20
23.897436
30
0.0
0
VERTEX
8
FILL
10
78.256410
20
23.897436
30
0.0
0
VERTEX
8
FILL
10
78.358974
20
24.000000
30
0.0
0
VERTEX
8
FILL
10
78.461538
20
24.000000
30
0.0
0
VERTEX
8
FILL
10
78.666667
20
24.205128
30
0.0
0
VERTEX
8
FILL
10
78.769231
20
24.205128
30
0.0
0
VERTEX
8
FILL
10
78.871795
20
24.307692
30
0.0
0
VERTEX
8
FILL
10
78.974359
20
24.307692
30
0.0
0
VERTEX
8
FILL
10
79.076923
20
24.410256
30
0.0
0
SEQEND
8
FILL
0
POLYLINE
8
FILL
66
1
70
1
0
VERTEX
8
FILL
10
20.615385
20
24.205128
30
0.0
0
VERTEX
8
FILL
10
20.820513
20
24.410256
30
0.0
0
VERTEX
8
FILL
10
20.923077
20
24.307692
30
0.0
0
VERTEX
8
FILL
10
21.025641
20
24.307692
30
0.0
0
VERTEX
8
FILL
10
21.128205
20
24.205128
30
0.0
0
VERTEX
8
FILL
10
21.230769
20
24.205128
30
0.0
0
VERTEX
8
FILL
10
21.333333
20
24.102564
30
0.0
0
VERTEX
8
FILL
10
21.435897
20
24.102564
30
0.0
0
VERTEX
8
FILL
10
21.641026
20
23.897436
30
0.0
0
VERTEX
8
FILL
10
21.743590
20
23.897436
30
0.0
0
VERTEX
8
FILL
10
21.846154
20
23.794872
30
0.0
0
VERTEX
8
FILL
10
21.948718
20
23.794872
30
0.0
0
VERTEX
8
FILL
10
22.051282
20
23.692308
30
0.0
0
VERTEX
8
FILL
10
22.153846
20
23.692308
30
0.0
0
VERTEX
8
FILL
10
22.358974
20
23.487179
30
0.0
0
VERTEX
8
FILL
10
22.461538
20
23.487179
30
0.0
0
VERTEX
8
FILL
10
22.564103
20
23.384615
30
0.0
0
VERTEX
8
FILL
10
22.666667
20
23.384615
30
0.0
0
VERTEX
8
FILL
10
22.769231
20
23.282051
30
0.0
0
VERTEX
8
FILL
10
22.871795
20
23.282051
30
0.0
0
VERTEX
8
FILL
10
23.076923
20
23.076923
30
0.0
0
VERTEX
8
FILL
10
23.179487
20
23.076923
30
0.0
0
VERTEX
8
FILL
10
23.282051
20
22.974359
30
0.0
0
VERTEX
8
FILL
10
23.384615
20
22.974359
30
0.0
0
VERTEX
8
FILL
10
23.589744
20
22.769231
30
0.0
0
VERTEX
8
FILL
10
23.692308
20
22.769231
30
0.0
0
VERTEX
8
FILL
10
23.794872
20
22.666667
30
0.0
0
VERTEX
8
FILL
10
23.897436
20
22.666667
30
0.0
0
VERTEX
8
FILL
10
24.000000
20
22.564103
30
0.0
0
VERTEX
8
FILL
10
24.102564
20
22.564103
30
0.0
0
VERTEX
8
FILL
10
24.205128
20
22.461538
30
0.0
0
VERTEX
8
FILL
10
24.307692
20
22.461538
30
0.0
0
VERTEX
8
FILL
10
24.512821
20
22.256410
30
0.0
0
VERTEX
8
FILL
10
24.307692
20
22.051282
30
0.0
0
VERTEX
8
FILL
10
24.205128
20
22.051282
30
0.0
0
VERTEX
8
FILL
10
24.102564
20
22.153846
30
0.0
0
VERTEX
8
FILL
10
24.000000
20
22.153846
30
0.0
0
VERTEX
8
FILL
10
23.897436
20
22.256410
30
0.0
0
VERTEX
8
FILL
10
23.794872
20
22.256410
30
0.0
0
VERTEX
8
FILL
10
23.589744
20
22.461538
30
0.0
0
VERTEX
8
FILL
10
23.487179
20
22.461538
30
0.0
0
VERTEX
8
FILL
10
23.384615
20
22.564103
30
0.0
0
VERTEX
8
FILL
10
23.282051
20
22.564103
30
0.0
0
VERTEX
8
FILL
10
23.076923
20
22.769231
30
0.0
0
VERTEX
8
FILL
10
22.974359
20
22.769231
30
0.0
0
VERTEX
8
FILL
10
22.871795
20
22.871795
30
0.0
0
VERTEX
8
FILL
10
22.769231
20
22.871795
30
0.0
0
VERTEX
8
FILL
10
22.564103
20
23.076923
30
0.0
0
VERTEX
8
FILL
10
22.461538
20
23.076923
30
0.0
0
VERTEX
8
FILL
10
22.358974
20
23.179487
30
0.0
0
VERTEX
8
FILL
10
22.256410
20
23.179487
30
0.0
0
VERTEX
8
FILL
10
22.153846
20
23.282051
30
0.0
0
VERTEX
8
FILL
10
22.051282
20
23.282051
30
0.0
0
VERTEX
8
FILL
10
21.846154
20
23.487179
30
0.0
0
VERTEX
8
FILL
10
21.743590
20
23.487179
30
0.0
0
VERTEX
8
FILL
10
21.641026
20
23.589744
30
0.0
0
VERTEX
8
FILL
10
21.538462
20
23.589744
30
0.0
0
VERTEX
8
FILL
10
21.435897
20
23.692308
30
0.0
0
VERTEX
8
FILL
10
21.333333
20
23.692308
30
0.0
0
VERTEX
8
FILL
10
21.128205
20
23.897436
30
0.0
0
VERTEX
8
FILL
10
21.025641
20
23.897436
30
0.0
0
VERTEX
8
FILL
10
20.923077
20
24.000000
30
0.0
0
VERTEX
8
FILL
10
20.820513
20
24.000000
30
0.0
0
SEQEND
8
FILL
0
POLYLINE
8
FILL
66
1
70
1
0
VERTEX
8
FILL
10
20.102564
20
24.512821
30
0.0
0
VERTEX
8
FILL
10
20.307692
20
24.717949
30
0.0
0
VERTEX
8
FILL
10
20.410256
20
24.615385
30
0.0
0
VERTEX
8
FILL
10
20.512821
20
24.615385
30
0.0
0
VERTEX
8
FILL
10
20.717949
20
24.410256
30
0.0
0
VERTEX
8
FILL
10
20.512821
20
24.205128
30
0.0
0
VERTEX
8
FILL
10
20.410256
20
24.307692
30
0.0
0
VERTEX
8
FILL
10
20.307692
20
24.307692
30
0.0
0
SEQEND
8
FILL
0
POLYLINE
8
FILL
66
1
70
1
0
VERTEX
8
FILL
10
79.794872
20
24.820513
30
0.0
0
VERTEX
8
FILL
10
80.000000
20
24.615385
30
0.0
0
VERTEX
8
FILL
10
79.794872
20
24.410256
30
0.0
0
VERTEX
8
FILL
10
79.692308
20
24.410256
30
0.0
0
VERTEX
8
FILL
10
79.589744
20
24.307692
30
0.0
0
VERTEX
8
FILL
10
79.384615
20
24.512821
30
0.0
0
VERTEX
8
FILL
10
79.589744
20
24.717949
30
0.0
0
VERTEX
8
FILL
10
79.692308
20
24.717949
30
0.0
0
SEQEND
8
FILL
0
POLYLINE
8
FILL
66
1
70
1
0
VERTEX
8
FILL
10
19.384615
20
24.923077
30
0.0
0
VERTEX
8
FILL
10
19.589744
20
25.128205
30
0.0
0
VERTEX
8
FILL
10
19.692308
20
25.025641
30
0.0
0
VERTEX
8
FILL
10
19.794872
20
25.025641
30
0.0
0
VERTEX
8
FILL
10
19.897436
20
24.923077
30
0.0
0
VERTEX
8
FILL
10
20.000000
20
24.923077
30
0.0
0
VERTEX
8
FILL
10
20.205128
20
24.717949
30
0.0
0
VERTEX
8
FILL
10
20.000000
20
24.512821
30
0.0
0
VERTEX
8
FILL
10
19.897436
20
24.615385
30
0.0
0
VERTEX
8
FILL
10
19.794872
20
24.615385
30
0.0
0
VERTEX
8
FILL
10
19.692308
20
24.717949
30
0.0
0
VERTEX
8
FILL
10
19.589744
20
24.717949
30
0.0
0
SEQEND
8
FILL
0
POLYLINE
8
FILL
66
1
70
1
0
VERTEX
8
FILL
10
81.230769
20
25.333333
30
0.0
0
VERTEX
8
FILL
10
81.025641
20
25.128205
30
0.0
0
VERTEX
8
FILL
10
80.923077
20
25.128205
30
0.0
0
VERTEX
8
FILL
10
80.820513
20
25.025641
30
0.0
0
VERTEX
8
FILL
10
80.717949
20
25.025641
30
0.0
0
VERTEX
8
FILL
10
80.512821
20
24.820513
30
0.0
0
VERTEX
8
FILL
10
80.410256
20
24.820513
30
0.0
0
VERTEX
8
FILL
10
80.307692
20
24.717949
30
0.0
0
VERTEX
8
FILL
10
80.205128
20
24.717949
30
0.0
0
VERTEX
8
FILL
10
80.102564
20
24.615385
30
0.0
0
VERTEX
8
FILL
10
79.897436
20
24.820513
30
0.0
0
VERTEX
8
FILL
10
80.102564
20
25.025641
30
0.0
0
VERTEX
8
FILL
10
80.205128
20
25.025641
30
0.0
0
VERTEX
8
FILL
10
80.307692
20
25.128205
30
0.0
0
VERTEX
8
FILL
10
80.410256
20
25.128205
30
0.0
0
VERTEX
8
FILL
10
80.615385
20
25.333333
30
0.0
0
VERTEX
8
FILL
10
80.717949
20
25.333333
30
0.0
0
VERTEX
8
FILL
10
80.820513
20
25.435897
30
0.0
0
VERTEX
8
FILL
10
80.923077
20
25.435897
30
0.0
0
VERTEX
8
FILL
10
81.025641
20
25.538462
30
0.0
0
SEQEND
8
FILL
0
POLYLINE
8
FILL
66
1
70
1
0
VERTEX
8
FILL
10
18.666667
20
25.333333
30
0.0
0
VERTEX
8
FILL
10
18.871795
20
25.538462
30
0.0
0
VERTEX
8
FILL
10
18.974359
20
25.435897
30
0.0
0
VERTEX
8
FILL
10
19.076923
20
25.435897
30
0.0
0
VERTEX
8
FILL
10
19.179487
20
25.333333
30
0.0
0
VERTEX
8
FILL
10
19.282051
20
25.333333
30
0.0
0
VERTEX
8
FILL
10
19.487179
20
25.128205
30
0.0
0
VERTEX
8
FILL
10
19.282051
20
24.923077
30
0.0
0
VERTEX
8
FILL
10
19.179487
20
25.025641
30
0.0
0
VERTEX
8
FILL
10
19.076923
20
25.025641
30
0.0
0
VERTEX
8
FILL
10
18.974359
20
25.128205
30
0.0
0
VERTEX
8
FILL
10
18.871795
20
25.128205
30
0.0
0
SEQEND
8
FILL
0
POLYLINE
8
FILL
66
1
70
1
0
VERTEX
8
FILL
10
18.153846
20
25.641026
30
0.0
0
VERTEX
8
FILL
10
18.358974
20
25.846154
30
0.0
0
VERTEX
8
FILL
10
18.461538
20
25.743590
30
0.0
0
VERTEX
8
FILL
10
18.564103
20
25.743590
30
0.0
0
VERTEX
8
FILL
10
18.769231
20
25.538462
30
0.0
0
VERTEX
8
FILL
10
18.564103
20
25.333333
30
0.0
0
VERTEX
8
FILL
10
18.461538
20
25.435897
30
0.0
0
VERTEX
8
FILL
10
18.358974
20
25.435897
30
0.0
0
SEQEND
8
FILL
0
POLYLINE
8
FILL
66
1
70
1
0
VERTEX
8
FILL
10
85.025641
20
27.897436
30
0.0
0
VERTEX
8
FILL
10
85.230769
20
27.692308
30
0.0
0
VERTEX
8
FILL
10
85.025641
20
27.487179
30
0.0
0
VERTEX
8
FILL
10
84.923077
20
27.487179
30
0.0
0
VERTEX
8
FILL
10
84.820513
20
27.384615
30
0.0
0
VERTEX
8
FILL
10
84.615385
20
27.589744
30
0.0
0
VERTEX
8
FILL
10
84.820513
20
27.794872
30
0.0
0
VERTEX
8
FILL
10
84.923077
20
27.794872
30
0.0
0
SEQEND
8
FILL
0
POLYLINE
8
FILL
66
1
70
1
0
VERTEX
8
FILL
10
12.615385
20
28.820513
30
0.0
0
VERTEX
8
FILL
10
12.820513
20
29.025641
30
0.0
0
VERTEX
8
FILL
10
12.923077
20
29.025641
30
0.0
0
VERTEX
8
FILL
10
13.025641
20
28.923077
30
0.0
0
VERTEX
8
FILL
10
13.128205
20
28.923077
30
0.0
0
VERTEX
8
FILL
10
13.333333
20
28.717949
30
0.0
0
VERTEX
8
FILL
10
13.435897
20
28.717949
30
0.0
0
VERTEX
8
FILL
10
13.538462
20
28.615385
30
0.0
0
VERTEX
8
FILL
10
13.641026
20
28.615385
30
0.0
0
VERTEX
8
FILL
10
13.948718
20
28.307692
30
0.0
0
VERTEX
8
FILL
10
13.743590
20
28.102564
30
0.0
0
VERTEX
8
FILL
10
13.641026
20
28.205128
30
0.0
0
VERTEX
8
FILL
10
13.538462
20
28.205128
30
0.0
0
VERTEX
8
FILL
10
13.435897
20
28.307692
30
0.0
0
VERTEX
8
FILL
10
13.333333
20
28.307692
30
0.0
0
VERTEX
8
FILL
10
13.230769
20
28.410256
30
0.0
0
VERTEX
8
FILL
10
13.128205
20
28.410256
30
0.0
0
VERTEX
8
FILL
10
13.025641
20
28.512821
30
0.0
0
VERTEX
8
FILL
10
12.923077
20
28.512821
30
0.0
0
SEQEND
8
FILL
0
POLYLINE
8
FILL
66
1
70
1
0
VERTEX
8
FILL
10
87.487179
20
28.923077
30
0.0
0
VERTEX
8
FILL
10
87.282051
20
28.717949
30
0.0
0
VERTEX
8
FILL
10
87.179487
20
28.717949
30
0.0
0
VERTEX
8
FILL
10
86.974359
20
28.512821
30
0.0
0
VERTEX
8
FILL
10
86.871795
20
28.512821
30
0.0
0
VERTEX
8
FILL
10
86.769231
20
28.410256
30
0.0
0
VERTEX
8
FILL
10
86.666667
20
28.410256
30
0.0
0
VERTEX
8
FILL
10
86.564103
20
28.307692
30
0.0
0
VERTEX
8
FILL
10
86.461538
20
28.307692
30
0.0
0
VERTEX
8
FILL
10
86.358974
20
28.205128
30
0.0
0
VERTEX
8
FILL
10
86.256410
20
28.205128
30
0.0
0
VERTEX
8
FILL
10
86.051282
20
28.000000
30
0.0
0
VERTEX
8
FILL
10
85.948718
20
28.000000
30
0.0
0
VERTEX
8
FILL
10
85.846154
20
27.897436
30
0.0
0
VERTEX
8
FILL
10
85.743590
20
27.897436
30
0.0
0
VERTEX
8
FILL
10
85.641026
20
27.794872
30
0.0
0
VERTEX
8
FILL
10
85.435897
20
28.000000
30
0.0
0
VERTEX
8
FILL
10
85.743590
20
28.307692
30
0.0
0
VERTEX
8
FILL
10
85.846154
20
28.307692
30
0.0
0
VERTEX
8
FILL
10
85.948718
20
28.410256
30
0.0
0
VERTEX
8
FILL
10
86.051282
20
28.410256
30
0.0
0
VERTEX
8
FILL
10
86.153846
20
28.512821
30
0.0
0
VERTEX
8
FILL
10
86.256410
20
28.512821
30
0.0
0
VERTEX
8
FILL
10
86.461538
20
28.717949
30
0.0
0
VERTEX
8
FILL
10
86.564103
20
28.717949
30
0.0
0
VERTEX
8
FILL
10
86.666667
20
28.820513
30
0.0
0
VERTEX
8
FILL
10
86.769231
20
28.820513
30
0.0
0
VERTEX
8
FILL
10
86.974359
20
29.025641
30
0.0
0
VERTEX
8
FILL
10
87.076923
20
29.025641
30
0.0
0
VERTEX
8
FILL
10
87.179487
20
29.128205
30
0.0
0
VERTEX
8
FILL
10
87.282051
20
29.128205
30
0.0
0
SEQEND
8
FILL
0
POLYLINE
8
FILL
66
1
70
1
0
VERTEX
8
FILL
10
88.307692
20
29.743590
30
0.0
0
VERTEX
8
FILL
10
88.512821
20
29.538462
30
0.0
0
VERTEX
8
FILL
10
88.307692
20
29.333333
30
0.0
0
VERTEX
8
FILL
10
88.205128
20
29.333333
30
0.0
0
VERTEX
8
FILL
10
88.102564
20
29.230769
30
0.0
0
VERTEX
8
FILL
10
87.897436
20
29.435897
30
0.0
0
VERTEX
8
FILL
10
88.102564
20
29.641026
30
0.0
0
VERTEX
8
FILL
10
88.205128
20
29.641026
30
0.0
0
SEQEND
8
FILL
0
POLYLINE
8
FILL
66
1
70
1
0
VERTEX
8
FILL
10
11.384615
20
29.538462
30
0.0
0
VERTEX
8
FILL
10
11.589744
20
29.743590
30
0.0
0
VERTEX
8
FILL
10
11.692308
20
29.641026
30
0.0
0
VERTEX
8
FILL
10
11.794872
20
29.641026
30
0.0
0
VERTEX
8
FILL
10
12.000000
20
29.435897
30
0.0
0
VERTEX
8
FILL
10
11.794872
20
29.230769
30
0.0
0
VERTEX
8
FILL
10
11.692308
20
29.333333
30
0.0
0
VERTEX
8
FILL
10
11.589744
20
29.333333
30
0.0
0
SEQEND
8
FILL
0
POLYLINE
8
FILL
66
1
70
1
0
VERTEX
8
FILL
10
89.025641
20
30.153846
30
0.0
0
VERTEX
8
FILL
10
89.230769
20
29.948718
30
0.0
0
VERTEX
8
FILL
10
89.025641
20
29.743590
30
0.0
0
VERTEX
8
FILL
10
88.923077
20
29.743590
30
0.0
0
VERTEX
8
FILL
10
88.820513
20
29.641026
30
0.0
0
VERTEX
8
FILL
10
88.615385
20
29.846154
30
0.0
0
VERTEX
8
FILL
10
88.820513
20
30.051282
30
0.0
0
VERTEX
8
FILL
10
88.923077
20
30.051282
30
0.0
0
SEQEND
8
FILL
0
POLYLINE
8
FILL
66
1
70
1
0
VERTEX
8
FILL
10
89.743590
20
30.564103
30
0.0
0
VERTEX
8
FILL
10
89.948718
20
30.358974
30
0.0
0
VERTEX
8
FILL
10
89.743590
20
30.153846
30
0.0
0
VERTEX
8
FILL
10
89.641026
20
30.153846
30
0.0
0
VERTEX
8
FILL
10
89.538462
20
30.051282
30
0.0
0
VERTEX
8
FILL
10
89.435897
20
30.051282
30
0.0
0
VERTEX
8
FILL
10
89.333333
20
29.948718
30
0.0
0
VERTEX
8
FILL
10
89.128205
20
30.153846
30
0.0
0
VERTEX
8
FILL
10
89.333333
20
30.358974
30
0.0
0
VERTEX
8
FILL
10
89.435897
20
30.358974
30
0.0
0
VERTEX
8
FILL
10
89.538462
20
30.461538
30
0.0
0
VERTEX
8
FILL
10
89.641026
20
30.461538
30
0.0
0
SEQEND
8
FILL
0
POLYLINE
8
FILL
66
1
70
1
0
VERTEX
8
FILL
10
9.435897
20
30.666667
30
0.0
0
VERTEX
8
FILL
10
9.641026
20
30.871795
30
0.0
0
VERTEX
8
FILL
10
9.743590
20
30.769231
30
0.0
0
VERTEX
8
FILL
10
9.846154
20
30.769231
30
0.0
0
VERTEX
8
FILL
10
10.051282
20
30.564103
30
0.0
0
VERTEX
8
FILL
10
9.846154
20
30.358974
30
0.0
0
VERTEX
8
FILL
10
9.743590
20
30.461538
30
0.0
0
VERTEX
8
FILL
10
9.641026
20
30.461538
30
0.0
0
SEQEND
8
FILL
0
POLYLINE
8
FILL
66
1
70
1
0
VERTEX
8
FILL
10
6.871795
20
34.051282
30
0.0
0
VERTEX
8
FILL
10
7.076923
20
33.846154
30
0.0
0
VERTEX
8
FILL
10
7.076923
20
33.743590
30
0.0
0
VERTEX
8
FILL
10
7.179487
20
33.641026
30
0.0
0
VERTEX
8
FILL
10
7.179487
20
33.435897
30
0.0
0
VERTEX
8
FILL
10
7.282051
20
33.333333
30
0.0
0
VERTEX
8
FILL
10
7.282051
20
33.230769
30
0.0
0
VERTEX
8
FILL
10
7.487179
20
33.025641
30
0.0
0
VERTEX
8
FILL
10
7.487179
20
32.923077
30
0.0
0
VERTEX
8
FILL
10
7.589744
20
32.923077
30
0.0
0
VERTEX
8
FILL
10
7.897436
20
32.615385
30
0.0
0
VERTEX
8
FILL
10
7.897436
20
32.512821
30
0.0
0
VERTEX
8
FILL
10
8.102564
20
32.307692
30
0.0
0
VERTEX
8
FILL
10
8.102564
20
32.205128
30
0.0
0
VERTEX
8
FILL
10
8.205128
20
32.102564
30
0.0
0
VERTEX
8
FILL
10
8.205128
20
32.000000
30
0.0
0
VERTEX
8
FILL
10
8.307692
20
31.897436
30
0.0
0
VERTEX
8
FILL
10
8.307692
20
31.794872
30
0.0
0
VERTEX
8
FILL
10
8.820513
20
31.282051
30
0.0
0
VERTEX
8
FILL
10
8.615385
20
31.076923
30
0.0
0
VERTEX
8
FILL
10
8.512821
20
31.179487
30
0.0
0
VERTEX
8
FILL
10
8.410256
20
31.179487
30
0.0
0
VERTEX
8
FILL
10
8.307692
20
31.282051
30
0.0
0
VERTEX
8
FILL
10
8.205128
20
31.282051
30
0.0
0
VERTEX
8
FILL
10
8.102564
20
31.384615
30
0.0
0
VERTEX
8
FILL
10
8.000000
20
31.384615
30
0.0
0
VERTEX
8
FILL
10
7.897436
20
31.487179
30
0.0
0
VERTEX
8
FILL
10
7.794872
20
31.487179
30
0.0
0
VERTEX
8
FILL
10
7.692308
20
31.589744
30
0.0
0
VERTEX
8
FILL
10
7.589744
20
31.589744
30
0.0
0
VERTEX
8
FILL
10
7.384615
20
31.794872
30
0.0
0
VERTEX
8
FILL
10
7.282051
20
31.794872
30
0.0
0
VERTEX
8
FILL
10
7.179487
20
31.897436
30
0.0
0
VERTEX
8
FILL
10
7.076923
20
31.897436
30
0.0
0
VERTEX
8
FILL
10
6.769231
20
32.205128
30
0.0
0
VERTEX
8
FILL
10
6.769231
20
32.410256
30
0.0
0
VERTEX
8
FILL
10
6.666667
20
32.512821
30
0.0
0
VERTEX
8
FILL
10
6.666667
20
33.846154
30
0.0
0
SEQEND
8
FILL
0
POLYLINE
8
FILL
66
1
70
1
0
VERTEX
8
FILL
10
93.025641
20
34.256410
30
0.0
0
VERTEX
8
FILL
10
93.230769
20
34.051282
30
0.0
0
VERTEX
8
FILL
10
93.230769
20
32.410256
30
0.0
0
VERTEX
8
FILL
10
93.128205
20
32.307692
30
0.0
0
VERTEX
8
FILL
10
93.128205
20
32.205128
30
0.0
0
VERTEX
8
FILL
10
92.717949
20
31.794872
30
0.0
0
VERTEX
8
FILL
10
92.615385
20
31.794872
30
0.0
0
VERTEX
8
FILL
10
92.512821
20
31.692308
30
0.0
0
VERTEX
8
FILL
10
92.410256
20
31.692308
30
0.0
0
VERTEX
8
FILL
10
92.307692
20
31.589744
30
0.0
0
VERTEX
8
FILL
10
92.205128
20
31.589744
30
0.0
0
VERTEX
8
FILL
10
92.102564
20
31.487179
30
0.0
0
VERTEX
8
FILL
10
92.000000
20
31.487179
30
0.0
0
VERTEX
8
FILL
10
91.897436
20
31.384615
30
0.0
0
VERTEX
8
FILL
10
91.794872
20
31.384615
30
0.0
0
VERTEX
8
FILL
10
91.692308
20
31.282051
30
0.0
0
VERTEX
8
FILL
10
91.589744
20
31.282051
30
0.0
0
VERTEX
8
FILL
10
91.487179
20
31.179487
30
0.0
0
VERTEX
8
FILL
10
91.384615
20
31.179487
30
0.0
0
VERTEX
8
FILL
10
91.282051
20
31.076923
30
0.0
0
VERTEX
8
FILL
10
91.179487
20
31.076923
30
0.0
0
VERTEX
8
FILL
10
90.974359
20
30.871795
30
0.0
0
VERTEX
8
FILL
10
90.871795
20
30.871795
30
0.0
0
VERTEX
8
FILL
10
90.769231
20
30.769231
30
0.0
0
VERTEX
8
FILL
10
90.666667
20
30.769231
30
0.0
0
VERTEX
8
FILL
10
90.461538
20
30.564103
30
0.0
0
VERTEX
8
FILL
10
90.358974
20
30.564103
30
0.0
0
VERTEX
8
FILL
10
90.051282
20
30.358974
30
0.0
0
VERTEX
8
FILL
10
89.846154
20
30.564103
30
0.0
0
VERTEX
8
FILL
10
90.051282
20
30.769231
30
0.0
0
VERTEX
8
FILL
10
90.153846
20
30.769231
30
0.0
0
VERTEX
8
FILL
10
90.256410
20
30.871795
30
0.0
0
VERTEX
8
FILL
10
90.358974
20
30.871795
30
0.0
0
VERTEX
8
FILL
10
90.564103
20
31.076923
30
0.0
0
VERTEX
8
FILL
10
90.666667
20
31.076923
30
0.0
0
VERTEX
8
FILL
10
90.769231
20
31.179487
30
0.0
0
VERTEX
8
FILL
10
90.871795
20
31.179487
30
0.0
0
VERTEX
8
FILL
10
91.076923
20
31.384615
30
0.0
0
VERTEX
8
FILL
10
91.179487
20
31.384615
30
0.0
0
VERTEX
8
FILL
10
91.589744
20
31.794872
30
0.0
0
VERTEX
8
FILL
10
91.589744
20
31.897436
30
0.0
0
VERTEX
8
FILL
10
91.794872
20
32.102564
30
0.0
0
VERTEX
8
FILL
10
91.794872
20
32.205128
30
0.0
0
VERTEX
8
FILL
10
91.897436
20
32.307692
30
0.0
0
VERTEX
8
FILL
10
91.897436
20
32.410256
30
0.0
0
VERTEX
8
FILL
10
92.102564
20
32.615385
30
0.0
0
VERTEX
8
FILL
10
92.102564
20
32.717949
30
0.0
0
VERTEX
8
FILL
10
92.307692
20
32.923077
30
0.0
0
VERTEX
8
FILL
10
92.512821
20
32.923077
30
0.0
0
VERTEX
8
FILL
10
92.512821
20
33.128205
30
0.0
0
VERTEX
8
FILL
10
92.615385
20
33.230769
30
0.0
0
VERTEX
8
FILL
10
92.615385
20
33.333333
30
0.0
0
VERTEX
8
FILL
10
92.717949
20
33.435897
30
0.0
0
VERTEX
8
FILL
10
92.717949
20
33.641026
30
0.0
0
VERTEX
8
FILL
10
92.820513
20
33.743590
30
0.0
0
VERTEX
8
FILL
10
92.820513
20
34.051282
30
0.0
0
SEQEND
8
FILL
0
POLYLINE
8
FILL
66
1
70
1
0
VERTEX
8
FILL
10
9.333333
20
123.487179
30
0.0
0
VERTEX
8
FILL
10
9.538462
20
123.282051
30
0.0
0
VERTEX
8
FILL
10
9.333333
20
123.076923
30
0.0
0
VERTEX
8
FILL
10
9.230769
20
123.076923
30
0.0
0
VERTEX
8
FILL
10
9.128205
20
122.974359
30
0.0
0
VERTEX
8
FILL
10
9.025641
20
122.974359
30
0.0
0
VERTEX
8
FILL
10
8.307692
20
122.256410
30
0.0
0
VERTEX
8
FILL
10
8.307692
20
122.153846
30
0.0
0
VERTEX
8
FILL
10
8.205128
20
122.051282
30
0.0
0
VERTEX
8
FILL
10
8.205128
20
121.948718
30
0.0
0
VERTEX
8
FILL
10
7.384615
20
121.128205
30
0.0
0
VERTEX
8
FILL
10
7.384615
20
121.025641
30
0.0
0
VERTEX
8
FILL
10
7.179487
20
120.820513
30
0.0
0
VERTEX
8
FILL
10
7.179487
20
120.615385
30
0.0
0
VERTEX
8
FILL
10
7.076923
20
120.512821
30
0.0
0
VERTEX
8
FILL
10
7.076923
20
120.102564
30
0.0
0
VERTEX
8
FILL
10
6.871795
20
119.897436
30
0.0
0
VERTEX
8
FILL
10
6.666667
20
120.102564
30
0.0
0
VERTEX
8
FILL
10
6.666667
20
121.641026
30
0.0
0
VERTEX
8
FILL
10
6.769231
20
121.743590
30
0.0
0
VERTEX
8
FILL
10
6.769231
20
121.948718
30
0.0
0
VERTEX
8
FILL
10
7.076923
20
122.256410
30
0.0
0
VERTEX
8
FILL
10
7.179487
20
122.256410
30
0.0
0
VERTEX
8
FILL
10
7.384615
20
122.461538
30
0.0
0
VERTEX
8
FILL
10
7.487179
20
122.461538
30
0.0
0
VERTEX
8
FILL
10
7.589744
20
122.564103
30
0.0
0
VERTEX
8
FILL
10
7.692308
20
122.564103
30
0.0
0
VERTEX
8
FILL
10
7.794872
20
122.666667
30
0.0
0
VERTEX
8
FILL
10
7.897436
20
122.666667
30
0.0
0
VERTEX
8
FILL
10
8.000000
20
122.769231
30
0.0
0
VERTEX
8
FILL
10
8.102564
20
122.769231
30
0.0
0
VERTEX
8
FILL
10
8.205128
20
122.871795
30
0.0
0
VERTEX
8
FILL
10
8.307692
20
122.871795
30
0.0
0
VERTEX
8
FILL
10
8.410256
20
122.974359
30
0.0
0
VERTEX
8
FILL
10
8.512821
20
122.974359
30
0.0
0
VERTEX
8
FILL
10
8.615385
20
123.076923
30
0.0
0
VERTEX
8
FILL
10
8.717949
20
123.076923
30
0.0
0
VERTEX
8
FILL
10
8.923077
20
123.282051
30
0.0
0
VERTEX
8
FILL
10
9.025641
20
123.282051
30
0.0
0
VERTEX
8
FILL
10
9.128205
20
123.384615
30
0.0
0
VERTEX
8
FILL
10
9.230769
20
123.384615
30
0.0
0
SEQEND
8
FILL
0
POLYLINE
8
FILL
66
1
70
1
0
VERTEX
8
FILL
10
10.051282
20
123.897436
30
0.0
0
VERTEX
8
FILL
10
10.256410
20
123.692308
30
0.0
0
VERTEX
8
FILL
10
10.051282
20
123.487179
30
0.0
0
VERTEX
8
FILL
10
9.948718
20
123.487179
30
0.0
0
VERTEX
8
FILL
10
9.846154
20
123.384615
30
0.0
0
VERTEX
8
FILL
10
9.743590
20
123.384615
30
0.0
0
VERTEX
8
FILL
10
9.641026
20
123.282051
30
0.0
0
VERTEX
8
FILL
10
9.435897
20
123.487179
30
0.0
0
VERTEX
8
FILL
10
9.641026
20
123.692308
30
0.0
0
VERTEX
8
FILL
10
9.743590
20
123.692308
30
0.0
0
VERTEX
8
FILL
10
9.846154
20
123.794872
30
0.0
0
VERTEX
8
FILL
10
9.948718
20
123.794872
30
0.0
0
SEQEND
8
FILL
0
POLYLINE
8
FILL
66
1
70
1
0
VERTEX
8
FILL
10
89.333333
20
124.205128
30
0.0
0
VERTEX
8
FILL
10
89.435897
20
124.102564
30
0.0
0
VERTEX
8
FILL
10
89.743590
20
124.000000
30
0.0
0
VERTEX
8
FILL
10
89.948718
20
123.794872
30
0.0
0
VERTEX
8
FILL
10
90.051282
20
123.794872
30
0.0
0
VERTEX
8
FILL
10
90.153846
20
123.692308
30
0.0
0
VERTEX
8
FILL
10
90.461538
20
123.589744
30
0.0
0
VERTEX
8
FILL
10
90.666667
20
123.384615
30
0.0
0
VERTEX
8
FILL
10
90.769231
20
123.384615
30
0.0
0
VERTEX
8
FILL
10
90.871795
20
123.282051
30
0.0
0
VERTEX
8
FILL
10
90.974359
20
123.282051
30
0.0
0
VERTEX
8
FILL
10
91.076923
20
123.179487
30
0.0
0
VERTEX
8
FILL
10
91.384615
20
123.076923
30
0.0
0
VERTEX
8
FILL
10
91.589744
20
122.871795
30
0.0
0
VERTEX
8
FILL
10
91.692308
20
122.871795
30
0.0
0
VERTEX
8
FILL
10
91.794872
20
122.769231
30
0.0
0
VERTEX
8
FILL
10
91.897436
20
122.769231
30
0.0
0
VERTEX
8
FILL
10
92.000000
20
122.666667
30
0.0
0
VERTEX
8
FILL
10
92.102564
20
122.666667
30
0.0
0
VERTEX
8
FILL
10
92.205128
20
122.564103
30
0.0
0
VERTEX
8
FILL
10
92.512821
20
122.461538
30
0.0
0
VERTEX
8
FILL
10
92.717949
20
122.256410
30
0.0
0
VERTEX
8
FILL
10
92.820513
20
122.256410
30
0.0
0
VERTEX
8
FILL
10
93.128205
20
121.948718
30
0.0
0
VERTEX
8
FILL
10
93.128205
20
121.846154
30
0.0
0
VERTEX
8
FILL
10
93.230769
20
121.743590
30
0.0
0
VERTEX
8
FILL
10
93.230769
20
120.205128
30
0.0
0
VERTEX
8
FILL
10
93.025641
20
120.000000
30
0.0
0
VERTEX
8
FILL
10
92.820513
20
120.205128
30
0.0
0
VERTEX
8
FILL
10
92.820513
20
120.512821
30
0.0
0
VERTEX
8
FILL
10
92.717949
20
120.615385
30
0.0
0
VERTEX
8
FILL
10
92.717949
20
120.820513
30
0.0
0
VERTEX
8
FILL
10
92.512821
20
121.025641
30
0.0
0
VERTEX
8
FILL
10
92.512821
20
121.128205
30
0.0
0
VERTEX
8
FILL
10
91.794872
20
121.846154
30
0.0
0
VERTEX
8
FILL
10
91.794872
20
121.948718
30
0.0
0
VERTEX
8
FILL
10
91.589744
20
122.153846
30
0.0
0
VERTEX
8
FILL
10
91.589744
20
122.256410
30
0.0
0
VERTEX
8
FILL
10
91.384615
20
122.461538
30
0.0
0
VERTEX
8
FILL
10
91.384615
20
122.564103
30
0.0
0
VERTEX
8
FILL
10
91.282051
20
122.666667
30
0.0
0
VERTEX
8
FILL
10
91.179487
20
122.666667
30
0.0
0
VERTEX
8
FILL
10
90.871795
20
122.974359
30
0.0
0
VERTEX
8
FILL
10
90.564103
20
123.076923
30
0.0
0
VERTEX
8
FILL
10
90.358974
20
123.282051
30
0.0
0
VERTEX
8
FILL
10
90.256410
20
123.282051
30
0.0
0
VERTEX
8
FILL
10
90.153846
20
123.384615
30
0.0
0
VERTEX
8
FILL
10
89.846154
20
123.487179
30
0.0
0
VERTEX
8
FILL
10
89.641026
20
123.692308
30
0.0
0
VERTEX
8
FILL
10
89.333333
20
123.794872
30
0.0
0
VERTEX
8
FILL
10
89.128205
20
124.000000
30
0.0
0
SEQEND
8
FILL
0
POLYLINE
8
FILL
66
1
70
1
0
VERTEX
8
FILL
10
88.410256
20
124.410256
30
0.0
0
VERTEX
8
FILL
10
88.615385
20
124.615385
30
0.0
0
VERTEX
8
FILL
10
88.717949
20
124.512821
30
0.0
0
VERTEX
8
FILL
10
88.820513
20
124.512821
30
0.0
0
VERTEX
8
FILL
10
88.923077
20
124.410256
30
0.0
0
VERTEX
8
FILL
10
89.025641
20
124.410256
30
0.0
0
VERTEX
8
FILL
10
89.230769
20
124.205128
30
0.0
0
VERTEX
8
FILL
10
89.025641
20
124.000000
30
0.0
0
VERTEX
8
FILL
10
88.923077
20
124.102564
30
0.0
0
VERTEX
8
FILL
10
88.820513
20
124.102564
30
0.0
0
VERTEX
8
FILL
10
88.717949
20
124.205128
30
0.0
0
VERTEX
8
FILL
10
88.615385
20
124.205128
30
0.0
0
SEQEND
8
FILL
0
POLYLINE
8
FILL
66
1
70
1
0
VERTEX
8
FILL
10
87.897436
20
124.717949
30
0.0
0
VERTEX
8
FILL
10
88.102564
20
124.923077
30
0.0
0
VERTEX
8
FILL
10
88.205128
20
124.820513
30
0.0
0
VERTEX
8
FILL
10
88.307692
20
124.820513
30
0.0
0
VERTEX
8
FILL
10
88.512821
20
124.615385
30
0.0
0
VERTEX
8
FILL
10
88.307692
20
124.410256
30
0.0
0
VERTEX
8
FILL
10
88.205128
20
124.512821
30
0.0
0
VERTEX
8
FILL
10
88.102564
20
124.512821
30
0.0
0
SEQEND
8
FILL
0
POLYLINE
8
FILL
66
1
70
1
0
VERTEX
8
FILL
10
12.000000
20
125.025641
30
0.0
0
VERTEX
8
FILL
10
12.205128
20
124.820513
30
0.0
0
VERTEX
8
FILL
10
12.000000
20
124.615385
30
0.0
0
VERTEX
8
FILL
10
11.897436
20
124.615385
30
0.0
0
VERTEX
8
FILL
10
11.794872
20
124.512821
30
0.0
0
VERTEX
8
FILL
10
11.692308
20
124.512821
30
0.0
0
VERTEX
8
FILL
10
11.589744
20
124.410256
30
0.0
0
VERTEX
8
FILL
10
11.384615
20
124.615385
30
0.0
0
VERTEX
8
FILL
10
11.589744
20
124.820513
30
0.0
0
VERTEX
8
FILL
10
11.692308
20
124.820513
30
0.0
0
VERTEX
8
FILL
10
11.794872
20
124.923077
30
0.0
0
VERTEX
8
FILL
10
11.897436
20
124.923077
30
0.0
0
SEQEND
8
FILL
0
POLYLINE
8
FILL
66
1
70
1
0
VERTEX
8
FILL
10
87.179487
20
125.128205
30
0.0
0
VERTEX
8
FILL
10
87.384615
20
125.333333
30
0.0
0
VERTEX
8
FILL
10
87.487179
20
125.230769
30
0.0
0
VERTEX
8
FILL
10
87.589744
20
125.230769
30
0.0
0
VERTEX
8
FILL
10
87.692308
20
125.128205
30
0.0
0
VERTEX
8
FILL
10
87.794872
20
125.128205
30
0.0
0
VERTEX
8
FILL
10
88.000000
20
124.923077
30
0.0
0
VERTEX
8
FILL
10
87.794872
20
124.717949
30
0.0
0
VERTEX
8
FILL
10
87.692308
20
124.820513
30
0.0
0
VERTEX
8
FILL
10
87.589744
20
124.820513
30
0.0
0
VERTEX
8
FILL
10
87.487179
20
124.923077
30
0.0
0
VERTEX
8
FILL
10
87.384615
20
124.923077
30
0.0
0
SEQEND
8
FILL
0
POLYLINE
8
FILL
66
1
70
1
0
VERTEX
8
FILL
10
13.435897
20
125.538462
30
0.0
0
VERTEX
8
FILL
10
13.128205
20
125.230769
30
0.0
0
VERTEX
8
FILL
10
13.025641
20
125.230769
30
0.0
0
VERTEX
8
FILL
10
12.820513
20
125.025641
30
0.0
0
VERTEX
8
FILL
10
12.615385
20
125.025641
30
0.0
0
VERTEX
8
FILL
10
12.512821
20
124.923077
30
0.0
0
VERTEX
8
FILL
10
12.410256
20
124.923077
30
0.0
0
VERTEX
8
FILL
10
12.307692
20
124.820513
30
0.0
0
VERTEX
8
FILL
10
12.102564
20
125.025641
30
0.0
0
VERTEX
8
FILL
10
12.307692
20
125.230769
30
0.0
0
VERTEX
8
FILL
10
12.410256
20
125.230769
30
0.0
0
VERTEX
8
FILL
10
12.512821
20
125.333333
30
0.0
0
VERTEX
8
FILL
10
12.615385
20
125.333333
30
0.0
0
VERTEX
8
FILL
10
12.717949
20
125.435897
30
0.0
0
VERTEX
8
FILL
10
12.820513
20
125.435897
30
0.0
0
VERTEX
8
FILL
10
13.025641
20
125.641026
30
0.0
0
VERTEX
8
FILL
10
13.128205
20
125.641026
30
0.0
0
VERTEX
8
FILL
10
13.230769
20
125.743590
30
0.0
0
SEQEND
8
FILL
0
POLYLINE
8
FILL
66
1
70
1
0
VERTEX
8
FILL
10
85.948718
20
125.846154
30
0.0
0
VERTEX
8
FILL
10
86.153846
20
126.051282
30
0.0
0
VERTEX
8
FILL
10
86.256410
20
125.948718
30
0.0
0
VERTEX
8
FILL
10
86.358974
20
125.948718
30
0.0
0
VERTEX
8
FILL
10
86.461538
20
125.846154
30
0.0
0
VERTEX
8
FILL
10
86.564103
20
125.846154
30
0.0
0
VERTEX
8
FILL
10
86.769231
20
125.641026
30
0.0
0
VERTEX
8
FILL
10
86.871795
20
125.641026
30
0.0
0
VERTEX
8
FILL
10
86.974359
20
125.538462
30
0.0
0
VERTEX
8
FILL
10
87.076923
20
125.538462
30
0.0
0
VERTEX
8
FILL
10
87.282051
20
125.333333
30
0.0
0
VERTEX
8
FILL
10
87.076923
20
125.128205
30
0.0
0
VERTEX
8
FILL
10
86.974359
20
125.230769
30
0.0
0
VERTEX
8
FILL
10
86.871795
20
125.230769
30
0.0
0
VERTEX
8
FILL
10
86.769231
20
125.333333
30
0.0
0
VERTEX
8
FILL
10
86.666667
20
125.333333
30
0.0
0
VERTEX
8
FILL
10
86.461538
20
125.538462
30
0.0
0
VERTEX
8
FILL
10
86.358974
20
125.538462
30
0.0
0
VERTEX
8
FILL
10
86.256410
20
125.641026
30
0.0
0
VERTEX
8
FILL
10
86.153846
20
125.641026
30
0.0
0
SEQEND
8
FILL
0
POLYLINE
8
FILL
66
1
70
1
0
VERTEX
8
FILL
10
84.512821
20
126.666667
30
0.0
0
VERTEX
8
FILL
10
84.717949
20
126.871795
30
0.0
0
VERTEX
8
FILL
10
84.820513
20
126.769231
30
0.0
0
VERTEX
8
FILL
10
84.923077
20
126.769231
30
0.0
0
VERTEX
8
FILL
10
85.128205
20
126.564103
30
0.0
0
VERTEX
8
FILL
10
84.923077
20
126.358974
30
0.0
0
VERTEX
8
FILL
10
84.820513
20
126.461538
30
0.0
0
VERTEX
8
FILL
10
84.717949
20
126.461538
30
0.0
0
SEQEND
8
FILL
0
POLYLINE
8
FILL
66
1
70
1
0
VERTEX
8
FILL
10
83.794872
20
127.076923
30
0.0
0
VERTEX
8
FILL
10
84.000000
20
127.282051
30
0.0
0
VERTEX
8
FILL
10
84.102564
20
127.179487
30
0.0
0
VERTEX
8
FILL
10
84.205128
20
127.179487
30
0.0
0
VERTEX
8
FILL
10
84.307692
20
127.076923
30
0.0
0
VERTEX
8
FILL
10
84.410256
20
127.076923
30
0.0
0
VERTEX
8
FILL
10
84.615385
20
126.871795
30
0.0
0
VERTEX
8
FILL
10
84.410256
20
126.666667
30
0.0
0
VERTEX
8
FILL
10
84.307692
20
126.769231
30
0.0
0
VERTEX
8
FILL
10
84.205128
20
126.769231
30
0.0
0
VERTEX
8
FILL
10
84.102564
20
126.871795
30
0.0
0
VERTEX
8
FILL
10
84.000000
20
126.871795
30
0.0
0
SEQEND
8
FILL
0
POLYLINE
8
FILL
66
1
70
1
0
VERTEX
8
FILL
10
81.846154
20
128.205128
30
0.0
0
VERTEX
8
FILL
10
82.051282
20
128.410256
30
0.0
0
VERTEX
8
FILL
10
82.153846
20
128.307692
30
0.0
0
VERTEX
8
FILL
10
82.256410
20
128.307692
30
0.0
0
VERTEX
8
FILL
10
82.358974
20
128.205128
30
0.0
0
VERTEX
8
FILL
10
82.461538
20
128.205128
30
0.0
0
VERTEX
8
FILL
10
82.666667
20
128.000000
30
0.0
0
VERTEX
8
FILL
10
82.769231
20
128.000000
30
0.0
0
VERTEX
8
FILL
10
82.871795
20
127.897436
30
0.0
0
VERTEX
8
FILL
10
82.974359
20
127.897436
30
0.0
0
VERTEX
8
FILL
10
83.076923
20
127.794872
30
0.0
0
VERTEX
8
FILL
10
83.179487
20
127.794872
30
0.0
0
VERTEX
8
FILL
10
83.384615
20
127.589744
30
0.0
0
VERTEX
8
FILL
10
83.487179
20
127.589744
30
0.0
0
VERTEX
8
FILL
10
83.589744
20
127.487179
30
0.0
0
VERTEX
8
FILL
10
83.692308
20
127.487179
30
0.0
0
VERTEX
8
FILL
10
83.897436
20
127.282051
30
0.0
0
VERTEX
8
FILL
10
83.692308
20
127.076923
30
0.0
0
VERTEX
8
FILL
10
83.589744
20
127.179487
30
0.0
0
VERTEX
8
FILL
10
83.487179
20
127.179487
30
0.0
0
VERTEX
8
FILL
10
83.384615
20
127.282051
30
0.0
0
VERTEX
8
FILL
10
83.282051
20
127.282051
30
0.0
0
VERTEX
8
FILL
10
83.076923
20
127.487179
30
0.0
0
VERTEX
8
FILL
10
82.974359
20
127.487179
30
0.0
0
VERTEX
8
FILL
10
82.871795
20
127.589744
30
0.0
0
VERTEX
8
FILL
10
82.769231
20
127.589744
30
0.0
0
VERTEX
8
FILL
10
82.666667
20
127.692308
30
0.0
0
VERTEX
8
FILL
10
82.564103
20
127.692308
30
0.0
0
VERTEX
8
FILL
10
82.358974
20
127.897436
30
0.0
0
VERTEX
8
FILL
10
82.256410
20
127.897436
30
0.0
0
VERTEX
8
FILL
10
82.153846
20
128.000000
30
0.0
0
VERTEX
8
FILL
10
82.051282
20
128.000000
30
0.0
0
SEQEND
8
FILL
0
POLYLINE
8
FILL
66
1
70
1
0
VERTEX
8
FILL
10
18.564103
20
128.820513
30
0.0
0
VERTEX
8
FILL
10
18.769231
20
128.615385
30
0.0
0
VERTEX
8
FILL
10
18.564103
20
128.410256
30
0.0
0
VERTEX
8
FILL
10
18.461538
20
128.410256
30
0.0
0
VERTEX
8
FILL
10
18.358974
20
128.307692
30
0.0
0
VERTEX
8
FILL
10
18.153846
20
128.512821
30
0.0
0
VERTEX
8
FILL
10
18.358974
20
128.717949
30
0.0
0
VERTEX
8
FILL
10
18.461538
20
128.717949
30
0.0
0
SEQEND
8
FILL
0
POLYLINE
8
FILL
66
1
70
1
0
VERTEX
8
FILL
10
19.282051
20
129.230769
30
0.0
0
VERTEX
8
FILL
10
19.487179
20
129.025641
30
0.0
0
VERTEX
8
FILL
10
19.282051
20
128.820513
30
0.0
0
VERTEX
8
FILL
10
19.179487
20
128.820513
30
0.0
0
VERTEX
8
FILL
10
19.076923
20
128.717949
30
0.0
0
VERTEX
8
FILL
10
18.974359
20
128.717949
30
0.0
0
VERTEX
8
FILL
10
18.871795
20
128.615385
30
0.0
0
VERTEX
8
FILL
10
18.666667
20
128.820513
30
0.0
0
VERTEX
8
FILL
10
18.871795
20
129.025641
30
0.0
0
VERTEX
8
FILL
10
18.974359
20
129.025641
30
0.0
0
VERTEX
8
FILL
10
19.076923
20
129.128205
30
0.0
0
VERTEX
8
FILL
10
19.179487
20
129.128205
30
0.0
0
SEQEND
8
FILL
0
POLYLINE
8
FILL
66
1
70
1
0
VERTEX
8
FILL
10
79.897436
20
129.333333
30
0.0
0
VERTEX
8
FILL
10
80.102564
20
129.538462
30
0.0
0
VERTEX
8
FILL
10
80.205128
20
129.435897
30
0.0
0
VERTEX
8
FILL
10
80.307692
20
129.435897
30
0.0
0
VERTEX
8
FILL
10
80.512821
20
129.230769
30
0.0
0
VERTEX
8
FILL
10
80.307692
20
129.025641
30
0.0
0
VERTEX
8
FILL
10
80.205128
20
129.128205
30
0.0
0
VERTEX
8
FILL
10
80.102564
20
129.128205
30
0.0
0
SEQEND
8
FILL
0
POLYLINE
8
FILL
66
1
70
1
0
VERTEX
8
FILL
10
19.794872
20
129.538462
30
0.0
0
VERTEX
8
FILL
10
20.000000
20
129.333333
30
0.0
0
VERTEX
8
FILL
10
19.794872
20
129.128205
30
0.0
0
VERTEX
8
FILL
10
19.692308
20
129.128205
30
0.0
0
VERTEX
8
FILL
10
19.589744
20
129.025641
30
0.0
0
VERTEX
8
FILL
10
19.384615
20
129.230769
30
0.0
0
VERTEX
8
FILL
10
19.589744
20
129.435897
30
0.0
0
VERTEX
8
FILL
10
19.692308
20
129.435897
30
0.0
0
SEQEND
8
FILL
0
POLYLINE
8
FILL
66
1
70
1
0
VERTEX
8
FILL
10
20.512821
20
129.948718
30
0.0
0
VERTEX
8
FILL
10
20.717949
20
129.743590
30
0.0
0
VERTEX
8
FILL
10
20.512821
20
129.538462
30
0.0
0
VERTEX
8
FILL
10
20.410256
20
129.538462
30
0.0
0
VERTEX
8
FILL
10
20.307692
20
129.435897
30
0.0
0
VERTEX
8
FILL
10
20.102564
20
129.641026
30
0.0
0
VERTEX
8
FILL
10
20.307692
20
129.846154
30
0.0
0
VERTEX
8
FILL
10
20.410256
20
129.846154
30
0.0
0
SEQEND
8
FILL
0
POLYLINE
8
FILL
66
1
70
1
0
VERTEX
8
FILL
10
21.230769
20
130.358974
30
0.0
0
VERTEX
8
FILL
10
21.435897
20
130.153846
30
0.0
0
VERTEX
8
FILL
10
21.230769
20
129.948718
30
0.0
0
VERTEX
8
FILL
10
21.128205
20
129.948718
30
0.0
0
VERTEX
8
FILL
10
21.025641
20
129.846154
30
0.0
0
VERTEX
8
FILL
10
20.820513
20
130.051282
30
0.0
0
VERTEX
8
FILL
10
21.025641
20
130.256410
30
0.0
0
VERTEX
8
FILL
10
21.128205
20
130.256410
30
0.0
0
SEQEND
8
FILL
0
POLYLINE
8
FILL
66
1
70
1
0
VERTEX
8
FILL
10
77.948718
20
130.461538
30
0.0
0
VERTEX
8
FILL
10
78.153846
20
130.666667
30
0.0
0
VERTEX
8
FILL
10
78.256410
20
130.564103
30
0.0
0
VERTEX
8
FILL
10
78.358974
20
130.564103
30
0.0
0
VERTEX
8
FILL
10
78.564103
20
130.358974
30
0.0
0
VERTEX
8
FILL
10
78.358974
20
130.153846
30
0.0
0
VERTEX
8
FILL
10
78.256410
20
130.256410
30
0.0
0
VERTEX
8
FILL
10
78.153846
20
130.256410
30
0.0
0
SEQEND
8
FILL
0
POLYLINE
8
FILL
66
1
70
1
0
VERTEX
8
FILL
10
21.948718
20
130.769231
30
0.0
0
VERTEX
8
FILL
10
22.153846
20
130.564103
30
0.0
0
VERTEX
8
FILL
10
21.948718
20
130.358974
30
0.0
0
VERTEX
8
FILL
10
21.846154
20
130.358974
30
0.0
0
VERTEX
8
FILL
10
21.743590
20
130.256410
30
0.0
0
VERTEX
8
FILL
10
21.641026
20
130.256410
30
0.0
0
VERTEX
8
FILL
10
21.538462
20
130.153846
30
0.0
0
VERTEX
8
FILL
10
21.333333
20
130.358974
30
0.0
0
VERTEX
8
FILL
10
21.538462
20
130.564103
30
0.0
0
VERTEX
8
FILL
10
21.641026
20
130.564103
30
0.0
0
VERTEX
8
FILL
10
21.743590
20
130.666667
30
0.0
0
VERTEX
8
FILL
10
21.846154
20
130.666667
30
0.0
0
SEQEND
8
FILL
0
POLYLINE
8
FILL
66
1
70
1
0
VERTEX
8
FILL
10
77.230769
20
130.871795
30
0.0
0
VERTEX
8
FILL
10
77.435897
20
131.076923
30
0.0
0
VERTEX
8
FILL
10
77.538462
20
130.974359
30
0.0
0
VERTEX
8
FILL
10
77.641026
20
130.974359
30
0.0
0
VERTEX
8
FILL
10
77.846154
20
130.769231
30
0.0
0
VERTEX
8
FILL
10
77.641026
20
130.564103
30
0.0
0
VERTEX
8
FILL
10
77.538462
20
130.666667
30
0.0
0
VERTEX
8
FILL
10
77.435897
20
130.666667
30
0.0
0
SEQEND
8
FILL
0
POLYLINE
8
FILL
66
1
70
1
0
VERTEX
8
FILL
10
76.512821
20
131.282051
30
0.0
0
VERTEX
8
FILL
10
76.717949
20
131.487179
30
0.0
0
VERTEX
8
FILL
10
76.820513
20
131.384615
30
0.0
0
VERTEX
8
FILL
10
76.923077
20
131.384615
30
0.0
0
VERTEX
8
FILL
10
77.025641
20
131.282051
30
0.0
0
VERTEX
8
FILL
10
77.128205
20
131.282051
30
0.0
0
VERTEX
8
FILL
10
77.333333
20
131.076923
30
0.0
0
VERTEX
8
FILL
10
77.128205
20
130.871795
30
0.0
0
VERTEX
8
FILL
10
77.025641
20
130.974359
30
0.0
0
VERTEX
8
FILL
10
76.923077
20
130.974359
30
0.0
0
VERTEX
8
FILL
10
76.820513
20
131.076923
30
0.0
0
VERTEX
8
FILL
10
76.717949
20
131.076923
30
0.0
0
SEQEND
8
FILL
0
POLYLINE
8
FILL
66
1
70
1
0
VERTEX
8
FILL
10
76.000000
20
131.589744
30
0.0
0
VERTEX
8
FILL
10
76.205128
20
131.794872
30
0.0
0
VERTEX
8
FILL
10
76.307692
20
131.692308
30
0.0
0
VERTEX
8
FILL
10
76.410256
20
131.692308
30
0.0
0
VERTEX
8
FILL
10
76.615385
20
131.487179
30
0.0
0
VERTEX
8
FILL
10
76.410256
20
131.282051
30
0.0
0
VERTEX
8
FILL
10
76.307692
20
131.384615
30
0.0
0
VERTEX
8
FILL
10
76.205128
20
131.384615
30
0.0
0
SEQEND
8
FILL
0
POLYLINE
8
FILL
66
1
70
1
0
VERTEX
8
FILL
10
24.102564
20
131.692308
30
0.0
0
VERTEX
8
FILL
10
23.897436
20
131.487179
30
0.0
0
VERTEX
8
FILL
10
23.794872
20
131.487179
30
0.0
0
VERTEX
8
FILL
10
23.692308
20
131.384615
30
0.0
0
VERTEX
8
FILL
10
23.589744
20
131.384615
30
0.0
0
VERTEX
8
FILL
10
23.384615
20
131.179487
30
0.0
0
VERTEX
8
FILL
10
23.282051
20
131.179487
30
0.0
0
VERTEX
8
FILL
10
23.179487
20
131.076923
30
0.0
0
VERTEX
8
FILL
10
23.076923
20
131.076923
30
0.0
0
VERTEX
8
FILL
10
22.974359
20
130.974359
30
0.0
0
VERTEX
8
FILL
10
22.871795
20
130.974359
30
0.0
0
VERTEX
8
FILL
10
22.666667
20
130.769231
30
0.0
0
VERTEX
8
FILL
10
22.564103
20
130.769231
30
0.0
0
VERTEX
8
FILL
10
22.461538
20
130.666667
30
0.0
0
VERTEX
8
FILL
10
22.358974
20
130.666667
30
0.0
0
VERTEX
8
FILL
10
22.256410
20
130.564103
30
0.0
0
VERTEX
8
FILL
10
22.051282
20
130.769231
30
0.0
0
VERTEX
8
FILL
10
22.256410
20
130.974359
30
0.0
0
VERTEX
8
FILL
10
22.358974
20
130.974359
30
0.0
0
VERTEX
8
FILL
10
22.461538
20
131.076923
30
0.0
0
VERTEX
8
FILL
10
22.564103
20
131.076923
30
0.0
0
VERTEX
8
FILL
10
22.769231
20
131.282051
30
0.0
0
VERTEX
8
FILL
10
22.871795
20
131.282051
30
0.0
0
VERTEX
8
FILL
10
22.974359
20
131.384615
30
0.0
0
VERTEX
8
FILL
10
23.076923
20
131.384615
30
0.0
0
VERTEX
8
FILL
10
23.179487
20
131.487179
30
0.0
0
VERTEX
8
FILL
10
23.282051
20
131.487179
30
0.0
0
VERTEX
8
FILL
10
23.487179
20
131.692308
30
0.0
0
VERTEX
8
FILL
10
23.589744
20
131.692308
30
0.0
0
VERTEX
8
FILL
10
23.794872
20
131.897436
30
0.0
0
VERTEX
8
FILL
10
23.897436
20
131.897436
30
0.0
0
SEQEND
8
FILL
0
POLYLINE
8
FILL
66
1
70
1
0
VERTEX
8
FILL
10
73.846154
20
132.820513
30
0.0
0
VERTEX
8
FILL
10
74.051282
20
133.025641
30
0.0
0
VERTEX
8
FILL
10
74.153846
20
132.923077
30
0.0
0
VERTEX
8
FILL
10
74.256410
20
132.923077
30
0.0
0
VERTEX
8
FILL
10
74.358974
20
132.820513
30
0.0
0
VERTEX
8
FILL
10
74.461538
20
132.820513
30
0.0
0
VERTEX
8
FILL
10
74.666667
20
132.615385
30
0.0
0
VERTEX
8
FILL
10
74.769231
20
132.615385
30
0.0
0
VERTEX
8
FILL
10
74.871795
20
132.512821
30
0.0
0
VERTEX
8
FILL
10
74.974359
20
132.512821
30
0.0
0
VERTEX
8
FILL
10
75.076923
20
132.410256
30
0.0
0
VERTEX
8
FILL
10
75.179487
20
132.410256
30
0.0
0
VERTEX
8
FILL
10
75.384615
20
132.205128
30
0.0
0
VERTEX
8
FILL
10
75.487179
20
132.205128
30
0.0
0
VERTEX
8
FILL
10
75.589744
20
132.102564
30
0.0
0
VERTEX
8
FILL
10
75.692308
20
132.102564
30
0.0
0
VERTEX
8
FILL
10
75.897436
20
131.897436
30
0.0
0
VERTEX
8
FILL
10
75.692308
20
131.692308
30
0.0
0
VERTEX
8
FILL
10
75.589744
20
131.794872
30
0.0
0
VERTEX
8
FILL
10
75.487179
20
131.794872
30
0.0
0
VERTEX
8
FILL
10
75.384615
20
131.897436
30
0.0
0
VERTEX
8
FILL
10
75.282051
20
131.897436
30
0.0
0
VERTEX
8
FILL
10
75.076923
20
132.102564
30
0.0
0
VERTEX
8
FILL
10
74.974359
20
132.102564
30
0.0
0
VERTEX
8
FILL
10
74.871795
20
132.205128
30
0.0
0
VERTEX
8
FILL
10
74.769231
20
132.205128
30
0.0
0
VERTEX
8
FILL
10
74.666667
20
132.307692
30
0.0
0
VERTEX
8
FILL
10
74.564103
20
132.307692
30
0.0
0
VERTEX
8
FILL
10
74.358974
20
132.512821
30
0.0
0
VERTEX
8
FILL
10
74.256410
20
132.512821
30
0.0
0
VERTEX
8
FILL
10
74.153846
20
132.615385
30
0.0
0
VERTEX
8
FILL
10
74.051282
20
132.615385
30
0.0
0
SEQEND
8
FILL
0
POLYLINE
8
FILL
66
1
70
1
0
VERTEX
8
FILL
10
25.846154
20
133.025641
30
0.0
0
VERTEX
8
FILL
10
26.051282
20
132.820513
30
0.0
0
VERTEX
8
FILL
10
25.846154
20
132.615385
30
0.0
0
VERTEX
8
FILL
10
25.743590
20
132.615385
30
0.0
0
VERTEX
8
FILL
10
25.641026
20
132.512821
30
0.0
0
VERTEX
8
FILL
10
25.435897
20
132.717949
30
0.0
0
VERTEX
8
FILL
10
25.641026
20
132.923077
30
0.0
0
VERTEX
8
FILL
10
25.743590
20
132.923077
30
0.0
0
SEQEND
8
FILL
0
POLYLINE
8
FILL
66
1
70
1
0
VERTEX
8
FILL
10
71.897436
20
133.948718
30
0.0
0
VERTEX
8
FILL
10
72.102564
20
134.153846
30
0.0
0
VERTEX
8
FILL
10
72.205128
20
134.051282
30
0.0
0
VERTEX
8
FILL
10
72.307692
20
134.051282
30
0.0
0
VERTEX
8
FILL
10
72.410256
20
133.948718
30
0.0
0
VERTEX
8
FILL
10
72.512821
20
133.948718
30
0.0
0
VERTEX
8
FILL
10
72.717949
20
133.743590
30
0.0
0
VERTEX
8
FILL
10
72.820513
20
133.743590
30
0.0
0
VERTEX
8
FILL
10
72.923077
20
133.641026
30
0.0
0
VERTEX
8
FILL
10
73.025641
20
133.641026
30
0.0
0
VERTEX
8
FILL
10
73.128205
20
133.538462
30
0.0
0
VERTEX
8
FILL
10
73.230769
20
133.538462
30
0.0
0
VERTEX
8
FILL
10
73.435897
20
133.333333
30
0.0
0
VERTEX
8
FILL
10
73.538462
20
133.333333
30
0.0
0
VERTEX
8
FILL
10
73.641026
20
133.230769
30
0.0
0
VERTEX
8
FILL
10
73.743590
20
133.230769
30
0.0
0
VERTEX
8
FILL
10
73.948718
20
133.025641
30
0.0
0
VERTEX
8
FILL
10
73.743590
20
132.820513
30
0.0
0
VERTEX
8
FILL
10
73.641026
20
132.923077
30
0.0
0
VERTEX
8
FILL
10
73.538462
20
132.923077
30
0.0
0
VERTEX
8
FILL
10
73.435897
20
133.025641
30
0.0
0
VERTEX
8
FILL
10
73.333333
20
133.025641
30
0.0
0
VERTEX
8
FILL
10
73.128205
20
133.230769
30
0.0
0
VERTEX
8
FILL
10
73.025641
20
133.230769
30
0.0
0
VERTEX
8
FILL
10
72.923077
20
133.333333
30
0.0
0
VERTEX
8
FILL
10
72.820513
20
133.333333
30
0.0
0
VERTEX
8
FILL
10
72.717949
20
133.435897
30
0.0
0
VERTEX
8
FILL
10
72.615385
20
133.435897
30
0.0
0
VERTEX
8
FILL
10
72.410256
20
133.641026
30
0.0
0
VERTEX
8
FILL
10
72.307692
20
133.641026
30
0.0
0
VERTEX
8
FILL
10
72.205128
20
133.743590
30
0.0
0
VERTEX
8
FILL
10
72.102564
20
133.743590
30
0.0
0
SEQEND
8
FILL
0
POLYLINE
8
FILL
66
1
70
1
0
VERTEX
8
FILL
10
71.179487
20
134.358974
30
0.0
0
VERTEX
8
FILL
10
71.384615
20
134.564103
30
0.0
0
VERTEX
8
FILL
10
71.487179
20
134.461538
30
0.0
0
VERTEX
8
FILL
10
71.589744
20
134.461538
30
0.0
0
VERTEX
8
FILL
10
71.692308
20
134.358974
30
0.0
0
VERTEX
8
FILL
10
71.794872
20
134.358974
30
0.0
0
VERTEX
8
FILL
10
72.000000
20
134.153846
30
0.0
0
VERTEX
8
FILL
10
71.794872
20
133.948718
30
0.0
0
VERTEX
8
FILL
10
71.692308
20
134.051282
30
0.0
0
VERTEX
8
FILL
10
71.589744
20
134.051282
30
0.0
0
VERTEX
8
FILL
10
71.487179
20
134.153846
30
0.0
0
VERTEX
8
FILL
10
71.384615
20
134.153846
30
0.0
0
SEQEND
8
FILL
0
POLYLINE
8
FILL
66
1
70
1
0
VERTEX
8
FILL
10
28.512821
20
134.564103
30
0.0
0
VERTEX
8
FILL
10
28.717949
20
134.358974
30
0.0
0
VERTEX
8
FILL
10
28.512821
20
134.153846
30
0.0
0
VERTEX
8
FILL
10
28.410256
20
134.153846
30
0.0
0
VERTEX
8
FILL
10
28.307692
20
134.051282
30
0.0
0
VERTEX
8
FILL
10
28.102564
20
134.256410
30
0.0
0
VERTEX
8
FILL
10
28.307692
20
134.461538
30
0.0
0
VERTEX
8
FILL
10
28.410256
20
134.461538
30
0.0
0
SEQEND
8
FILL
0
POLYLINE
8
FILL
66
1
70
1
0
VERTEX
8
FILL
10
70.666667
20
134.666667
30
0.0
0
VERTEX
8
FILL
10
70.871795
20
134.871795
30
0.0
0
VERTEX
8
FILL
10
70.974359
20
134.769231
30
0.0
0
VERTEX
8
FILL
10
71.076923
20
134.769231
30
0.0
0
VERTEX
8
FILL
10
71.282051
20
134.564103
30
0.0
0
VERTEX
8
FILL
10
71.076923
20
134.358974
30
0.0
0
VERTEX
8
FILL
10
70.974359
20
134.461538
30
0.0
0
VERTEX
8
FILL
10
70.871795
20
134.461538
30
0.0
0
SEQEND
8
FILL
0
POLYLINE
8
FILL
66
1
70
1
0
VERTEX
8
FILL
10
69.948718
20
135.076923
30
0.0
0
VERTEX
8
FILL
10
70.153846
20
135.282051
30
0.0
0
VERTEX
8
FILL
10
70.256410
20
135.179487
30
0.0
0
VERTEX
8
FILL
10
70.358974
20
135.179487
30
0.0
0
VERTEX
8
FILL
10
70.564103
20
134.974359
30
0.0
0
VERTEX
8
FILL
10
70.358974
20
134.769231
30
0.0
0
VERTEX
8
FILL
10
70.256410
20
134.871795
30
0.0
0
VERTEX
8
FILL
10
70.153846
20
134.871795
30
0.0
0
SEQEND
8
FILL
0
POLYLINE
8
FILL
66
1
70
1
0
VERTEX
8
FILL
10
31.179487
20
136.102564
30
0.0
0
VERTEX
8
FILL
10
31.384615
20
135.897436
30
0.0
0
VERTEX
8
FILL
10
31.179487
20
135.692308
30
0.0
0
VERTEX
8
FILL
10
31.076923
20
135.692308
30
0.0
0
VERTEX
8
FILL
10
30.871795
20
135.487179
30
0.0
0
VERTEX
8
FILL
10
30.769231
20
135.487179
30
0.0
0
VERTEX
8
FILL
10
30.666667
20
135.384615
30
0.0
0
VERTEX
8
FILL
10
30.461538
20
135.589744
30
0.0
0
VERTEX
8
FILL
10
30.769231
20
135.897436
30
0.0
0
VERTEX
8
FILL
10
30.871795
20
135.897436
30
0.0
0
VERTEX
8
FILL
10
30.974359
20
136.000000
30
0.0
0
VERTEX
8
FILL
10
31.076923
20
136.000000
30
0.0
0
SEQEND
8
FILL
0
POLYLINE
8
FILL
66
1
70
1
0
VERTEX
8
FILL
10
31.692308
20
136.410256
30
0.0
0
VERTEX
8
FILL
10
31.897436
20
136.205128
30
0.0
0
VERTEX
8
FILL
10
31.692308
20
136.000000
30
0.0
0
VERTEX
8
FILL
10
31.589744
20
136.000000
30
0.0
0
VERTEX
8
FILL
10
31.487179
20
135.897436
30
0.0
0
VERTEX
8
FILL
10
31.282051
20
136.102564
30
0.0
0
VERTEX
8
FILL
10
31.487179
20
136.307692
30
0.0
0
VERTEX
8
FILL
10
31.589744
20
136.307692
30
0.0
0
SEQEND
8
FILL
0
POLYLINE
8
FILL
66
1
70
1
0
VERTEX
8
FILL
10
32.410256
20
136.820513
30
0.0
0
VERTEX
8
FILL
10
32.615385
20
136.615385
30
0.0
0
VERTEX
8
FILL
10
32.410256
20
136.410256
30
0.0
0
VERTEX
8
FILL
10
32.307692
20
136.410256
30
0.0
0
VERTEX
8
FILL
10
32.205128
20
136.307692
30
0.0
0
VERTEX
8
FILL
10
32.000000
20
136.512821
30
0.0
0
VERTEX
8
FILL
10
32.205128
20
136.717949
30
0.0
0
VERTEX
8
FILL
10
32.307692
20
136.717949
30
0.0
0
SEQEND
8
FILL
0
POLYLINE
8
FILL
66
1
70
1
0
VERTEX
8
FILL
10
67.179487
20
136.717949
30
0.0
0
VERTEX
8
FILL
10
67.384615
20
136.923077
30
0.0
0
VERTEX
8
FILL
10
67.589744
20
136.717949
30
0.0
0
VERTEX
8
FILL
10
67.692308
20
136.717949
30
0.0
0
VERTEX
8
FILL
10
67.794872
20
136.615385
30
0.0
0
VERTEX
8
FILL
10
67.897436
20
136.615385
30
0.0
0
VERTEX
8
FILL
10
68.000000
20
136.512821
30
0.0
0
VERTEX
8
FILL
10
68.102564
20
136.512821
30
0.0
0
VERTEX
8
FILL
10
68.307692
20
136.307692
30
0.0
0
VERTEX
8
FILL
10
68.410256
20
136.307692
30
0.0
0
VERTEX
8
FILL
10
68.512821
20
136.205128
30
0.0
0
VERTEX
8
FILL
10
68.615385
20
136.205128
30
0.0
0
VERTEX
8
FILL
10
68.820513
20
136.000000
30
0.0
0
VERTEX
8
FILL
10
68.923077
20
136.000000
30
0.0
0
VERTEX
8
FILL
10
69.025641
20
135.897436
30
0.0
0
VERTEX
8
FILL
10
69.128205
20
135.897436
30
0.0
0
VERTEX
8
FILL
10
69.333333
20
135.692308
30
0.0
0
VERTEX
8
FILL
10
69.128205
20
135.487179
30
0.0
0
VERTEX
8
FILL
10
69.025641
20
135.487179
30
0.0
0
VERTEX
8
FILL
10
68.820513
20
135.692308
30
0.0
0
VERTEX
8
FILL
10
68.717949
20
135.692308
30
0.0
0
VERTEX
8
FILL
10
68.615385
20
135.794872
30
0.0
0
VERTEX
8
FILL
10
68.512821
20
135.794872
30
0.0
0
VERTEX
8
FILL
10
68.307692
20
136.000000
30
0.0
0
VERTEX
8
FILL
10
68.205128
20
136.000000
30
0.0
0
VERTEX
8
FILL
10
68.102564
20
136.102564
30
0.0
0
VERTEX
8
FILL
10
68.000000
20
136.102564
30
0.0
0
VERTEX
8
FILL
10
67.897436
20
136.205128
30
0.0
0
VERTEX
8
FILL
10
67.794872
20
136.205128
30
0.0
0
VERTEX
8
FILL
10
67.692308
20
136.307692
30
0.0
0
VERTEX
8
FILL
10
67.589744
20
136.307692
30
0.0
0
SEQEND
8
FILL
0
POLYLINE
8
FILL
66
1
70
1
0
VERTEX
8
FILL
10
33.128205
20
137.230769
30
0.0
0
VERTEX
8
FILL
10
33.333333
20
137.025641
30
0.0
0
VERTEX
8
FILL
10
33.128205
20
136.820513
30
0.0
0
VERTEX
8
FILL
10
33.025641
20
136.820513
30
0.0
0
VERTEX
8
FILL
10
32.923077
20
136.717949
30
0.0
0
VERTEX
8
FILL
10
32.820513
20
136.717949
30
0.0
0
VERTEX
8
FILL
10
32.717949
20
136.615385
30
0.0
0
VERTEX
8
FILL
10
32.512821
20
136.820513
30
0.0
0
VERTEX
8
FILL
10
32.717949
20
137.025641
30
0.0
0
VERTEX
8
FILL
10
32.820513
20
137.025641
30
0.0
0
VERTEX
8
FILL
10
32.923077
20
137.128205
30
0.0
0
VERTEX
8
FILL
10
33.025641
20
137.128205
30
0.0
0
SEQEND
8
FILL
0
POLYLINE
8
FILL
66
1
70
1
0
VERTEX
8
FILL
10
35.487179
20
138.256410
30
0.0
0
VERTEX
8
FILL
10
35.282051
20
138.051282
30
0.0
0
VERTEX
8
FILL
10
35.179487
20
138.051282
30
0.0
0
VERTEX
8
FILL
10
35.076923
20
137.948718
30
0.0
0
VERTEX
8
FILL
10
34.974359
20
137.948718
30
0.0
0
VERTEX
8
FILL
10
34.769231
20
137.743590
30
0.0
0
VERTEX
8
FILL
10
34.666667
20
137.743590
30
0.0
0
VERTEX
8
FILL
10
34.564103
20
137.641026
30
0.0
0
VERTEX
8
FILL
10
34.461538
20
137.641026
30
0.0
0
VERTEX
8
FILL
10
34.358974
20
137.538462
30
0.0
0
VERTEX
8
FILL
10
34.256410
20
137.538462
30
0.0
0
VERTEX
8
FILL
10
34.051282
20
137.333333
30
0.0
0
VERTEX
8
FILL
10
33.948718
20
137.333333
30
0.0
0
VERTEX
8
FILL
10
33.846154
20
137.230769
30
0.0
0
VERTEX
8
FILL
10
33.743590
20
137.230769
30
0.0
0
VERTEX
8
FILL
10
33.641026
20
137.128205
30
0.0
0
VERTEX
8
FILL
10
33.538462
20
137.128205
30
0.0
0
VERTEX
8
FILL
10
33.435897
20
137.025641
30
0.0
0
VERTEX
8
FILL
10
33.230769
20
137.230769
30
0.0
0
VERTEX
8
FILL
10
33.435897
20
137.435897
30
0.0
0
VERTEX
8
FILL
10
33.538462
20
137.435897
30
0.0
0
VERTEX
8
FILL
10
33.641026
20
137.538462
30
0.0
0
VERTEX
8
FILL
10
33.743590
20
137.538462
30
0.0
0
VERTEX
8
FILL
10
33.948718
20
137.743590
30
0.0
0
VERTEX
8
FILL
10
34.051282
20
137.743590
30
0.0
0
VERTEX
8
FILL
10
34.153846
20
137.846154
30
0.0
0
VERTEX
8
FILL
10
34.256410
20
137.846154
30
0.0
0
VERTEX
8
FILL
10
34.358974
20
137.948718
30
0.0
0
VERTEX
8
FILL
10
34.461538
20
137.948718
30
0.0
0
VERTEX
8
FILL
10
34.666667
20
138.153846
30
0.0
0
VERTEX
8
FILL
10
34.769231
20
138.153846
30
0.0
0
VERTEX
8
FILL
10
34.871795
20
138.256410
30
0.0
0
VERTEX
8
FILL
10
34.974359
20
138.256410
30
0.0
0
VERTEX
8
FILL
10
35.076923
20
138.358974
30
0.0
0
VERTEX
8
FILL
10
35.179487
20
138.358974
30
0.0
0
VERTEX
8
FILL
10
35.282051
20
138.461538
30
0.0
0
SEQEND
8
FILL
0
POLYLINE
8
FILL
66
1
70
1
0
VERTEX
8
FILL
10
35.794872
20
138.769231
30
0.0
0
VERTEX
8
FILL
10
36.000000
20
138.564103
30
0.0
0
VERTEX
8
FILL
10
35.794872
20
138.358974
30
0.0
0
VERTEX
8
FILL
10
35.692308
20
138.358974
30
0.0
0
VERTEX
8
FILL
10
35.589744
20
138.256410
30
0.0
0
VERTEX
8
FILL
10
35.384615
20
138.461538
30
0.0
0
VERTEX
8
FILL
10
35.589744
20
138.666667
30
0.0
0
VERTEX
8
FILL
10
35.692308
20
138.666667
30
0.0
0
SEQEND
8
FILL
0
POLYLINE
8
FILL
66
1
70
1
0
VERTEX
8
FILL
10
36.512821
20
139.179487
30
0.0
0
VERTEX
8
FILL
10
36.717949
20
138.974359
30
0.0
0
VERTEX
8
FILL
10
36.512821
20
138.769231
30
0.0
0
VERTEX
8
FILL
10
36.410256
20
138.769231
30
0.0
0
VERTEX
8
FILL
10
36.307692
20
138.666667
30
0.0
0
VERTEX
8
FILL
10
36.205128
20
138.666667
30
0.0
0
VERTEX
8
FILL
10
36.102564
20
138.564103
30
0.0
0
VERTEX
8
FILL
10
35.897436
20
138.769231
30
0.0
0
VERTEX
8
FILL
10
36.102564
20
138.974359
30
0.0
0
VERTEX
8
FILL
10
36.205128
20
138.974359
30
0.0
0
VERTEX
8
FILL
10
36.307692
20
139.076923
30
0.0
0
VERTEX
8
FILL
10
36.410256
20
139.076923
30
0.0
0
SEQEND
8
FILL
0
POLYLINE
8
FILL
66
1
70
1
0
VERTEX
8
FILL
10
37.230769
20
139.589744
30
0.0
0
VERTEX
8
FILL
10
37.435897
20
139.384615
30
0.0
0
VERTEX
8
FILL
10
37.230769
20
139.179487
30
0.0
0
VERTEX
8
FILL
10
37.128205
20
139.179487
30
0.0
0
VERTEX
8
FILL
10
37.025641
20
139.076923
30
0.0
0
VERTEX
8
FILL
10
36.923077
20
139.076923
30
0.0
0
VERTEX
8
FILL
10
36.820513
20
138.974359
30
0.0
0
VERTEX
8
FILL
10
36.615385
20
139.179487
30
0.0
0
VERTEX
8
FILL
10
36.820513
20
139.384615
30
0.0
0
VERTEX
8
FILL
10
36.923077
20
139.384615
30
0.0
0
VERTEX
8
FILL
10
37.025641
20
139.487179
30
0.0
0
VERTEX
8
FILL
10
37.128205
20
139.487179
30
0.0
0
SEQEND
8
FILL
0
POLYLINE
8
FILL
66
1
70
1
0
VERTEX
8
FILL
10
37.743590
20
139.897436
30
0.0
0
VERTEX
8
FILL
10
37.948718
20
139.692308
30
0.0
0
VERTEX
8
FILL
10
37.743590
20
139.487179
30
0.0
0
VERTEX
8
FILL
10
37.641026
20
139.487179
30
0.0
0
VERTEX
8
FILL
10
37.538462
20
139.384615
30
0.0
0
VERTEX
8
FILL
10
37.333333
20
139.589744
30
0.0
0
VERTEX
8
FILL
10
37.538462
20
139.794872
30
0.0
0
VERTEX
8
FILL
10
37.641026
20
139.794872
30
0.0
0
SEQEND
8
FILL
0
POLYLINE
8
FILL
66
1
70
1
0
VERTEX
8
FILL
10
38.461538
20
140.307692
30
0.0
0
VERTEX
8
FILL
10
38.666667
20
140.102564
30
0.0
0
VERTEX
8
FILL
10
38.461538
20
139.897436
30
0.0
0
VERTEX
8
FILL
10
38.358974
20
139.897436
30
0.0
0
VERTEX
8
FILL
10
38.256410
20
139.794872
30
0.0
0
VERTEX
8
FILL
10
38.051282
20
140.000000
30
0.0
0
VERTEX
8
FILL
10
38.256410
20
140.205128
30
0.0
0
VERTEX
8
FILL
10
38.358974
20
140.205128
30
0.0
0
SEQEND
8
FILL
0
POLYLINE
8
FILL
66
1
70
1
0
VERTEX
8
FILL
10
39.692308
20
141.025641
30
0.0
0
VERTEX
8
FILL
10
39.897436
20
140.820513
30
0.0
0
VERTEX
8
FILL
10
39.692308
20
140.615385
30
0.0
0
VERTEX
8
FILL
10
39.589744
20
140.615385
30
0.0
0
VERTEX
8
FILL
10
39.487179
20
140.512821
30
0.0
0
VERTEX
8
FILL
10
39.282051
20
140.717949
30
0.0
0
VERTEX
8
FILL
10
39.487179
20
140.923077
30
0.0
0
VERTEX
8
FILL
10
39.589744
20
140.923077
30
0.0
0
SEQEND
8
FILL
0
POLYLINE
8
FILL
66
1
70
1
0
VERTEX
8
FILL
10
59.794872
20
140.923077
30
0.0
0
VERTEX
8
FILL
10
60.000000
20
141.128205
30
0.0
0
VERTEX
8
FILL
10
60.102564
20
141.025641
30
0.0
0
VERTEX
8
FILL
10
60.205128
20
141.025641
30
0.0
0
VERTEX
8
FILL
10
60.307692
20
140.923077
30
0.0
0
VERTEX
8
FILL
10
60.410256
20
140.923077
30
0.0
0
VERTEX
8
FILL
10
60.512821
20
140.820513
30
0.0
0
VERTEX
8
FILL
10
60.615385
20
140.820513
30
0.0
0
VERTEX
8
FILL
10
60.820513
20
140.615385
30
0.0
0
VERTEX
8
FILL
10
60.923077
20
140.615385
30
0.0
0
VERTEX
8
FILL
10
61.025641
20
140.512821
30
0.0
0
VERTEX
8
FILL
10
61.128205
20
140.512821
30
0.0
0
VERTEX
8
FILL
10
61.230769
20
140.410256
30
0.0
0
VERTEX
8
FILL
10
61.333333
20
140.410256
30
0.0
0
VERTEX
8
FILL
10
61.641026
20
140.102564
30
0.0
0
VERTEX
8
FILL
10
61.435897
20
139.897436
30
0.0
0
VERTEX
8
FILL
10
61.333333
20
140.000000
30
0.0
0
VERTEX
8
FILL
10
61.230769
20
140.000000
30
0.0
0
VERTEX
8
FILL
10
61.025641
20
140.205128
30
0.0
0
VERTEX
8
FILL
10
60.923077
20
140.205128
30
0.0
0
VERTEX
8
FILL
10
60.820513
20
140.307692
30
0.0
0
VERTEX
8
FILL
10
60.717949
20
140.307692
30
0.0
0
VERTEX
8
FILL
10
60.615385
20
140.410256
30
0.0
0
VERTEX
8
FILL
10
60.512821
20
140.410256
30
0.0
0
VERTEX
8
FILL
10
60.307692
20
140.615385
30
0.0
0
VERTEX
8
FILL
10
60.205128
20
140.615385
30
0.0
0
VERTEX
8
FILL
10
60.102564
20
140.717949
30
0.0
0
VERTEX
8
FILL
10
60.000000
20
140.717949
30
0.0
0
SEQEND
8
FILL
0
POLYLINE
8
FILL
66
1
70
1
0
VERTEX
8
FILL
10
40.410256
20
141.435897
30
0.0
0
VERTEX
8
FILL
10
40.615385
20
141.230769
30
0.0
0
VERTEX
8
FILL
10
40.410256
20
141.025641
30
0.0
0
VERTEX
8
FILL
10
40.307692
20
141.025641
30
0.0
0
VERTEX
8
FILL
10
40.205128
20
140.923077
30
0.0
0
VERTEX
8
FILL
10
40.000000
20
141.128205
30
0.0
0
VERTEX
8
FILL
10
40.205128
20
141.333333
30
0.0
0
VERTEX
8
FILL
10
40.307692
20
141.333333
30
0.0
0
SEQEND
8
FILL
0
POLYLINE
8
FILL
66
1
70
1
0
VERTEX
8
FILL
10
41.128205
20
141.846154
30
0.0
0
VERTEX
8
FILL
10
41.333333
20
141.641026
30
0.0
0
VERTEX
8
FILL
10
41.128205
20
141.435897
30
0.0
0
VERTEX
8
FILL
10
41.025641
20
141.435897
30
0.0
0
VERTEX
8
FILL
10
40.923077
20
141.333333
30
0.0
0
VERTEX
8
FILL
10
40.717949
20
141.538462
30
0.0
0
VERTEX
8
FILL
10
40.923077
20
141.743590
30
0.0
0
VERTEX
8
FILL
10
41.025641
20
141.743590
30
0.0
0
SEQEND
8
FILL
0
POLYLINE
8
FILL
66
1
70
1
0
VERTEX
8
FILL
10
41.846154
20
142.256410
30
0.0
0
VERTEX
8
FILL
10
42.051282
20
142.051282
30
0.0
0
VERTEX
8
FILL
10
41.846154
20
141.846154
30
0.0
0
VERTEX
8
FILL
10
41.743590
20
141.846154
30
0.0
0
VERTEX
8
FILL
10
41.641026
20
141.743590
30
0.0
0
VERTEX
8
FILL
10
41.538462
20
141.743590
30
0.0
0
VERTEX
8
FILL
10
41.435897
20
141.641026
30
0.0
0
VERTEX
8
FILL
10
41.230769
20
141.846154
30
0.0
0
VERTEX
8
FILL
10
41.435897
20
142.051282
30
0.0
0
VERTEX
8
FILL
10
41.538462
20
142.051282
30
0.0
0
VERTEX
8
FILL
10
41.641026
20
142.153846
30
0.0
0
VERTEX
8
FILL
10
41.743590
20
142.153846
30
0.0
0
SEQEND
8
FILL
0
POLYLINE
8
FILL
66
1
70
1
0
VERTEX
8
FILL
10
57.333333
20
142.358974
30
0.0
0
VERTEX
8
FILL
10
57.538462
20
142.564103
30
0.0
0
VERTEX
8
FILL
10
57.641026
20
142.461538
30
0.0
0
VERTEX
8
FILL
10
57.743590
20
142.461538
30
0.0
0
VERTEX
8
FILL
10
57.846154
20
142.358974
30
0.0
0
VERTEX
8
FILL
10
57.948718
20
142.358974
30
0.0
0
VERTEX
8
FILL
10
58.153846
20
142.153846
30
0.0
0
VERTEX
8
FILL
10
58.256410
20
142.153846
30
0.0
0
VERTEX
8
FILL
10
58.358974
20
142.051282
30
0.0
0
VERTEX
8
FILL
10
58.461538
20
142.051282
30
0.0
0
VERTEX
8
FILL
10
58.564103
20
141.948718
30
0.0
0
VERTEX
8
FILL
10
58.666667
20
141.948718
30
0.0
0
VERTEX
8
FILL
10
58.871795
20
141.743590
30
0.0
0
VERTEX
8
FILL
10
58.974359
20
141.743590
30
0.0
0
VERTEX
8
FILL
10
59.076923
20
141.641026
30
0.0
0
VERTEX
8
FILL
10
59.179487
20
141.641026
30
0.0
0
VERTEX
8
FILL
10
59.384615
20
141.435897
30
0.0
0
VERTEX
8
FILL
10
59.487179
20
141.435897
30
0.0
0
VERTEX
8
FILL
10
59.589744
20
141.333333
30
0.0
0
VERTEX
8
FILL
10
59.692308
20
141.333333
30
0.0
0
VERTEX
8
FILL
10
59.897436
20
141.128205
30
0.0
0
VERTEX
8
FILL
10
59.692308
20
140.923077
30
0.0
0
VERTEX
8
FILL
10
59.589744
20
141.025641
30
0.0
0
VERTEX
8
FILL
10
59.487179
20
141.025641
30
0.0
0
VERTEX
8
FILL
10
59.384615
20
141.128205
30
0.0
0
VERTEX
8
FILL
10
59.282051
20
141.128205
30
0.0
0
VERTEX
8
FILL
10
59.076923
20
141.333333
30
0.0
0
VERTEX
8
FILL
10
58.974359
20
141.333333
30
0.0
0
VERTEX
8
FILL
10
58.871795
20
141.435897
30
0.0
0
VERTEX
8
FILL
10
58.769231
20
141.435897
30
0.0
0
VERTEX
8
FILL
10
58.666667
20
141.538462
30
0.0
0
VERTEX
8
FILL
10
58.564103
20
141.538462
30
0.0
0
VERTEX
8
FILL
10
58.358974
20
141.743590
30
0.0
0
VERTEX
8
FILL
10
58.256410
20
141.743590
30
0.0
0
VERTEX
8
FILL
10
58.153846
20
141.846154
30
0.0
0
VERTEX
8
FILL
10
58.051282
20
141.846154
30
0.0
0
VERTEX
8
FILL
10
57.846154
20
142.051282
30
0.0
0
VERTEX
8
FILL
10
57.743590
20
142.051282
30
0.0
0
VERTEX
8
FILL
10
57.641026
20
142.153846
30
0.0
0
VERTEX
8
FILL
10
57.538462
20
142.153846
30
0.0
0
SEQEND
8
FILL
0
POLYLINE
8
FILL
66
1
70
1
0
VERTEX
8
FILL
10
42.358974
20
142.564103
30
0.0
0
VERTEX
8
FILL
10
42.564103
20
142.358974
30
0.0
0
VERTEX
8
FILL
10
42.358974
20
142.153846
30
0.0
0
VERTEX
8
FILL
10
42.256410
20
142.153846
30
0.0
0
VERTEX
8
FILL
10
42.153846
20
142.051282
30
0.0
0
VERTEX
8
FILL
10
41.948718
20
142.256410
30
0.0
0
VERTEX
8
FILL
10
42.153846
20
142.461538
30
0.0
0
VERTEX
8
FILL
10
42.256410
20
142.461538
30
0.0
0
SEQEND
8
FILL
0
POLYLINE
8
FILL
66
1
70
1
0
VERTEX
8
FILL
10
56.615385
20
142.769231
30
0.0
0
VERTEX
8
FILL
10
56.820513
20
142.974359
30
0.0
0
VERTEX
8
FILL
10
56.923077
20
142.871795
30
0.0
0
VERTEX
8
FILL
10
57.025641
20
142.871795
30
0.0
0
VERTEX
8
FILL
10
57.128205
20
142.769231
30
0.0
0
VERTEX
8
FILL
10
57.230769
20
142.769231
30
0.0
0
VERTEX
8
FILL
10
57.435897
20
142.564103
30
0.0
0
VERTEX
8
FILL
10
57.230769
20
142.358974
30
0.0
0
VERTEX
8
FILL
10
57.128205
20
142.461538
30
0.0
0
VERTEX
8
FILL
10
57.025641
20
142.461538
30
0.0
0
VERTEX
8
FILL
10
56.923077
20
142.564103
30
0.0
0
VERTEX
8
FILL
10
56.820513
20
142.564103
30
0.0
0
SEQEND
8
FILL
0
POLYLINE
8
FILL
66
1
70
1
0
VERTEX
8
FILL
10
44.000000
20
143.179487
30
0.0
0
VERTEX
8
FILL
10
43.794872
20
142.974359
30
0.0
0
VERTEX
8
FILL
10
43.692308
20
142.974359
30
0.0
0
VERTEX
8
FILL
10
43.589744
20
142.871795
30
0.0
0
VERTEX
8
FILL
10
43.487179
20
142.871795
30
0.0
0
VERTEX
8
FILL
10
43.282051
20
142.666667
30
0.0
0
VERTEX
8
FILL
10
43.179487
20
142.666667
30
0.0
0
VERTEX
8
FILL
10
43.076923
20
142.564103
30
0.0
0
VERTEX
8
FILL
10
42.974359
20
142.564103
30
0.0
0
VERTEX
8
FILL
10
42.871795
20
142.461538
30
0.0
0
VERTEX
8
FILL
10
42.666667
20
142.666667
30
0.0
0
VERTEX
8
FILL
10
42.871795
20
142.871795
30
0.0
0
VERTEX
8
FILL
10
42.974359
20
142.871795
30
0.0
0
VERTEX
8
FILL
10
43.076923
20
142.974359
30
0.0
0
VERTEX
8
FILL
10
43.179487
20
142.974359
30
0.0
0
VERTEX
8
FILL
10
43.384615
20
143.179487
30
0.0
0
VERTEX
8
FILL
10
43.487179
20
143.179487
30
0.0
0
VERTEX
8
FILL
10
43.589744
20
143.282051
30
0.0
0
VERTEX
8
FILL
10
43.692308
20
143.282051
30
0.0
0
VERTEX
8
FILL
10
43.794872
20
143.384615
30
0.0
0
SEQEND
8
FILL
0
POLYLINE
8
FILL
66
1
70
1
0
VERTEX
8
FILL
10
55.384615
20
143.487179
30
0.0
0
VERTEX
8
FILL
10
55.589744
20
143.692308
30
0.0
0
VERTEX
8
FILL
10
55.692308
20
143.589744
30
0.0
0
VERTEX
8
FILL
10
55.794872
20
143.589744
30
0.0
0
VERTEX
8
FILL
10
55.897436
20
143.487179
30
0.0
0
VERTEX
8
FILL
10
56.000000
20
143.487179
30
0.0
0
VERTEX
8
FILL
10
56.205128
20
143.282051
30
0.0
0
VERTEX
8
FILL
10
56.307692
20
143.282051
30
0.0
0
VERTEX
8
FILL
10
56.410256
20
143.179487
30
0.0
0
VERTEX
8
FILL
10
56.512821
20
143.179487
30
0.0
0
VERTEX
8
FILL
10
56.717949
20
142.974359
30
0.0
0
VERTEX
8
FILL
10
56.512821
20
142.769231
30
0.0
0
VERTEX
8
FILL
10
56.410256
20
142.871795
30
0.0
0
VERTEX
8
FILL
10
56.307692
20
142.871795
30
0.0
0
VERTEX
8
FILL
10
56.205128
20
142.974359
30
0.0
0
VERTEX
8
FILL
10
56.102564
20
142.974359
30
0.0
0
VERTEX
8
FILL
10
55.897436
20
143.179487
30
0.0
0
VERTEX
8
FILL
10
55.794872
20
143.179487
30
0.0
0
VERTEX
8
FILL
10
55.692308
20
143.282051
30
0.0
0
VERTEX
8
FILL
10
55.589744
20
143.282051
30
0.0
0
SEQEND
8
FILL
0
POLYLINE
8
FILL
66
1
70
1
0
VERTEX
8
FILL
10
44.512821
20
143.794872
30
0.0
0
VERTEX
8
FILL
10
44.717949
20
143.589744
30
0.0
0
VERTEX
8
FILL
10
44.512821
20
143.384615
30
0.0
0
VERTEX
8
FILL
10
44.410256
20
143.384615
30
0.0
0
VERTEX
8
FILL
10
44.307692
20
143.282051
30
0.0
0
VERTEX
8
FILL
10
44.205128
20
143.282051
30
0.0
0
VERTEX
8
FILL
10
44.102564
20
143.179487
30
0.0
0
VERTEX
8
FILL
10
43.897436
20
143.384615
30
0.0
0
VERTEX
8
FILL
10
44.102564
20
143.589744
30
0.0
0
VERTEX
8
FILL
10
44.205128
20
143.589744
30
0.0
0
VERTEX
8
FILL
10
44.307692
20
143.692308
30
0.0
0
VERTEX
8
FILL
10
44.410256
20
143.692308
30
0.0
0
SEQEND
8
FILL
0
POLYLINE
8
FILL
66
1
70
1
0
VERTEX
8
FILL
10
53.948718
20
144.307692
30
0.0
0
VERTEX
8
FILL
10
54.153846
20
144.512821
30
0.0
0
VERTEX
8
FILL
10
54.256410
20
144.410256
30
0.0
0
VERTEX
8
FILL
10
54.358974
20
144.410256
30
0.0
0
VERTEX
8
FILL
10
54.564103
20
144.205128
30
0.0
0
VERTEX
8
FILL
10
54.358974
20
144.000000
30
0.0
0
VERTEX
8
FILL
10
54.256410
20
144.102564
30
0.0
0
VERTEX
8
FILL
10
54.153846
20
144.102564
30
0.0
0
SEQEND
8
FILL
0
POLYLINE
8
FILL
66
1
70
1
0
VERTEX
8
FILL
10
53.230769
20
144.717949
30
0.0
0
VERTEX
8
FILL
10
53.435897
20
144.923077
30
0.0
0
VERTEX
8
FILL
10
53.538462
20
144.820513
30
0.0
0
VERTEX
8
FILL
10
53.641026
20
144.820513
30
0.0
0
VERTEX
8
FILL
10
53.743590
20
144.717949
30
0.0
0
VERTEX
8
FILL
10
53.846154
20
144.717949
30
0.0
0
VERTEX
8
FILL
10
54.051282
20
144.512821
30
0.0
0
VERTEX
8
FILL
10
53.846154
20
144.307692
30
0.0
0
VERTEX
8
FILL
10
53.743590
20
144.410256
30
0.0
0
VERTEX
8
FILL
10
53.641026
20
144.410256
30
0.0
0
VERTEX
8
FILL
10
53.538462
20
144.512821
30
0.0
0
VERTEX
8
FILL
10
53.435897
20
144.512821
30
0.0
0
SEQEND
8
FILL
0
POLYLINE
8
FILL
66
1
70
1
0
VERTEX
8
FILL
10
46.666667
20
144.717949
30
0.0
0
VERTEX
8
FILL
10
46.461538
20
144.512821
30
0.0
0
VERTEX
8
FILL
10
46.358974
20
144.512821
30
0.0
0
VERTEX
8
FILL
10
46.256410
20
144.410256
30
0.0
0
VERTEX
8
FILL
10
46.153846
20
144.410256
30
0.0
0
VERTEX
8
FILL
10
45.948718
20
144.205128
30
0.0
0
VERTEX
8
FILL
10
45.846154
20
144.205128
30
0.0
0
VERTEX
8
FILL
10
45.743590
20
144.102564
30
0.0
0
VERTEX
8
FILL
10
45.641026
20
144.102564
30
0.0
0
VERTEX
8
FILL
10
45.538462
20
144.000000
30
0.0
0
VERTEX
8
FILL
10
45.435897
20
144.000000
30
0.0
0
VERTEX
8
FILL
10
45.230769
20
143.794872
30
0.0
0
VERTEX
8
FILL
10
45.128205
20
143.794872
30
0.0
0
VERTEX
8
FILL
10
45.025641
20
143.692308
30
0.0
0
VERTEX
8
FILL
10
44.923077
20
143.692308
30
0.0
0
VERTEX
8
FILL
10
44.820513
20
143.589744
30
0.0
0
VERTEX
8
FILL
10
44.615385
20
143.794872
30
0.0
0
VERTEX
8
FILL
10
44.820513
20
144.000000
30
0.0
0
VERTEX
8
FILL
10
44.923077
20
144.000000
30
0.0
0
VERTEX
8
FILL
10
45.025641
20
144.102564
30
0.0
0
VERTEX
8
FILL
10
45.128205
20
144.102564
30
0.0
0
VERTEX
8
FILL
10
45.333333
20
144.307692
30
0.0
0
VERTEX
8
FILL
10
45.435897
20
144.307692
30
0.0
0
VERTEX
8
FILL
10
45.538462
20
144.410256
30
0.0
0
VERTEX
8
FILL
10
45.641026
20
144.410256
30
0.0
0
VERTEX
8
FILL
10
45.743590
20
144.512821
30
0.0
0
VERTEX
8
FILL
10
45.846154
20
144.512821
30
0.0
0
VERTEX
8
FILL
10
46.051282
20
144.717949
30
0.0
0
VERTEX
8
FILL
10
46.153846
20
144.717949
30
0.0
0
VERTEX
8
FILL
10
46.256410
20
144.820513
30
0.0
0
VERTEX
8
FILL
10
46.358974
20
144.820513
30
0.0
0
VERTEX
8
FILL
10
46.461538
20
144.923077
30
0.0
0
SEQEND
8
FILL
0
POLYLINE
8
FILL
66
1
70
1
0
VERTEX
8
FILL
10
52.717949
20
145.025641
30
0.0
0
VERTEX
8
FILL
10
52.923077
20
145.230769
30
0.0
0
VERTEX
8
FILL
10
53.025641
20
145.128205
30
0.0
0
VERTEX
8
FILL
10
53.128205
20
145.128205
30
0.0
0
VERTEX
8
FILL
10
53.333333
20
144.923077
30
0.0
0
VERTEX
8
FILL
10
53.128205
20
144.717949
30
0.0
0
VERTEX
8
FILL
10
53.025641
20
144.820513
30
0.0
0
VERTEX
8
FILL
10
52.923077
20
144.820513
30
0.0
0
SEQEND
8
FILL
0
POLYLINE
8
FILL
66
1
70
1
0
VERTEX
8
FILL
10
49.333333
20
145.230769
30
0.0
0
VERTEX
8
FILL
10
49.641026
20
108.102564
30
0.0
0
VERTEX
8
FILL
10
50.564103
20
145.230769
30
0.0
0
VERTEX
8
FILL
10
91.282051
20
121.641026
30
0.0
0
VERTEX
8
FILL
10
61.230769
20
107.692308
30
0.0
0
VERTEX
8
FILL
10
92.000000
20
120.717949
30
0.0
0
VERTEX
8
FILL
10
92.000000
20
33.435897
30
0.0
0
VERTEX
8
FILL
10
61.128205
20
46.461538
30
0.0
0
VERTEX
8
FILL
10
91.282051
20
32.512821
30
0.0
0
VERTEX
8
FILL
10
50.564103
20
8.923077
30
0.0
0
VERTEX
8
FILL
10
50.256410
20
45.230769
30
0.0
0
VERTEX
8
FILL
10
49.333333
20
8.923077
30
0.0
0
VERTEX
8
FILL
10
8.615385
20
32.512821
30
0.0
0
VERTEX
8
FILL
10
38.769231
20
46.461538
30
0.0
0
VERTEX
8
FILL
10
7.897436
20
33.435897
30
0.0
0
VERTEX
8
FILL
10
7.897436
20
120.717949
30
0.0
0
VERTEX
8
FILL
10
38.666667
20
107.692308
30
0.0
0
VERTEX
8
FILL
10
8.615385
20
121.641026
30
0.0
0
SEQEND
8
FILL
0
POLYLINE
8
FILL
66
1
70
1
0
VERTEX
8
FILL
10
56.820513
20
73.333333
30
0.0
0
VERTEX
8
FILL
10
56.717949
20
56.307692
30
0.0
0
VERTEX
8
FILL
10
63.897436
20
56.205128
30
0.0
0
VERTEX
8
FILL
10
63.897436
20
58.769231
30
0.0
0
VERTEX
8
FILL
10
59.384615
20
58.769231
30
0.0
0
VERTEX
8
FILL
10
59.179487
20
58.974359
30
0.0
0
VERTEX
8
FILL
10
59.179487
20
63.384615
30
0.0
0
VERTEX
8
FILL
10
59.384615
20
63.589744
30
0.0
0
VERTEX
8
FILL
10
62.666667
20
63.589744
30
0.0
0
VERTEX
8
FILL
10
62.564103
20
66.051282
30
0.0
0
VERTEX
8
FILL
10
59.384615
20
66.051282
30
0.0
0
VERTEX
8
FILL
10
59.179487
20
66.256410
30
0.0
0
VERTEX
8
FILL
10
59.179487
20
70.666667
30
0.0
0
VERTEX
8
FILL
10
59.384615
20
70.871795
30
0.0
0
VERTEX
8
FILL
10
63.897436
20
70.871795
30
0.0
0
VERTEX
8
FILL
10
64.000000
20
73.230769
30
0.0
0
SEQEND
8
FILL
0
POLYLINE
8
FILL
66
1
70
1
0
VERTEX
8
FILL
10
58.051282
20
72.512821
30
0.0
0
VERTEX
8
FILL
10
62.769231
20
72.512821
30
0.0
0
VERTEX
8
FILL
10
63.076923
20
72.205128
30
0.0
0
VERTEX
8
FILL
10
62.769231
20
71.692308
30
0.0
0
VERTEX
8
FILL
10
59.384615
20
71.589744
30
0.0
0
VERTEX
8
FILL
10
58.564103
20
70.974359
30
0.0
0
VERTEX
8
FILL
10
58.358974
20
70.461538
30
0.0
0
VERTEX
8
FILL
10
58.358974
20
66.461538
30
0.0
0
VERTEX
8
FILL
10
58.666667
20
65.743590
30
0.0
0
VERTEX
8
FILL
10
59.589744
20
65.230769
30
0.0
0
VERTEX
8
FILL
10
61.230769
20
65.230769
30
0.0
0
VERTEX
8
FILL
10
61.743590
20
64.923077
30
0.0
0
VERTEX
8
FILL
10
61.538462
20
64.410256
30
0.0
0
VERTEX
8
FILL
10
59.487179
20
64.307692
30
0.0
0
VERTEX
8
FILL
10
58.666667
20
63.794872
30
0.0
0
VERTEX
8
FILL
10
58.358974
20
62.974359
30
0.0
0
VERTEX
8
FILL
10
58.358974
20
59.179487
30
0.0
0
VERTEX
8
FILL
10
58.769231
20
58.358974
30
0.0
0
VERTEX
8
FILL
10
59.589744
20
57.948718
30
0.0
0
VERTEX
8
FILL
10
62.871795
20
57.846154
30
0.0
0
VERTEX
8
FILL
10
63.076923
20
57.435897
30
0.0
0
VERTEX
8
FILL
10
62.769231
20
57.128205
30
0.0
0
VERTEX
8
FILL
10
57.846154
20
57.128205
30
0.0
0
VERTEX
8
FILL
10
57.538462
20
57.538462
30
0.0
0
VERTEX
8
FILL
10
57.538462
20
72.000000
30
0.0
0
SEQEND
8
FILL
0
POLYLINE
8
FILL
66
1
70
1
0
VERTEX
8
FILL
10
25.538462
20
73.333333
30
0.0
0
VERTEX
8
FILL
10
25.435897
20
56.307692
30
0.0
0
VERTEX
8
FILL
10
27.897436
20
56.307692
30
0.0
0
VERTEX
8
FILL
10
27.897436
20
62.564103
30
0.0
0
VERTEX
8
FILL
10
28.102564
20
62.769231
30
0.0
0
VERTEX
8
FILL
10
29.641026
20
62.769231
30
0.0
0
VERTEX
8
FILL
10
31.282051
20
56.307692
30
0.0
0
VERTEX
8
FILL
10
33.948718
20
56.205128
30
0.0
0
VERTEX
8
FILL
10
32.102564
20
63.487179
30
0.0
0
VERTEX
8
FILL
10
33.025641
20
64.820513
30
0.0
0
VERTEX
8
FILL
10
33.435897
20
65.948718
30
0.0
0
VERTEX
8
FILL
10
33.435897
20
70.256410
30
0.0
0
VERTEX
8
FILL
10
33.230769
20
71.179487
30
0.0
0
VERTEX
8
FILL
10
32.205128
20
72.615385
30
0.0
0
VERTEX
8
FILL
10
30.871795
20
73.230769
30
0.0
0
SEQEND
8
FILL
0
POLYLINE
8
FILL
66
1
70
1
0
VERTEX
8
FILL
10
26.564103
20
72.410256
30
0.0
0
VERTEX
8
FILL
10
29.641026
20
72.512821
30
0.0
0
VERTEX
8
FILL
10
30.871795
20
72.307692
30
0.0
0
VERTEX
8
FILL
10
31.487179
20
72.000000
30
0.0
0
VERTEX
8
FILL
10
32.410256
20
70.769231
30
0.0
0
VERTEX
8
FILL
10
32.615385
20
69.846154
30
0.0
0
VERTEX
8
FILL
10
32.615385
20
66.461538
30
0.0
0
VERTEX
8
FILL
10
32.410256
20
65.641026
30
0.0
0
VERTEX
8
FILL
10
31.487179
20
64.102564
30
0.0
0
VERTEX
8
FILL
10
31.384615
20
62.974359
30
0.0
0
VERTEX
8
FILL
10
32.717949
20
57.948718
30
0.0
0
VERTEX
8
FILL
10
32.717949
20
57.333333
30
0.0
0
VERTEX
8
FILL
10
32.512821
20
57.128205
30
0.0
0
VERTEX
8
FILL
10
31.897436
20
57.435897
30
0.0
0
VERTEX
8
FILL
10
30.564103
20
62.666667
30
0.0
0
VERTEX
8
FILL
10
29.846154
20
63.384615
30
0.0
0
VERTEX
8
FILL
10
29.025641
20
63.589744
30
0.0
0
VERTEX
8
FILL
10
27.692308
20
63.282051
30
0.0
0
VERTEX
8
FILL
10
27.076923
20
62.461538
30
0.0
0
VERTEX
8
FILL
10
27.076923
20
57.641026
30
0.0
0
VERTEX
8
FILL
10
26.769231
20
57.230769
30
0.0
0
VERTEX
8
FILL
10
26.256410
20
57.538462
30
0.0
0
VERTEX
8
FILL
10
26.256410
20
72.102564
30
0.0
0
SEQEND
8
FILL
0
POLYLINE
8
FILL
66
1
70
1
0
VERTEX
8
FILL
10
28.205128
20
71.589744
30
0.0
0
VERTEX
8
FILL
10
28.102564
20
71.487179
30
0.0
0
VERTEX
8
FILL
10
27.692308
20
71.384615
30
0.0
0
VERTEX
8
FILL
10
27.384615
20
71.076923
30
0.0
0
VERTEX
8
FILL
10
27.076923
20
70.461538
30
0.0
0
VERTEX
8
FILL
10
27.076923
20
65.641026
30
0.0
0
VERTEX
8
FILL
10
27.179487
20
65.538462
30
0.0
0
VERTEX
8
FILL
10
27.179487
20
65.333333
30
0.0
0
VERTEX
8
FILL
10
27.384615
20
64.923077
30
0.0
0
VERTEX
8
FILL
10
27.897436
20
64.512821
30
0.0
0
VERTEX
8
FILL
10
28.102564
20
64.512821
30
0.0
0
VERTEX
8
FILL
10
28.205128
20
64.410256
30
0.0
0
VERTEX
8
FILL
10
30.051282
20
64.410256
30
0.0
0
VERTEX
8
FILL
10
30.153846
20
64.512821
30
0.0
0
VERTEX
8
FILL
10
30.358974
20
64.512821
30
0.0
0
VERTEX
8
FILL
10
30.769231
20
64.717949
30
0.0
0
VERTEX
8
FILL
10
31.487179
20
65.435897
30
0.0
0
VERTEX
8
FILL
10
31.794872
20
66.051282
30
0.0
0
VERTEX
8
FILL
10
31.794872
20
66.358974
30
0.0
0
VERTEX
8
FILL
10
31.897436
20
66.461538
30
0.0
0
VERTEX
8
FILL
10
31.897436
20
69.538462
30
0.0
0
VERTEX
8
FILL
10
31.794872
20
69.641026
30
0.0
0
VERTEX
8
FILL
10
31.794872
20
70.051282
30
0.0
0
VERTEX
8
FILL
10
31.487179
20
70.666667
30
0.0
0
VERTEX
8
FILL
10
30.871795
20
71.282051
30
0.0
0
VERTEX
8
FILL
10
30.666667
20
71.384615
30
0.0
0
VERTEX
8
FILL
10
30.461538
20
71.384615
30
0.0
0
VERTEX
8
FILL
10
30.051282
20
71.589744
30
0.0
0
VERTEX
8
FILL
10
29.230769
20
71.589744
30
0.0
0
VERTEX
8
FILL
10
29.128205
20
71.692308
30
0.0
0
VERTEX
8
FILL
10
28.923077
20
71.692308
30
0.0
0
VERTEX
8
FILL
10
28.820513
20
71.589744
30
0.0
0
SEQEND
8
FILL
0
POLYLINE
8
FILL
66
1
70
1
0
VERTEX
8
FILL
10
28.102564
20
70.769231
30
0.0
0
VERTEX
8
FILL
10
30.051282
20
70.769231
30
0.0
0
VERTEX
8
FILL
10
30.153846
20
70.666667
30
0.0
0
VERTEX
8
FILL
10
30.358974
20
70.666667
30
0.0
0
VERTEX
8
FILL
10
30.871795
20
70.153846
30
0.0
0
VERTEX
8
FILL
10
30.871795
20
70.051282
30
0.0
0
VERTEX
8
FILL
10
30.974359
20
69.948718
30
0.0
0
VERTEX
8
FILL
10
30.974359
20
69.743590
30
0.0
0
VERTEX
8
FILL
10
31.076923
20
69.641026
30
0.0
0
VERTEX
8
FILL
10
31.076923
20
66.461538
30
0.0
0
VERTEX
8
FILL
10
30.974359
20
66.358974
30
0.0
0
VERTEX
8
FILL
10
30.974359
20
66.153846
30
0.0
0
VERTEX
8
FILL
10
30.871795
20
66.051282
30
0.0
0
VERTEX
8
FILL
10
30.871795
20
65.948718
30
0.0
0
VERTEX
8
FILL
10
30.358974
20
65.435897
30
0.0
0
VERTEX
8
FILL
10
30.256410
20
65.435897
30
0.0
0
VERTEX
8
FILL
10
29.948718
20
65.230769
30
0.0
0
VERTEX
8
FILL
10
28.102564
20
65.230769
30
0.0
0
VERTEX
8
FILL
10
27.897436
20
65.435897
30
0.0
0
VERTEX
8
FILL
10
27.897436
20
70.564103
30
0.0
0
SEQEND
8
FILL
0
POLYLINE
8
FILL
66
1
70
1
0
VERTEX
8
FILL
10
20.102564
20
73.333333
30
0.0
0
VERTEX
8
FILL
10
15.179487
20
73.230769
30
0.0
0
VERTEX
8
FILL
10
15.282051
20
56.205128
30
0.0
0
VERTEX
8
FILL
10
17.641026
20
56.307692
30
0.0
0
VERTEX
8
FILL
10
17.641026
20
62.564103
30
0.0
0
VERTEX
8
FILL
10
17.846154
20
62.769231
30
0.0
0
VERTEX
8
FILL
10
19.589744
20
62.666667
30
0.0
0
VERTEX
8
FILL
10
21.025641
20
63.076923
30
0.0
0
VERTEX
8
FILL
10
22.461538
20
64.307692
30
0.0
0
VERTEX
8
FILL
10
23.179487
20
65.743590
30
0.0
0
VERTEX
8
FILL
10
23.179487
20
70.461538
30
0.0
0
VERTEX
8
FILL
10
22.564103
20
71.794872
30
0.0
0
VERTEX
8
FILL
10
21.743590
20
72.615385
30
0.0
0
SEQEND
8
FILL
0
POLYLINE
8
FILL
66
1
70
1
0
VERTEX
8
FILL
10
20.102564
20
72.410256
30
0.0
0
VERTEX
8
FILL
10
21.333333
20
71.794872
30
0.0
0
VERTEX
8
FILL
10
22.153846
20
70.666667
30
0.0
0
VERTEX
8
FILL
10
22.358974
20
69.846154
30
0.0
0
VERTEX
8
FILL
10
22.358974
20
66.256410
30
0.0
0
VERTEX
8
FILL
10
21.846154
20
65.025641
30
0.0
0
VERTEX
8
FILL
10
21.333333
20
64.410256
30
0.0
0
VERTEX
8
FILL
10
20.615385
20
63.897436
30
0.0
0
VERTEX
8
FILL
10
19.692308
20
63.589744
30
0.0
0
VERTEX
8
FILL
10
17.948718
20
63.487179
30
0.0
0
VERTEX
8
FILL
10
17.128205
20
62.974359
30
0.0
0
VERTEX
8
FILL
10
16.820513
20
62.153846
30
0.0
0
VERTEX
8
FILL
10
16.820513
20
57.538462
30
0.0
0
VERTEX
8
FILL
10
16.512821
20
57.230769
30
0.0
0
VERTEX
8
FILL
10
16.307692
20
57.230769
30
0.0
0
VERTEX
8
FILL
10
16.000000
20
57.743590
30
0.0
0
VERTEX
8
FILL
10
16.000000
20
71.794872
30
0.0
0
VERTEX
8
FILL
10
16.102564
20
72.205128
30
0.0
0
VERTEX
8
FILL
10
16.615385
20
72.512821
30
0.0
0
SEQEND
8
FILL
0
POLYLINE
8
FILL
66
1
70
1
0
VERTEX
8
FILL
10
17.948718
20
71.589744
30
0.0
0
VERTEX
8
FILL
10
17.846154
20
71.487179
30
0.0
0
VERTEX
8
FILL
10
17.641026
20
71.487179
30
0.0
0
VERTEX
8
FILL
10
17.230769
20
71.179487
30
0.0
0
VERTEX
8
FILL
10
16.923077
20
70.666667
30
0.0
0
VERTEX
8
FILL
10
16.923077
20
70.358974
30
0.0
0
VERTEX
8
FILL
10
16.820513
20
70.256410
30
0.0
0
VERTEX
8
FILL
10
16.820513
20
65.743590
30
0.0
0
VERTEX
8
FILL
10
16.923077
20
65.641026
30
0.0
0
VERTEX
8
FILL
10
16.923077
20
65.333333
30
0.0
0
VERTEX
8
FILL
10
17.025641
20
65.128205
30
0.0
0
VERTEX
8
FILL
10
17.538462
20
64.615385
30
0.0
0
VERTEX
8
FILL
10
17.948718
20
64.410256
30
0.0
0
VERTEX
8
FILL
10
19.794872
20
64.410256
30
0.0
0
VERTEX
8
FILL
10
20.717949
20
64.820513
30
0.0
0
VERTEX
8
FILL
10
21.128205
20
65.230769
30
0.0
0
VERTEX
8
FILL
10
21.435897
20
65.743590
30
0.0
0
VERTEX
8
FILL
10
21.435897
20
65.948718
30
0.0
0
VERTEX
8
FILL
10
21.641026
20
66.358974
30
0.0
0
VERTEX
8
FILL
10
21.641026
20
69.641026
30
0.0
0
VERTEX
8
FILL
10
21.538462
20
69.743590
30
0.0
0
VERTEX
8
FILL
10
21.538462
20
70.051282
30
0.0
0
VERTEX
8
FILL
10
21.230769
20
70.666667
30
0.0
0
VERTEX
8
FILL
10
20.717949
20
71.179487
30
0.0
0
VERTEX
8
FILL
10
20.102564
20
71.487179
30
0.0
0
VERTEX
8
FILL
10
19.897436
20
71.487179
30
0.0
0
VERTEX
8
FILL
10
19.794872
20
71.589744
30
0.0
0
VERTEX
8
FILL
10
18.974359
20
71.589744
30
0.0
0
VERTEX
8
FILL
10
18.871795
20
71.692308
30
0.0
0
VERTEX
8
FILL
10
18.666667
20
71.589744
30
0.0
0
SEQEND
8
FILL
0
POLYLINE
8
FILL
66
1
70
1
0
VERTEX
8
FILL
10
17.846154
20
70.871795
30
0.0
0
VERTEX
8
FILL
10
17.948718
20
70.769231
30
0.0
0
VERTEX
8
FILL
10
19.794872
20
70.769231
30
0.0
0
VERTEX
8
FILL
10
19.897436
20
70.666667
30
0.0
0
VERTEX
8
FILL
10
20.102564
20
70.666667
30
0.0
0
VERTEX
8
FILL
10
20.615385
20
70.153846
30
0.0
0
VERTEX
8
FILL
10
20.615385
20
70.051282
30
0.0
0
VERTEX
8
FILL
10
20.717949
20
69.948718
30
0.0
0
VERTEX
8
FILL
10
20.717949
20
69.743590
30
0.0
0
VERTEX
8
FILL
10
20.820513
20
69.641026
30
0.0
0
VERTEX
8
FILL
10
20.820513
20
66.358974
30
0.0
0
VERTEX
8
FILL
10
20.717949
20
66.256410
30
0.0
0
VERTEX
8
FILL
10
20.717949
20
66.051282
30
0.0
0
VERTEX
8
FILL
10
20.512821
20
65.846154
30
0.0
0
VERTEX
8
FILL
10
20.512821
20
65.743590
30
0.0
0
VERTEX
8
FILL
10
20.205128
20
65.435897
30
0.0
0
VERTEX
8
FILL
10
20.102564
20
65.435897
30
0.0
0
VERTEX
8
FILL
10
19.794872
20
65.230769
30
0.0
0
VERTEX
8
FILL
10
17.846154
20
65.230769
30
0.0
0
VERTEX
8
FILL
10
17.641026
20
65.435897
30
0.0
0
VERTEX
8
FILL
10
17.641026
20
70.666667
30
0.0
0
SEQEND
8
FILL
0
POLYLINE
8
FILL
66
1
70
1
0
VERTEX
8
FILL
10
79.794872
20
73.538462
30
0.0
0
VERTEX
8
FILL
10
78.256410
20
73.025641
30
0.0
0
VERTEX
8
FILL
10
77.128205
20
71.897436
30
0.0
0
VERTEX
8
FILL
10
76.512821
20
70.051282
30
0.0
0
VERTEX
8
FILL
10
76.512821
20
68.615385
30
0.0
0
VERTEX
8
FILL
10
76.820513
20
67.384615
30
0.0
0
VERTEX
8
FILL
10
77.846154
20
65.743590
30
0.0
0
VERTEX
8
FILL
10
81.846154
20
61.743590
30
0.0
0
VERTEX
8
FILL
10
82.153846
20
60.923077
30
0.0
0
VERTEX
8
FILL
10
82.153846
20
59.692308
30
0.0
0
VERTEX
8
FILL
10
81.230769
20
58.461538
30
0.0
0
VERTEX
8
FILL
10
80.410256
20
58.256410
30
0.0
0
VERTEX
8
FILL
10
79.179487
20
59.076923
30
0.0
0
VERTEX
8
FILL
10
78.564103
20
61.025641
30
0.0
0
VERTEX
8
FILL
10
76.307692
20
60.820513
30
0.0
0
VERTEX
8
FILL
10
76.205128
20
60.512821
30
0.0
0
VERTEX
8
FILL
10
76.512821
20
59.076923
30
0.0
0
VERTEX
8
FILL
10
77.435897
20
57.333333
30
0.0
0
VERTEX
8
FILL
10
79.076923
20
56.205128
30
0.0
0
VERTEX
8
FILL
10
80.717949
20
56.000000
30
0.0
0
VERTEX
8
FILL
10
82.153846
20
56.205128
30
0.0
0
VERTEX
8
FILL
10
83.794872
20
57.333333
30
0.0
0
VERTEX
8
FILL
10
84.512821
20
58.666667
30
0.0
0
VERTEX
8
FILL
10
84.717949
20
60.820513
30
0.0
0
VERTEX
8
FILL
10
84.410256
20
62.051282
30
0.0
0
VERTEX
8
FILL
10
83.487179
20
63.692308
30
0.0
0
VERTEX
8
FILL
10
79.487179
20
67.794872
30
0.0
0
VERTEX
8
FILL
10
79.076923
20
68.923077
30
0.0
0
VERTEX
8
FILL
10
79.179487
20
70.256410
30
0.0
0
VERTEX
8
FILL
10
79.692308
20
71.076923
30
0.0
0
VERTEX
8
FILL
10
80.820513
20
71.384615
30
0.0
0
VERTEX
8
FILL
10
81.641026
20
70.871795
30
0.0
0
VERTEX
8
FILL
10
82.256410
20
69.230769
30
0.0
0
VERTEX
8
FILL
10
84.512821
20
69.641026
30
0.0
0
VERTEX
8
FILL
10
84.615385
20
70.051282
30
0.0
0
VERTEX
8
FILL
10
84.205128
20
71.384615
30
0.0
0
VERTEX
8
FILL
10
83.076923
20
72.820513
30
0.0
0
VERTEX
8
FILL
10
81.846154
20
73.435897
30
0.0
0
SEQEND
8
FILL
0
POLYLINE
8
FILL
66
1
70
1
0
VERTEX
8
FILL
10
80.307692
20
72.717949
30
0.0
0
VERTEX
8
FILL
10
82.358974
20
72.205128
30
0.0
0
VERTEX
8
FILL
10
83.384615
20
70.974359
30
0.0
0
VERTEX
8
FILL
10
83.384615
20
70.564103
30
0.0
0
VERTEX
8
FILL
10
83.076923
20
70.358974
30
0.0
0
VERTEX
8
FILL
10
81.641026
20
71.897436
30
0.0
0
VERTEX
8
FILL
10
80.000000
20
72.102564
30
0.0
0
VERTEX
8
FILL
10
78.769231
20
71.179487
30
0.0
0
VERTEX
8
FILL
10
78.358974
20
70.358974
30
0.0
0
VERTEX
8
FILL
10
78.256410
20
69.025641
30
0.0
0
VERTEX
8
FILL
10
78.769231
20
67.384615
30
0.0
0
VERTEX
8
FILL
10
79.384615
20
66.461538
30
0.0
0
VERTEX
8
FILL
10
82.666667
20
63.282051
30
0.0
0
VERTEX
8
FILL
10
83.794872
20
61.025641
30
0.0
0
VERTEX
8
FILL
10
83.794872
20
59.487179
30
0.0
0
VERTEX
8
FILL
10
83.384615
20
58.358974
30
0.0
0
VERTEX
8
FILL
10
82.564103
20
57.435897
30
0.0
0
VERTEX
8
FILL
10
81.230769
20
56.923077
30
0.0
0
VERTEX
8
FILL
10
80.000000
20
56.923077
30
0.0
0
VERTEX
8
FILL
10
78.871795
20
57.333333
30
0.0
0
VERTEX
8
FILL
10
77.948718
20
58.153846
30
0.0
0
VERTEX
8
FILL
10
77.333333
20
59.487179
30
0.0
0
VERTEX
8
FILL
10
77.641026
20
60.000000
30
0.0
0
VERTEX
8
FILL
10
79.179487
20
57.948718
30
0.0
0
VERTEX
8
FILL
10
80.102564
20
57.538462
30
0.0
0
VERTEX
8
FILL
10
80.923077
20
57.538462
30
0.0
0
VERTEX
8
FILL
10
82.051282
20
58.051282
30
0.0
0
VERTEX
8
FILL
10
82.974359
20
59.589744
30
0.0
0
VERTEX
8
FILL
10
82.974359
20
61.025641
30
0.0
0
VERTEX
8
FILL
10
82.358974
20
62.461538
30
0.0
0
VERTEX
8
FILL
10
78.666667
20
66.153846
30
0.0
0
VERTEX
8
FILL
10
77.743590
20
67.487179
30
0.0
0
VERTEX
8
FILL
10
77.435897
20
68.410256
30
0.0
0
VERTEX
8
FILL
10
77.435897
20
70.256410
30
0.0
0
VERTEX
8
FILL
10
77.948718
20
71.487179
30
0.0
0
VERTEX
8
FILL
10
78.666667
20
72.205128
30
0.0
0
SEQEND
8
FILL
0
POLYLINE
8
FILL
66
1
70
1
0
VERTEX
8
FILL
10
69.333333
20
73.538462
30
0.0
0
VERTEX
8
FILL
10
68.102564
20
73.128205
30
0.0
0
VERTEX
8
FILL
10
66.769231
20
71.897436
30
0.0
0
VERTEX
8
FILL
10
66.153846
20
70.256410
30
0.0
0
VERTEX
8
FILL
10
66.153846
20
68.512821
30
0.0
0
VERTEX
8
FILL
10
66.564103
20
67.179487
30
0.0
0
VERTEX
8
FILL
10
67.384615
20
65.846154
30
0.0
0
VERTEX
8
FILL
10
71.589744
20
61.538462
30
0.0
0
VERTEX
8
FILL
10
71.794872
20
59.589744
30
0.0
0
VERTEX
8
FILL
10
70.871795
20
58.461538
30
0.0
0
VERTEX
8
FILL
10
70.051282
20
58.256410
30
0.0
0
VERTEX
8
FILL
10
68.820513
20
59.076923
30
0.0
0
VERTEX
8
FILL
10
68.205128
20
61.025641
30
0.0
0
VERTEX
8
FILL
10
65.948718
20
60.820513
30
0.0
0
VERTEX
8
FILL
10
65.948718
20
59.794872
30
0.0
0
VERTEX
8
FILL
10
66.769231
20
57.743590
30
0.0
0
VERTEX
8
FILL
10
67.384615
20
57.025641
30
0.0
0
VERTEX
8
FILL
10
68.717949
20
56.205128
30
0.0
0
VERTEX
8
FILL
10
70.358974
20
56.000000
30
0.0
0
VERTEX
8
FILL
10
71.794872
20
56.205128
30
0.0
0
VERTEX
8
FILL
10
73.025641
20
56.923077
30
0.0
0
VERTEX
8
FILL
10
73.641026
20
57.641026
30
0.0
0
VERTEX
8
FILL
10
74.256410
20
59.076923
30
0.0
0
VERTEX
8
FILL
10
74.358974
20
61.025641
30
0.0
0
VERTEX
8
FILL
10
73.025641
20
63.794872
30
0.0
0
VERTEX
8
FILL
10
69.128205
20
67.794872
30
0.0
0
VERTEX
8
FILL
10
68.717949
20
68.820513
30
0.0
0
VERTEX
8
FILL
10
68.820513
20
70.358974
30
0.0
0
VERTEX
8
FILL
10
69.641026
20
71.282051
30
0.0
0
VERTEX
8
FILL
10
70.461538
20
71.384615
30
0.0
0
VERTEX
8
FILL
10
71.487179
20
70.564103
30
0.0
0
VERTEX
8
FILL
10
71.897436
20
69.230769
30
0.0
0
VERTEX
8
FILL
10
74.051282
20
69.641026
30
0.0
0
VERTEX
8
FILL
10
74.256410
20
69.948718
30
0.0
0
VERTEX
8
FILL
10
73.641026
20
71.794872
30
0.0
0
VERTEX
8
FILL
10
72.717949
20
72.820513
30
0.0
0
VERTEX
8
FILL
10
71.487179
20
73.435897
30
0.0
0
SEQEND
8
FILL
0
POLYLINE
8
FILL
66
1
70
1
0
VERTEX
8
FILL
10
69.948718
20
72.717949
30
0.0
0
VERTEX
8
FILL
10
72.000000
20
72.205128
30
0.0
0
VERTEX
8
FILL
10
73.025641
20
70.974359
30
0.0
0
VERTEX
8
FILL
10
73.025641
20
70.564103
30
0.0
0
VERTEX
8
FILL
10
72.717949
20
70.358974
30
0.0
0
VERTEX
8
FILL
10
71.282051
20
71.897436
30
0.0
0
VERTEX
8
FILL
10
69.641026
20
72.102564
30
0.0
0
VERTEX
8
FILL
10
68.615385
20
71.487179
30
0.0
0
VERTEX
8
FILL
10
67.897436
20
69.846154
30
0.0
0
VERTEX
8
FILL
10
68.000000
20
68.410256
30
0.0
0
VERTEX
8
FILL
10
68.717949
20
66.871795
30
0.0
0
VERTEX
8
FILL
10
72.410256
20
63.179487
30
0.0
0
VERTEX
8
FILL
10
73.435897
20
61.025641
30
0.0
0
VERTEX
8
FILL
10
73.435897
20
59.487179
30
0.0
0
VERTEX
8
FILL
10
73.025641
20
58.358974
30
0.0
0
VERTEX
8
FILL
10
72.205128
20
57.435897
30
0.0
0
VERTEX
8
FILL
10
70.871795
20
56.923077
30
0.0
0
VERTEX
8
FILL
10
69.641026
20
56.923077
30
0.0
0
VERTEX
8
FILL
10
68.512821
20
57.333333
30
0.0
0
VERTEX
8
FILL
10
67.589744
20
58.153846
30
0.0
0
VERTEX
8
FILL
10
66.974359
20
59.384615
30
0.0
0
VERTEX
8
FILL
10
67.282051
20
60.000000
30
0.0
0
VERTEX
8
FILL
10
68.102564
20
58.666667
30
0.0
0
VERTEX
8
FILL
10
68.923077
20
57.846154
30
0.0
0
VERTEX
8
FILL
10
69.641026
20
57.538462
30
0.0
0
VERTEX
8
FILL
10
70.564103
20
57.538462
30
0.0
0
VERTEX
8
FILL
10
71.794872
20
58.153846
30
0.0
0
VERTEX
8
FILL
10
72.615385
20
59.589744
30
0.0
0
VERTEX
8
FILL
10
72.615385
20
61.025641
30
0.0
0
VERTEX
8
FILL
10
72.102564
20
62.256410
30
0.0
0
VERTEX
8
FILL
10
68.307692
20
66.153846
30
0.0
0
VERTEX
8
FILL
10
67.487179
20
67.282051
30
0.0
0
VERTEX
8
FILL
10
67.076923
20
68.410256
30
0.0
0
VERTEX
8
FILL
10
67.076923
20
70.256410
30
0.0
0
VERTEX
8
FILL
10
67.589744
20
71.487179
30
0.0
0
VERTEX
8
FILL
10
68.307692
20
72.205128
30
0.0
0
SEQEND
8
FILL
0
POLYLINE
8
FILL
66
1
70
1
0
VERTEX
8
FILL
10
49.948718
20
73.538462
30
0.0
0
VERTEX
8
FILL
10
48.923077
20
73.333333
30
0.0
0
VERTEX
8
FILL
10
47.897436
20
72.717949
30
0.0
0
VERTEX
8
FILL
10
47.179487
20
72.000000
30
0.0
0
VERTEX
8
FILL
10
46.461538
20
70.666667
30
0.0
0
VERTEX
8
FILL
10
46.358974
20
59.589744
30
0.0
0
VERTEX
8
FILL
10
46.666667
20
58.358974
30
0.0
0
VERTEX
8
FILL
10
47.794872
20
56.923077
30
0.0
0
VERTEX
8
FILL
10
49.025641
20
56.205128
30
0.0
0
VERTEX
8
FILL
10
50.666667
20
56.000000
30
0.0
0
VERTEX
8
FILL
10
52.102564
20
56.307692
30
0.0
0
VERTEX
8
FILL
10
53.948718
20
57.948718
30
0.0
0
VERTEX
8
FILL
10
54.461538
20
59.487179
30
0.0
0
VERTEX
8
FILL
10
54.461538
20
62.358974
30
0.0
0
VERTEX
8
FILL
10
51.897436
20
62.358974
30
0.0
0
VERTEX
8
FILL
10
51.897436
20
59.794872
30
0.0
0
VERTEX
8
FILL
10
50.974359
20
58.666667
30
0.0
0
VERTEX
8
FILL
10
50.051282
20
58.564103
30
0.0
0
VERTEX
8
FILL
10
49.025641
20
59.282051
30
0.0
0
VERTEX
8
FILL
10
48.820513
20
59.692308
30
0.0
0
VERTEX
8
FILL
10
48.820513
20
69.948718
30
0.0
0
VERTEX
8
FILL
10
49.743590
20
70.974359
30
0.0
0
VERTEX
8
FILL
10
50.974359
20
70.974359
30
0.0
0
VERTEX
8
FILL
10
51.897436
20
69.846154
30
0.0
0
VERTEX
8
FILL
10
51.897436
20
67.692308
30
0.0
0
VERTEX
8
FILL
10
54.358974
20
67.589744
30
0.0
0
VERTEX
8
FILL
10
54.461538
20
70.051282
30
0.0
0
VERTEX
8
FILL
10
53.948718
20
71.589744
30
0.0
0
VERTEX
8
FILL
10
52.820513
20
72.820513
30
0.0
0
VERTEX
8
FILL
10
51.589744
20
73.435897
30
0.0
0
SEQEND
8
FILL
0
POLYLINE
8
FILL
66
1
70
1
0
VERTEX
8
FILL
10
49.743590
20
72.615385
30
0.0
0
VERTEX
8
FILL
10
51.487179
20
72.512821
30
0.0
0
VERTEX
8
FILL
10
52.512821
20
71.897436
30
0.0
0
VERTEX
8
FILL
10
53.128205
20
71.179487
30
0.0
0
VERTEX
8
FILL
10
53.641026
20
69.641026
30
0.0
0
VERTEX
8
FILL
10
53.538462
20
68.717949
30
0.0
0
VERTEX
8
FILL
10
53.025641
20
68.512821
30
0.0
0
VERTEX
8
FILL
10
52.717949
20
68.923077
30
0.0
0
VERTEX
8
FILL
10
52.717949
20
69.846154
30
0.0
0
VERTEX
8
FILL
10
52.205128
20
70.974359
30
0.0
0
VERTEX
8
FILL
10
51.487179
20
71.589744
30
0.0
0
VERTEX
8
FILL
10
50.461538
20
71.897436
30
0.0
0
VERTEX
8
FILL
10
49.025641
20
71.487179
30
0.0
0
VERTEX
8
FILL
10
48.410256
20
70.871795
30
0.0
0
VERTEX
8
FILL
10
48.000000
20
69.846154
30
0.0
0
VERTEX
8
FILL
10
48.000000
20
59.692308
30
0.0
0
VERTEX
8
FILL
10
48.205128
20
59.076923
30
0.0
0
VERTEX
8
FILL
10
49.025641
20
58.153846
30
0.0
0
VERTEX
8
FILL
10
49.641026
20
57.846154
30
0.0
0
VERTEX
8
FILL
10
50.564103
20
57.743590
30
0.0
0
VERTEX
8
FILL
10
51.282051
20
57.948718
30
0.0
0
VERTEX
8
FILL
10
52.307692
20
58.769231
30
0.0
0
VERTEX
8
FILL
10
52.615385
20
59.384615
30
0.0
0
VERTEX
8
FILL
10
52.717949
20
61.128205
30
0.0
0
VERTEX
8
FILL
10
53.128205
20
61.538462
30
0.0
0
VERTEX
8
FILL
10
53.641026
20
61.128205
30
0.0
0
VERTEX
8
FILL
10
53.641026
20
59.794872
30
0.0
0
VERTEX
8
FILL
10
53.128205
20
58.358974
30
0.0
0
VERTEX
8
FILL
10
52.205128
20
57.435897
30
0.0
0
VERTEX
8
FILL
10
50.974359
20
56.923077
30
0.0
0
VERTEX
8
FILL
10
49.846154
20
56.923077
30
0.0
0
VERTEX
8
FILL
10
48.615385
20
57.435897
30
0.0
0
VERTEX
8
FILL
10
47.589744
20
58.564103
30
0.0
0
VERTEX
8
FILL
10
47.179487
20
60.102564
30
0.0
0
VERTEX
8
FILL
10
47.282051
20
70.153846
30
0.0
0
VERTEX
8
FILL
10
47.794872
20
71.282051
30
0.0
0
VERTEX
8
FILL
10
48.615385
20
72.102564
30
0.0
0
SEQEND
8
FILL
0
POLYLINE
8
FILL
66
1
70
1
0
VERTEX
8
FILL
10
39.282051
20
73.538462
30
0.0
0
VERTEX
8
FILL
10
38.461538
20
73.333333
30
0.0
0
VERTEX
8
FILL
10
37.538462
20
72.820513
30
0.0
0
VERTEX
8
FILL
10
36.410256
20
71.589744
30
0.0
0
VERTEX
8
FILL
10
35.897436
20
70.153846
30
0.0
0
VERTEX
8
FILL
10
35.897436
20
59.487179
30
0.0
0
VERTEX
8
FILL
10
36.512821
20
57.846154
30
0.0
0
VERTEX
8
FILL
10
37.333333
20
56.923077
30
0.0
0
VERTEX
8
FILL
10
38.564103
20
56.205128
30
0.0
0
VERTEX
8
FILL
10
40.102564
20
56.000000
30
0.0
0
VERTEX
8
FILL
10
41.333333
20
56.205128
30
0.0
0
VERTEX
8
FILL
10
42.564103
20
56.923077
30
0.0
0
VERTEX
8
FILL
10
43.179487
20
57.538462
30
0.0
0
VERTEX
8
FILL
10
43.897436
20
58.871795
30
0.0
0
VERTEX
8
FILL
10
44.000000
20
70.358974
30
0.0
0
VERTEX
8
FILL
10
43.384615
20
71.794872
30
0.0
0
VERTEX
8
FILL
10
42.358974
20
72.820513
30
0.0
0
VERTEX
8
FILL
10
41.230769
20
73.435897
30
0.0
0
SEQEND
8
FILL
0
POLYLINE
8
FILL
66
1
70
1
0
VERTEX
8
FILL
10
39.794872
20
72.717949
30
0.0
0
VERTEX
8
FILL
10
40.717949
20
72.615385
30
0.0
0
VERTEX
8
FILL
10
41.948718
20
72.000000
30
0.0
0
VERTEX
8
FILL
10
42.666667
20
71.179487
30
0.0
0
VERTEX
8
FILL
10
43.179487
20
69.641026
30
0.0
0
VERTEX
8
FILL
10
43.076923
20
59.282051
30
0.0
0
VERTEX
8
FILL
10
42.564103
20
58.256410
30
0.0
0
VERTEX
8
FILL
10
41.743590
20
57.435897
30
0.0
0
VERTEX
8
FILL
10
40.410256
20
56.923077
30
0.0
0
VERTEX
8
FILL
10
39.384615
20
56.923077
30
0.0
0
VERTEX
8
FILL
10
38.153846
20
57.435897
30
0.0
0
VERTEX
8
FILL
10
37.128205
20
58.564103
30
0.0
0
VERTEX
8
FILL
10
36.717949
20
60.102564
30
0.0
0
VERTEX
8
FILL
10
36.820513
20
70.153846
30
0.0
0
VERTEX
8
FILL
10
37.230769
20
71.179487
30
0.0
0
VERTEX
8
FILL
10
38.256410
20
72.205128
30
0.0
0
SEQEND
8
FILL
0
POLYLINE
8
FILL
66
1
70
1
0
VERTEX
8
FILL
10
39.589744
20
71.897436
30
0.0
0
VERTEX
8
FILL
10
38.871795
20
71.692308
30
0.0
0
VERTEX
8
FILL
10
38.256410
20
71.282051
30
0.0
0
VERTEX
8
FILL
10
37.846154
20
70.769231
30
0.0
0
VERTEX
8
FILL
10
37.538462
20
69.948718
30
0.0
0
VERTEX
8
FILL
10
37.538462
20
69.333333
30
0.0
0
VERTEX
8
FILL
10
37.435897
20
69.230769
30
0.0
0
VERTEX
8
FILL
10
37.435897
20
60.205128
30
0.0
0
VERTEX
8
FILL
10
37.948718
20
58.769231
30
0.0
0
VERTEX
8
FILL
10
38.461538
20
58.256410
30
0.0
0
VERTEX
8
FILL
10
39.282051
20
57.846154
30
0.0
0
VERTEX
8
FILL
10
40.410256
20
57.846154
30
0.0
0
VERTEX
8
FILL
10
41.333333
20
58.256410
30
0.0
0
VERTEX
8
FILL
10
41.743590
20
58.666667
30
0.0
0
VERTEX
8
FILL
10
42.051282
20
59.179487
30
0.0
0
VERTEX
8
FILL
10
42.256410
20
59.897436
30
0.0
0
VERTEX
8
FILL
10
42.256410
20
69.743590
30
0.0
0
VERTEX
8
FILL
10
41.846154
20
70.871795
30
0.0
0
VERTEX
8
FILL
10
41.230769
20
71.487179
30
0.0
0
VERTEX
8
FILL
10
40.615385
20
71.794872
30
0.0
0
SEQEND
8
FILL
0
POLYLINE
8
FILL
66
1
70
1
0
VERTEX
8
FILL
10
39.487179
20
71.076923
30
0.0
0
VERTEX
8
FILL
10
40.307692
20
71.076923
30
0.0
0
VERTEX
8
FILL
10
40.717949
20
70.871795
30
0.0
0
VERTEX
8
FILL
10
41.230769
20
70.358974
30
0.0
0
VERTEX
8
FILL
10
41.435897
20
69.948718
30
0.0
0
VERTEX
8
FILL
10
41.435897
20
59.794872
30
0.0
0
VERTEX
8
FILL
10
41.333333
20
59.487179
30
0.0
0
VERTEX
8
FILL
10
40.820513
20
58.871795
30
0.0
0
VERTEX
8
FILL
10
40.000000
20
58.564103
30
0.0
0
VERTEX
8
FILL
10
39.384615
20
58.666667
30
0.0
0
VERTEX
8
FILL
10
38.974359
20
58.871795
30
0.0
0
VERTEX
8
FILL
10
38.564103
20
59.282051
30
0.0
0
VERTEX
8
FILL
10
38.358974
20
59.692308
30
0.0
0
VERTEX
8
FILL
10
38.358974
20
70.051282
30
0.0
0
VERTEX
8
FILL
10
39.076923
20
70.871795
30
0.0
0
SEQEND
8
FILL
0
POLYLINE
8
FILL
66
1
70
1
0
VERTEX
8
FILL
10
79.692308
20
96.512821
30
0.0
0
VERTEX
8
FILL
10
79.589744
20
79.487179
30
0.0
0
VERTEX
8
FILL
10
86.666667
20
79.384615
30
0.0
0
VERTEX
8
FILL
10
86.769231
20
81.948718
30
0.0
0
VERTEX
8
FILL
10
82.256410
20
81.948718
30
0.0
0
VERTEX
8
FILL
10
82.051282
20
82.153846
30
0.0
0
VERTEX
8
FILL
10
82.051282
20
86.564103
30
0.0
0
VERTEX
8
FILL
10
82.256410
20
86.769231
30
0.0
0
VERTEX
8
FILL
10
85.538462
20
86.769231
30
0.0
0
VERTEX
8
FILL
10
85.435897
20
89.230769
30
0.0
0
VERTEX
8
FILL
10
82.256410
20
89.230769
30
0.0
0
VERTEX
8
FILL
10
82.051282
20
89.435897
30
0.0
0
VERTEX
8
FILL
10
82.051282
20
93.846154
30
0.0
0
VERTEX
8
FILL
10
82.256410
20
94.051282
30
0.0
0
VERTEX
8
FILL
10
86.666667
20
94.051282
30
0.0
0
VERTEX
8
FILL
10
86.871795
20
96.410256
30
0.0
0
SEQEND
8
FILL
0
POLYLINE
8
FILL
66
1
70
1
0
VERTEX
8
FILL
10
80.820513
20
95.692308
30
0.0
0
VERTEX
8
FILL
10
85.538462
20
95.692308
30
0.0
0
VERTEX
8
FILL
10
85.846154
20
95.384615
30
0.0
0
VERTEX
8
FILL
10
85.435897
20
94.871795
30
0.0
0
VERTEX
8
FILL
10
82.153846
20
94.769231
30
0.0
0
VERTEX
8
FILL
10
81.641026
20
94.461538
30
0.0
0
VERTEX
8
FILL
10
81.230769
20
93.641026
30
0.0
0
VERTEX
8
FILL
10
81.230769
20
89.641026
30
0.0
0
VERTEX
8
FILL
10
81.435897
20
89.128205
30
0.0
0
VERTEX
8
FILL
10
82.153846
20
88.512821
30
0.0
0
VERTEX
8
FILL
10
84.307692
20
88.410256
30
0.0
0
VERTEX
8
FILL
10
84.615385
20
88.102564
30
0.0
0
VERTEX
8
FILL
10
84.307692
20
87.589744
30
0.0
0
VERTEX
8
FILL
10
82.256410
20
87.487179
30
0.0
0
VERTEX
8
FILL
10
81.435897
20
86.871795
30
0.0
0
VERTEX
8
FILL
10
81.230769
20
86.358974
30
0.0
0
VERTEX
8
FILL
10
81.230769
20
82.256410
30
0.0
0
VERTEX
8
FILL
10
81.435897
20
81.743590
30
0.0
0
VERTEX
8
FILL
10
82.256410
20
81.128205
30
0.0
0
VERTEX
8
FILL
10
85.641026
20
81.025641
30
0.0
0
VERTEX
8
FILL
10
85.846154
20
80.820513
30
0.0
0
VERTEX
8
FILL
10
85.641026
20
80.307692
30
0.0
0
VERTEX
8
FILL
10
80.717949
20
80.307692
30
0.0
0
VERTEX
8
FILL
10
80.410256
20
80.615385
30
0.0
0
VERTEX
8
FILL
10
80.410256
20
95.282051
30
0.0
0
SEQEND
8
FILL
0
POLYLINE
8
FILL
66
1
70
1
0
VERTEX
8
FILL
10
67.692308
20
96.512821
30
0.0
0
VERTEX
8
FILL
10
70.564103
20
79.692308
30
0.0
0
VERTEX
8
FILL
10
70.769231
20
79.384615
30
0.0
0
VERTEX
8
FILL
10
74.051282
20
79.384615
30
0.0
0
VERTEX
8
FILL
10
77.230769
20
96.410256
30
0.0
0
VERTEX
8
FILL
10
74.564103
20
96.410256
30
0.0
0
VERTEX
8
FILL
10
72.717949
20
84.000000
30
0.0
0
VERTEX
8
FILL
10
72.410256
20
83.282051
30
0.0
0
VERTEX
8
FILL
10
70.256410
20
96.410256
30
0.0
0
SEQEND
8
FILL
0
POLYLINE
8
FILL
66
1
70
1
0
VERTEX
8
FILL
10
68.923077
20
95.589744
30
0.0
0
VERTEX
8
FILL
10
69.230769
20
95.589744
30
0.0
0
VERTEX
8
FILL
10
69.641026
20
95.076923
30
0.0
0
VERTEX
8
FILL
10
71.282051
20
84.512821
30
0.0
0
VERTEX
8
FILL
10
71.589744
20
83.692308
30
0.0
0
VERTEX
8
FILL
10
72.307692
20
82.974359
30
0.0
0
VERTEX
8
FILL
10
73.128205
20
83.487179
30
0.0
0
VERTEX
8
FILL
10
73.538462
20
84.410256
30
0.0
0
VERTEX
8
FILL
10
75.179487
20
94.769231
30
0.0
0
VERTEX
8
FILL
10
75.589744
20
95.589744
30
0.0
0
VERTEX
8
FILL
10
76.102564
20
95.384615
30
0.0
0
VERTEX
8
FILL
10
73.641026
20
81.128205
30
0.0
0
VERTEX
8
FILL
10
73.128205
20
80.307692
30
0.0
0
VERTEX
8
FILL
10
71.692308
20
80.307692
30
0.0
0
VERTEX
8
FILL
10
71.282051
20
80.717949
30
0.0
0
VERTEX
8
FILL
10
68.717949
20
94.974359
30
0.0
0
SEQEND
8
FILL
0
POLYLINE
8
FILL
66
1
70
1
0
VERTEX
8
FILL
10
62.974359
20
96.512821
30
0.0
0
VERTEX
8
FILL
10
62.871795
20
96.410256
30
0.0
0
VERTEX
8
FILL
10
62.871795
20
79.487179
30
0.0
0
VERTEX
8
FILL
10
62.974359
20
79.384615
30
0.0
0
VERTEX
8
FILL
10
65.230769
20
79.384615
30
0.0
0
VERTEX
8
FILL
10
65.333333
20
79.487179
30
0.0
0
VERTEX
8
FILL
10
65.333333
20
96.410256
30
0.0
0
VERTEX
8
FILL
10
65.230769
20
96.512821
30
0.0
0
SEQEND
8
FILL
0
POLYLINE
8
FILL
66
1
70
1
0
VERTEX
8
FILL
10
64.000000
20
95.589744
30
0.0
0
VERTEX
8
FILL
10
64.205128
20
95.589744
30
0.0
0
VERTEX
8
FILL
10
64.512821
20
95.282051
30
0.0
0
VERTEX
8
FILL
10
64.512821
20
80.717949
30
0.0
0
VERTEX
8
FILL
10
64.102564
20
80.307692
30
0.0
0
VERTEX
8
FILL
10
63.692308
20
80.717949
30
0.0
0
VERTEX
8
FILL
10
63.692308
20
95.282051
30
0.0
0
SEQEND
8
FILL
0
POLYLINE
8
FILL
66
1
70
1
0
VERTEX
8
FILL
10
52.717949
20
96.512821
30
0.0
0
VERTEX
8
FILL
10
52.615385
20
94.153846
30
0.0
0
VERTEX
8
FILL
10
55.179487
20
94.051282
30
0.0
0
VERTEX
8
FILL
10
55.384615
20
93.846154
30
0.0
0
VERTEX
8
FILL
10
55.384615
20
79.487179
30
0.0
0
VERTEX
8
FILL
10
57.846154
20
79.384615
30
0.0
0
VERTEX
8
FILL
10
57.846154
20
93.846154
30
0.0
0
VERTEX
8
FILL
10
58.051282
20
94.051282
30
0.0
0
VERTEX
8
FILL
10
60.615385
20
94.051282
30
0.0
0
VERTEX
8
FILL
10
60.717949
20
96.410256
30
0.0
0
SEQEND
8
FILL
0
POLYLINE
8
FILL
66
1
70
1
0
VERTEX
8
FILL
10
53.846154
20
95.692308
30
0.0
0
VERTEX
8
FILL
10
59.384615
20
95.692308
30
0.0
0
VERTEX
8
FILL
10
59.692308
20
95.384615
30
0.0
0
VERTEX
8
FILL
10
59.692308
20
95.179487
30
0.0
0
VERTEX
8
FILL
10
59.384615
20
94.871795
30
0.0
0
VERTEX
8
FILL
10
58.461538
20
94.871795
30
0.0
0
VERTEX
8
FILL
10
57.641026
20
94.564103
30
0.0
0
VERTEX
8
FILL
10
57.128205
20
93.846154
30
0.0
0
VERTEX
8
FILL
10
57.025641
20
80.615385
30
0.0
0
VERTEX
8
FILL
10
56.615385
20
80.307692
30
0.0
0
VERTEX
8
FILL
10
56.205128
20
80.923077
30
0.0
0
VERTEX
8
FILL
10
56.205128
20
93.641026
30
0.0
0
VERTEX
8
FILL
10
56.000000
20
94.153846
30
0.0
0
VERTEX
8
FILL
10
55.487179
20
94.666667
30
0.0
0
VERTEX
8
FILL
10
54.769231
20
94.871795
30
0.0
0
VERTEX
8
FILL
10
53.846154
20
94.871795
30
0.0
0
VERTEX
8
FILL
10
53.538462
20
95.179487
30
0.0
0
VERTEX
8
FILL
10
53.538462
20
95.384615
30
0.0
0
SEQEND
8
FILL
0
POLYLINE
8
FILL
66
1
70
1
0
VERTEX
8
FILL
10
46.564103
20
96.512821
30
0.0
0
VERTEX
8
FILL
10
46.358974
20
96.307692
30
0.0
0
VERTEX
8
FILL
10
43.589744
20
79.487179
30
0.0
0
VERTEX
8
FILL
10
46.051282
20
79.384615
30
0.0
0
VERTEX
8
FILL
10
46.666667
20
83.076923
30
0.0
0
VERTEX
8
FILL
10
46.974359
20
83.384615
30
0.0
0
VERTEX
8
FILL
10
49.333333
20
83.384615
30
0.0
0
VERTEX
8
FILL
10
49.641026
20
83.076923
30
0.0
0
VERTEX
8
FILL
10
50.153846
20
79.487179
30
0.0
0
VERTEX
8
FILL
10
52.717949
20
79.384615
30
0.0
0
VERTEX
8
FILL
10
52.820513
20
79.692308
30
0.0
0
VERTEX
8
FILL
10
49.948718
20
96.410256
30
0.0
0
SEQEND
8
FILL
0
POLYLINE
8
FILL
66
1
70
1
0
VERTEX
8
FILL
10
47.487179
20
95.692308
30
0.0
0
VERTEX
8
FILL
10
48.820513
20
95.692308
30
0.0
0
VERTEX
8
FILL
10
49.230769
20
95.384615
30
0.0
0
VERTEX
8
FILL
10
51.692308
20
81.128205
30
0.0
0
VERTEX
8
FILL
10
51.692308
20
80.615385
30
0.0
0
VERTEX
8
FILL
10
51.384615
20
80.307692
30
0.0
0
VERTEX
8
FILL
10
50.871795
20
80.615385
30
0.0
0
VERTEX
8
FILL
10
50.564103
20
82.666667
30
0.0
0
VERTEX
8
FILL
10
50.256410
20
83.487179
30
0.0
0
VERTEX
8
FILL
10
49.743590
20
84.000000
30
0.0
0
VERTEX
8
FILL
10
49.230769
20
84.205128
30
0.0
0
VERTEX
8
FILL
10
47.179487
20
84.205128
30
0.0
0
VERTEX
8
FILL
10
46.461538
20
83.897436
30
0.0
0
VERTEX
8
FILL
10
45.846154
20
82.974359
30
0.0
0
VERTEX
8
FILL
10
45.435897
20
80.615385
30
0.0
0
VERTEX
8
FILL
10
45.128205
20
80.307692
30
0.0
0
VERTEX
8
FILL
10
44.615385
20
80.615385
30
0.0
0
VERTEX
8
FILL
10
47.076923
20
95.282051
30
0.0
0
SEQEND
8
FILL
0
POLYLINE
8
FILL
66
1
70
1
0
VERTEX
8
FILL
10
47.897436
20
92.615385
30
0.0
0
VERTEX
8
FILL
10
47.487179
20
92.307692
30
0.0
0
VERTEX
8
FILL
10
47.179487
20
91.692308
30
0.0
0
VERTEX
8
FILL
10
47.179487
20
91.487179
30
0.0
0
VERTEX
8
FILL
10
47.076923
20
91.384615
30
0.0
0
VERTEX
8
FILL
10
47.076923
20
90.974359
30
0.0
0
VERTEX
8
FILL
10
46.974359
20
90.871795
30
0.0
0
VERTEX
8
FILL
10
46.974359
20
90.358974
30
0.0
0
VERTEX
8
FILL
10
46.871795
20
90.256410
30
0.0
0
VERTEX
8
FILL
10
46.871795
20
89.641026
30
0.0
0
VERTEX
8
FILL
10
46.769231
20
89.538462
30
0.0
0
VERTEX
8
FILL
10
46.769231
20
88.820513
30
0.0
0
VERTEX
8
FILL
10
46.666667
20
88.717949
30
0.0
0
VERTEX
8
FILL
10
46.666667
20
88.102564
30
0.0
0
VERTEX
8
FILL
10
46.564103
20
88.000000
30
0.0
0
VERTEX
8
FILL
10
46.564103
20
87.384615
30
0.0
0
VERTEX
8
FILL
10
46.461538
20
87.282051
30
0.0
0
VERTEX
8
FILL
10
46.461538
20
85.948718
30
0.0
0
VERTEX
8
FILL
10
46.666667
20
85.538462
30
0.0
0
VERTEX
8
FILL
10
46.974359
20
85.230769
30
0.0
0
VERTEX
8
FILL
10
47.384615
20
85.025641
30
0.0
0
VERTEX
8
FILL
10
47.897436
20
85.025641
30
0.0
0
VERTEX
8
FILL
10
48.000000
20
84.923077
30
0.0
0
VERTEX
8
FILL
10
48.307692
20
84.923077
30
0.0
0
VERTEX
8
FILL
10
48.410256
20
85.025641
30
0.0
0
VERTEX
8
FILL
10
48.820513
20
85.025641
30
0.0
0
VERTEX
8
FILL
10
48.923077
20
85.128205
30
0.0
0
VERTEX
8
FILL
10
49.230769
20
85.128205
30
0.0
0
VERTEX
8
FILL
10
49.743590
20
85.641026
30
0.0
0
VERTEX
8
FILL
10
49.948718
20
86.358974
30
0.0
0
VERTEX
8
FILL
10
49.846154
20
86.461538
30
0.0
0
VERTEX
8
FILL
10
49.846154
20
87.692308
30
0.0
0
VERTEX
8
FILL
10
49.743590
20
87.794872
30
0.0
0
VERTEX
8
FILL
10
49.743590
20
88.410256
30
0.0
0
VERTEX
8
FILL
10
49.641026
20
88.512821
30
0.0
0
VERTEX
8
FILL
10
49.641026
20
89.025641
30
0.0
0
VERTEX
8
FILL
10
49.538462
20
89.128205
30
0.0
0
VERTEX
8
FILL
10
49.538462
20
89.743590
30
0.0
0
VERTEX
8
FILL
10
49.435897
20
89.846154
30
0.0
0
VERTEX
8
FILL
10
49.435897
20
90.461538
30
0.0
0
VERTEX
8
FILL
10
49.333333
20
90.564103
30
0.0
0
VERTEX
8
FILL
10
49.333333
20
91.076923
30
0.0
0
VERTEX
8
FILL
10
49.230769
20
91.179487
30
0.0
0
VERTEX
8
FILL
10
49.230769
20
91.487179
30
0.0
0
VERTEX
8
FILL
10
49.128205
20
91.589744
30
0.0
0
VERTEX
8
FILL
10
49.128205
20
91.794872
30
0.0
0
VERTEX
8
FILL
10
48.923077
20
92.205128
30
0.0
0
VERTEX
8
FILL
10
48.615385
20
92.512821
30
0.0
0
VERTEX
8
FILL
10
48.410256
20
92.615385
30
0.0
0
SEQEND
8
FILL
0
POLYLINE
8
FILL
66
1
70
1
0
VERTEX
8
FILL
10
48.205128
20
92.000000
30
0.0
0
VERTEX
8
FILL
10
48.410256
20
91.794872
30
0.0
0
VERTEX
8
FILL
10
48.410256
20
91.179487
30
0.0
0
VERTEX
8
FILL
10
48.512821
20
91.076923
30
0.0
0
VERTEX
8
FILL
10
48.512821
20
90.461538
30
0.0
0
VERTEX
8
FILL
10
48.615385
20
90.358974
30
0.0
0
VERTEX
8
FILL
10
48.615385
20
89.743590
30
0.0
0
VERTEX
8
FILL
10
48.717949
20
89.641026
30
0.0
0
VERTEX
8
FILL
10
48.717949
20
88.717949
30
0.0
0
VERTEX
8
FILL
10
48.820513
20
88.615385
30
0.0
0
VERTEX
8
FILL
10
48.820513
20
88.000000
30
0.0
0
VERTEX
8
FILL
10
48.923077
20
87.897436
30
0.0
0
VERTEX
8
FILL
10
48.923077
20
87.384615
30
0.0
0
VERTEX
8
FILL
10
49.025641
20
87.282051
30
0.0
0
VERTEX
8
FILL
10
49.025641
20
86.666667
30
0.0
0
VERTEX
8
FILL
10
49.128205
20
86.564103
30
0.0
0
VERTEX
8
FILL
10
49.128205
20
86.051282
30
0.0
0
VERTEX
8
FILL
10
49.230769
20
85.948718
30
0.0
0
VERTEX
8
FILL
10
49.025641
20
85.743590
30
0.0
0
VERTEX
8
FILL
10
47.384615
20
85.743590
30
0.0
0
VERTEX
8
FILL
10
47.179487
20
85.948718
30
0.0
0
VERTEX
8
FILL
10
47.179487
20
86.461538
30
0.0
0
VERTEX
8
FILL
10
47.282051
20
86.564103
30
0.0
0
VERTEX
8
FILL
10
47.282051
20
87.076923
30
0.0
0
VERTEX
8
FILL
10
47.384615
20
87.179487
30
0.0
0
VERTEX
8
FILL
10
47.384615
20
87.692308
30
0.0
0
VERTEX
8
FILL
10
47.487179
20
87.794872
30
0.0
0
VERTEX
8
FILL
10
47.487179
20
88.410256
30
0.0
0
VERTEX
8
FILL
10
47.589744
20
88.512821
30
0.0
0
VERTEX
8
FILL
10
47.589744
20
89.025641
30
0.0
0
VERTEX
8
FILL
10
47.692308
20
89.128205
30
0.0
0
VERTEX
8
FILL
10
47.692308
20
90.153846
30
0.0
0
VERTEX
8
FILL
10
47.794872
20
90.256410
30
0.0
0
VERTEX
8
FILL
10
47.794872
20
90.871795
30
0.0
0
VERTEX
8
FILL
10
47.897436
20
90.974359
30
0.0
0
VERTEX
8
FILL
10
47.897436
20
91.589744
30
0.0
0
VERTEX
8
FILL
10
48.000000
20
91.692308
30
0.0
0
VERTEX
8
FILL
10
48.000000
20
91.794872
30
0.0
0
SEQEND
8
FILL
0
POLYLINE
8
FILL
66
1
70
1
0
VERTEX
8
FILL
10
34.461538
20
96.512821
30
0.0
0
VERTEX
8
FILL
10
34.358974
20
79.487179
30
0.0
0
VERTEX
8
FILL
10
41.538462
20
79.384615
30
0.0
0
VERTEX
8
FILL
10
41.538462
20
81.948718
30
0.0
0
VERTEX
8
FILL
10
37.025641
20
81.846154
30
0.0
0
VERTEX
8
FILL
10
36.820513
20
82.051282
30
0.0
0
VERTEX
8
FILL
10
36.820513
20
86.564103
30
0.0
0
VERTEX
8
FILL
10
37.025641
20
86.769231
30
0.0
0
VERTEX
8
FILL
10
40.410256
20
86.769231
30
0.0
0
VERTEX
8
FILL
10
40.307692
20
89.230769
30
0.0
0
VERTEX
8
FILL
10
37.025641
20
89.230769
30
0.0
0
VERTEX
8
FILL
10
36.820513
20
89.435897
30
0.0
0
VERTEX
8
FILL
10
36.820513
20
93.846154
30
0.0
0
VERTEX
8
FILL
10
37.025641
20
94.051282
30
0.0
0
VERTEX
8
FILL
10
41.538462
20
94.051282
30
0.0
0
VERTEX
8
FILL
10
41.641026
20
96.410256
30
0.0
0
SEQEND
8
FILL
0
POLYLINE
8
FILL
66
1
70
1
0
VERTEX
8
FILL
10
35.589744
20
95.692308
30
0.0
0
VERTEX
8
FILL
10
40.410256
20
95.692308
30
0.0
0
VERTEX
8
FILL
10
40.717949
20
95.384615
30
0.0
0
VERTEX
8
FILL
10
40.307692
20
94.871795
30
0.0
0
VERTEX
8
FILL
10
36.923077
20
94.769231
30
0.0
0
VERTEX
8
FILL
10
36.307692
20
94.256410
30
0.0
0
VERTEX
8
FILL
10
36.000000
20
93.435897
30
0.0
0
VERTEX
8
FILL
10
36.000000
20
89.846154
30
0.0
0
VERTEX
8
FILL
10
36.307692
20
89.025641
30
0.0
0
VERTEX
8
FILL
10
37.333333
20
88.410256
30
0.0
0
VERTEX
8
FILL
10
39.076923
20
88.410256
30
0.0
0
VERTEX
8
FILL
10
39.487179
20
88.000000
30
0.0
0
VERTEX
8
FILL
10
39.179487
20
87.589744
30
0.0
0
VERTEX
8
FILL
10
37.435897
20
87.589744
30
0.0
0
VERTEX
8
FILL
10
36.307692
20
86.974359
30
0.0
0
VERTEX
8
FILL
10
36.000000
20
86.051282
30
0.0
0
VERTEX
8
FILL
10
36.000000
20
82.564103
30
0.0
0
VERTEX
8
FILL
10
36.205128
20
81.846154
30
0.0
0
VERTEX
8
FILL
10
37.128205
20
81.128205
30
0.0
0
VERTEX
8
FILL
10
40.512821
20
81.025641
30
0.0
0
VERTEX
8
FILL
10
40.717949
20
80.615385
30
0.0
0
VERTEX
8
FILL
10
40.410256
20
80.307692
30
0.0
0
VERTEX
8
FILL
10
35.589744
20
80.307692
30
0.0
0
VERTEX
8
FILL
10
35.179487
20
80.923077
30
0.0
0
VERTEX
8
FILL
10
35.179487
20
95.076923
30
0.0
0
SEQEND
8
FILL
0
POLYLINE
8
FILL
66
1
70
1
0
VERTEX
8
FILL
10
23.487179
20
96.512821
30
0.0
0
VERTEX
8
FILL
10
23.384615
20
79.487179
30
0.0
0
VERTEX
8
FILL
10
25.948718
20
79.487179
30
0.0
0
VERTEX
8
FILL
10
25.948718
20
85.743590
30
0.0
0
VERTEX
8
FILL
10
26.153846
20
85.948718
30
0.0
0
VERTEX
8
FILL
10
27.589744
20
85.948718
30
0.0
0
VERTEX
8
FILL
10
27.897436
20
85.435897
30
0.0
0
VERTEX
8
FILL
10
29.230769
20
79.589744
30
0.0
0
VERTEX
8
FILL
10
29.435897
20
79.384615
30
0.0
0
VERTEX
8
FILL
10
31.897436
20
79.384615
30
0.0
0
VERTEX
8
FILL
10
31.897436
20
80.102564
30
0.0
0
VERTEX
8
FILL
10
30.153846
20
86.974359
30
0.0
0
VERTEX
8
FILL
10
30.974359
20
87.897436
30
0.0
0
VERTEX
8
FILL
10
31.487179
20
89.333333
30
0.0
0
VERTEX
8
FILL
10
31.487179
20
93.333333
30
0.0
0
VERTEX
8
FILL
10
31.179487
20
94.564103
30
0.0
0
VERTEX
8
FILL
10
30.461538
20
95.589744
30
0.0
0
VERTEX
8
FILL
10
28.923077
20
96.410256
30
0.0
0
SEQEND
8
FILL
0
POLYLINE
8
FILL
66
1
70
1
0
VERTEX
8
FILL
10
24.615385
20
95.692308
30
0.0
0
VERTEX
8
FILL
10
27.897436
20
95.692308
30
0.0
0
VERTEX
8
FILL
10
28.923077
20
95.487179
30
0.0
0
VERTEX
8
FILL
10
29.641026
20
95.076923
30
0.0
0
VERTEX
8
FILL
10
30.358974
20
94.153846
30
0.0
0
VERTEX
8
FILL
10
30.666667
20
92.410256
30
0.0
0
VERTEX
8
FILL
10
30.666667
20
90.051282
30
0.0
0
VERTEX
8
FILL
10
30.461538
20
88.923077
30
0.0
0
VERTEX
8
FILL
10
29.435897
20
87.076923
30
0.0
0
VERTEX
8
FILL
10
29.435897
20
85.948718
30
0.0
0
VERTEX
8
FILL
10
30.769231
20
81.025641
30
0.0
0
VERTEX
8
FILL
10
30.769231
20
80.512821
30
0.0
0
VERTEX
8
FILL
10
30.564103
20
80.307692
30
0.0
0
VERTEX
8
FILL
10
30.153846
20
80.410256
30
0.0
0
VERTEX
8
FILL
10
29.846154
20
80.820513
30
0.0
0
VERTEX
8
FILL
10
28.512821
20
85.948718
30
0.0
0
VERTEX
8
FILL
10
27.897436
20
86.564103
30
0.0
0
VERTEX
8
FILL
10
27.076923
20
86.769231
30
0.0
0
VERTEX
8
FILL
10
25.846154
20
86.564103
30
0.0
0
VERTEX
8
FILL
10
25.128205
20
85.641026
30
0.0
0
VERTEX
8
FILL
10
25.025641
20
80.615385
30
0.0
0
VERTEX
8
FILL
10
24.717949
20
80.307692
30
0.0
0
VERTEX
8
FILL
10
24.307692
20
80.615385
30
0.0
0
VERTEX
8
FILL
10
24.307692
20
95.384615
30
0.0
0
SEQEND
8
FILL
0
POLYLINE
8
FILL
66
1
70
1
0
VERTEX
8
FILL
10
26.256410
20
94.769231
30
0.0
0
VERTEX
8
FILL
10
26.153846
20
94.666667
30
0.0
0
VERTEX
8
FILL
10
25.743590
20
94.564103
30
0.0
0
VERTEX
8
FILL
10
25.333333
20
94.153846
30
0.0
0
VERTEX
8
FILL
10
25.230769
20
93.743590
30
0.0
0
VERTEX
8
FILL
10
25.128205
20
93.641026
30
0.0
0
VERTEX
8
FILL
10
25.128205
20
92.820513
30
0.0
0
VERTEX
8
FILL
10
25.025641
20
92.717949
30
0.0
0
VERTEX
8
FILL
10
25.025641
20
89.538462
30
0.0
0
VERTEX
8
FILL
10
25.128205
20
89.435897
30
0.0
0
VERTEX
8
FILL
10
25.128205
20
88.717949
30
0.0
0
VERTEX
8
FILL
10
25.538462
20
87.897436
30
0.0
0
VERTEX
8
FILL
10
26.153846
20
87.589744
30
0.0
0
VERTEX
8
FILL
10
28.000000
20
87.589744
30
0.0
0
VERTEX
8
FILL
10
28.923077
20
88.000000
30
0.0
0
VERTEX
8
FILL
10
29.435897
20
88.512821
30
0.0
0
VERTEX
8
FILL
10
29.846154
20
89.333333
30
0.0
0
VERTEX
8
FILL
10
29.846154
20
89.846154
30
0.0
0
VERTEX
8
FILL
10
29.948718
20
89.948718
30
0.0
0
VERTEX
8
FILL
10
29.948718
20
92.512821
30
0.0
0
VERTEX
8
FILL
10
29.846154
20
92.615385
30
0.0
0
VERTEX
8
FILL
10
29.846154
20
93.128205
30
0.0
0
VERTEX
8
FILL
10
29.435897
20
93.948718
30
0.0
0
VERTEX
8
FILL
10
28.717949
20
94.564103
30
0.0
0
VERTEX
8
FILL
10
28.512821
20
94.564103
30
0.0
0
VERTEX
8
FILL
10
28.102564
20
94.769231
30
0.0
0
SEQEND
8
FILL
0
POLYLINE
8
FILL
66
1
70
1
0
VERTEX
8
FILL
10
26.153846
20
93.948718
30
0.0
0
VERTEX
8
FILL
10
28.102564
20
93.948718
30
0.0
0
VERTEX
8
FILL
10
28.205128
20
93.846154
30
0.0
0
VERTEX
8
FILL
10
28.410256
20
93.846154
30
0.0
0
VERTEX
8
FILL
10
28.923077
20
93.333333
30
0.0
0
VERTEX
8
FILL
10
28.923077
20
93.230769
30
0.0
0
VERTEX
8
FILL
10
29.025641
20
93.128205
30
0.0
0
VERTEX
8
FILL
10
29.025641
20
92.820513
30
0.0
0
VERTEX
8
FILL
10
29.128205
20
92.717949
30
0.0
0
VERTEX
8
FILL
10
29.128205
20
89.743590
30
0.0
0
VERTEX
8
FILL
10
29.025641
20
89.641026
30
0.0
0
VERTEX
8
FILL
10
29.025641
20
89.333333
30
0.0
0
VERTEX
8
FILL
10
28.820513
20
89.128205
30
0.0
0
VERTEX
8
FILL
10
28.820513
20
89.025641
30
0.0
0
VERTEX
8
FILL
10
28.410256
20
88.615385
30
0.0
0
VERTEX
8
FILL
10
28.307692
20
88.615385
30
0.0
0
VERTEX
8
FILL
10
28.000000
20
88.410256
30
0.0
0
VERTEX
8
FILL
10
26.153846
20
88.410256
30
0.0
0
VERTEX
8
FILL
10
25.948718
20
88.615385
30
0.0
0
VERTEX
8
FILL
10
25.948718
20
93.743590
30
0.0
0
SEQEND
8
FILL
0
POLYLINE
8
FILL
66
1
70
1
0
VERTEX
8
FILL
10
16.615385
20
96.717949
30
0.0
0
VERTEX
8
FILL
10
15.692308
20
96.512821
30
0.0
0
VERTEX
8
FILL
10
14.358974
20
95.692308
30
0.0
0
VERTEX
8
FILL
10
13.230769
20
93.948718
30
0.0
0
VERTEX
8
FILL
10
13.128205
20
82.461538
30
0.0
0
VERTEX
8
FILL
10
13.846154
20
80.820513
30
0.0
0
VERTEX
8
FILL
10
15.282051
20
79.589744
30
0.0
0
VERTEX
8
FILL
10
16.102564
20
79.282051
30
0.0
0
VERTEX
8
FILL
10
18.051282
20
79.282051
30
0.0
0
VERTEX
8
FILL
10
19.487179
20
79.897436
30
0.0
0
VERTEX
8
FILL
10
20.717949
20
81.230769
30
0.0
0
VERTEX
8
FILL
10
21.230769
20
83.076923
30
0.0
0
VERTEX
8
FILL
10
21.230769
20
85.538462
30
0.0
0
VERTEX
8
FILL
10
18.564103
20
85.538462
30
0.0
0
VERTEX
8
FILL
10
18.564103
20
82.769231
30
0.0
0
VERTEX
8
FILL
10
17.846154
20
81.948718
30
0.0
0
VERTEX
8
FILL
10
16.820513
20
81.743590
30
0.0
0
VERTEX
8
FILL
10
15.692308
20
82.564103
30
0.0
0
VERTEX
8
FILL
10
15.487179
20
83.179487
30
0.0
0
VERTEX
8
FILL
10
15.487179
20
92.820513
30
0.0
0
VERTEX
8
FILL
10
16.102564
20
93.948718
30
0.0
0
VERTEX
8
FILL
10
17.435897
20
94.256410
30
0.0
0
VERTEX
8
FILL
10
18.564103
20
93.230769
30
0.0
0
VERTEX
8
FILL
10
18.666667
20
90.769231
30
0.0
0
VERTEX
8
FILL
10
21.128205
20
90.769231
30
0.0
0
VERTEX
8
FILL
10
21.230769
20
92.923077
30
0.0
0
VERTEX
8
FILL
10
20.615385
20
94.871795
30
0.0
0
VERTEX
8
FILL
10
19.692308
20
95.897436
30
0.0
0
VERTEX
8
FILL
10
18.666667
20
96.512821
30
0.0
0
SEQEND
8
FILL
0
POLYLINE
8
FILL
66
1
70
1
0
VERTEX
8
FILL
10
16.410256
20
95.794872
30
0.0
0
VERTEX
8
FILL
10
17.743590
20
95.794872
30
0.0
0
VERTEX
8
FILL
10
18.871795
20
95.384615
30
0.0
0
VERTEX
8
FILL
10
19.794872
20
94.461538
30
0.0
0
VERTEX
8
FILL
10
20.307692
20
93.230769
30
0.0
0
VERTEX
8
FILL
10
20.307692
20
91.897436
30
0.0
0
VERTEX
8
FILL
10
19.692308
20
91.692308
30
0.0
0
VERTEX
8
FILL
10
19.076923
20
93.948718
30
0.0
0
VERTEX
8
FILL
10
18.256410
20
94.769231
30
0.0
0
VERTEX
8
FILL
10
17.435897
20
95.076923
30
0.0
0
VERTEX
8
FILL
10
15.897436
20
94.769231
30
0.0
0
VERTEX
8
FILL
10
15.179487
20
94.153846
30
0.0
0
VERTEX
8
FILL
10
14.769231
20
93.333333
30
0.0
0
VERTEX
8
FILL
10
14.666667
20
83.282051
30
0.0
0
VERTEX
8
FILL
10
15.076923
20
82.051282
30
0.0
0
VERTEX
8
FILL
10
16.102564
20
81.128205
30
0.0
0
VERTEX
8
FILL
10
17.743590
20
81.025641
30
0.0
0
VERTEX
8
FILL
10
19.076923
20
82.051282
30
0.0
0
VERTEX
8
FILL
10
19.384615
20
82.769231
30
0.0
0
VERTEX
8
FILL
10
19.487179
20
84.410256
30
0.0
0
VERTEX
8
FILL
10
19.794872
20
84.717949
30
0.0
0
VERTEX
8
FILL
10
20.307692
20
84.410256
30
0.0
0
VERTEX
8
FILL
10
20.307692
20
82.666667
30
0.0
0
VERTEX
8
FILL
10
19.897436
20
81.641026
30
0.0
0
VERTEX
8
FILL
10
19.076923
20
80.717949
30
0.0
0
VERTEX
8
FILL
10
17.641026
20
80.102564
30
0.0
0
VERTEX
8
FILL
10
16.615385
20
80.102564
30
0.0
0
VERTEX
8
FILL
10
15.487179
20
80.512821
30
0.0
0
VERTEX
8
FILL
10
14.256410
20
81.846154
30
0.0
0
VERTEX
8
FILL
10
13.948718
20
82.871795
30
0.0
0
VERTEX
8
FILL
10
13.948718
20
93.025641
30
0.0
0
VERTEX
8
FILL
10
14.564103
20
94.564103
30
0.0
0
VERTEX
8
FILL
10
15.179487
20
95.179487
30
0.0
0
SEQEND
8
FILL
0
POLYLINE
8
FILL
66
1
70
1
0
VERTEX
8
FILL
10
46.974359
20
145.230769
30
0.0
0
VERTEX
8
FILL
10
47.179487
20
145.025641
30
0.0
0
VERTEX
8
FILL
10
46.974359
20
144.820513
30
0.0
0
VERTEX
8
FILL
10
46.871795
20
144.820513
30
0.0
0
VERTEX
8
FILL
10
46.769231
20
144.717949
30
0.0
0
VERTEX
8
FILL
10
46.564103
20
144.923077
30
0.0
0
VERTEX
8
FILL
10
46.769231
20
145.128205
30
0.0
0
VERTEX
8
FILL
10
46.871795
20
145.128205
30
0.0
0
SEQEND
8
FILL
0
POLYLINE
8
FILL
66
1
70
1
0
VERTEX
8
FILL
10
48.000000
20
145.743590
30
0.0
0
VERTEX
8
FILL
10
48.205128
20
145.948718
30
0.0
0
VERTEX
8
FILL
10
48.307692
20
145.948718
30
0.0
0
VERTEX
8
FILL
10
48.512821
20
146.153846
30
0.0
0
VERTEX
8
FILL
10
48.615385
20
146.153846
30
0.0
0
VERTEX
8
FILL
10
48.820513
20
146.358974
30
0.0
0
VERTEX
8
FILL
10
48.923077
20
146.358974
30
0.0
0
VERTEX
8
FILL
10
49.128205
20
146.564103
30
0.0
0
VERTEX
8
FILL
10
49.230769
20
146.564103
30
0.0
0
VERTEX
8
FILL
10
49.538462
20
146.769231
30
0.0
0
VERTEX
8
FILL
10
49.743590
20
146.769231
30
0.0
0
VERTEX
8
FILL
10
49.846154
20
146.871795
30
0.0
0
VERTEX
8
FILL
10
50.051282
20
146.871795
30
0.0
0
VERTEX
8
FILL
10
50.153846
20
146.769231
30
0.0
0
VERTEX
8
FILL
10
50.358974
20
146.769231
30
0.0
0
VERTEX
8
FILL
10
50.461538
20
146.666667
30
0.0
0
VERTEX
8
FILL
10
50.564103
20
146.666667
30
0.0
0
VERTEX
8
FILL
10
50.666667
20
146.564103
30
0.0
0
VERTEX
8
FILL
10
50.769231
20
146.564103
30
0.0
0
VERTEX
8
FILL
10
50.974359
20
146.358974
30
0.0
0
VERTEX
8
FILL
10
51.076923
20
146.358974
30
0.0
0
VERTEX
8
FILL
10
51.282051
20
146.153846
30
0.0
0
VERTEX
8
FILL
10
51.384615
20
146.153846
30
0.0
0
VERTEX
8
FILL
10
51.589744
20
145.948718
30
0.0
0
VERTEX
8
FILL
10
51.692308
20
145.948718
30
0.0
0
VERTEX
8
FILL
10
51.794872
20
145.846154
30
0.0
0
VERTEX
8
FILL
10
51.897436
20
145.846154
30
0.0
0
VERTEX
8
FILL
10
52.102564
20
145.641026
30
0.0
0
VERTEX
8
FILL
10
52.205128
20
145.641026
30
0.0
0
VERTEX
8
FILL
10
52.307692
20
145.538462
30
0.0
0
VERTEX
8
FILL
10
52.410256
20
145.538462
30
0.0
0
VERTEX
8
FILL
10
52.512821
20
145.435897
30
0.0
0
VERTEX
8
FILL
10
52.615385
20
145.435897
30
0.0
0
VERTEX
8
FILL
10
52.820513
20
145.230769
30
0.0
0
VERTEX
8
FILL
10
52.615385
20
145.025641
30
0.0
0
VERTEX
8
FILL
10
52.512821
20
145.128205
30
0.0
0
VERTEX
8
FILL
10
52.410256
20
145.128205
30
0.0
0
VERTEX
8
FILL
10
52.307692
20
145.230769
30
0.0
0
VERTEX
8
FILL
10
52.205128
20
145.230769
30
0.0
0
VERTEX
8
FILL
10
52.102564
20
145.333333
30
0.0
0
VERTEX
8
FILL
10
52.000000
20
145.333333
30
0.0
0
VERTEX
8
FILL
10
51.794872
20
145.538462
30
0.0
0
VERTEX
8
FILL
10
51.589744
20
145.538462
30
0.0
0
VERTEX
8
FILL
10
51.282051
20
145.743590
30
0.0
0
VERTEX
8
FILL
10
50.153846
20
145.743590
30
0.0
0
VERTEX
8
FILL
10
50.051282
20
145.641026
30
0.0
0
VERTEX
8
FILL
10
49.846154
20
145.641026
30
0.0
0
VERTEX
8
FILL
10
49.641026
20
145.846154
30
0.0
0
VERTEX
8
FILL
10
49.641026
20
145.948718
30
0.0
0
VERTEX
8
FILL
10
49.435897
20
145.743590
30
0.0
0
VERTEX
8
FILL
10
48.615385
20
145.743590
30
0.0
0
VERTEX
8
FILL
10
48.512821
20
145.641026
30
0.0
0
VERTEX
8
FILL
10
48.307692
20
145.641026
30
0.0
0
VERTEX
8
FILL
10
48.205128
20
145.538462
30
0.0
0
SEQEND
8
FILL
0
ENDSEC
0
EOF